%TF.GenerationSoftware,KiCad,Pcbnew,10.0.0*%
%TF.CreationDate,2026-04-13T00:54:44-04:00*%
%TF.ProjectId,usb-controller-32,7573622d-636f-46e7-9472-6f6c6c65722d,rev?*%
%TF.SameCoordinates,Original*%
%TF.FileFunction,Legend,Top*%
%TF.FilePolarity,Positive*%
%FSLAX46Y46*%
G04 Gerber Fmt 4.6, Leading zero omitted, Abs format (unit mm)*
G04 Created by KiCad (PCBNEW 10.0.0) date 2026-04-13 00:54:44*
%MOMM*%
%LPD*%
G01*
G04 APERTURE LIST*
%ADD10C,0.150000*%
%ADD11C,0.120000*%
G04 APERTURE END LIST*
D10*
X221989819Y-53633333D02*
X222704104Y-53633333D01*
X222704104Y-53633333D02*
X222846961Y-53680952D01*
X222846961Y-53680952D02*
X222942200Y-53776190D01*
X222942200Y-53776190D02*
X222989819Y-53919047D01*
X222989819Y-53919047D02*
X222989819Y-54014285D01*
X221989819Y-53252380D02*
X221989819Y-52633333D01*
X221989819Y-52633333D02*
X222370771Y-52966666D01*
X222370771Y-52966666D02*
X222370771Y-52823809D01*
X222370771Y-52823809D02*
X222418390Y-52728571D01*
X222418390Y-52728571D02*
X222466009Y-52680952D01*
X222466009Y-52680952D02*
X222561247Y-52633333D01*
X222561247Y-52633333D02*
X222799342Y-52633333D01*
X222799342Y-52633333D02*
X222894580Y-52680952D01*
X222894580Y-52680952D02*
X222942200Y-52728571D01*
X222942200Y-52728571D02*
X222989819Y-52823809D01*
X222989819Y-52823809D02*
X222989819Y-53109523D01*
X222989819Y-53109523D02*
X222942200Y-53204761D01*
X222942200Y-53204761D02*
X222894580Y-53252380D01*
X150892142Y-114324819D02*
X150558809Y-113848628D01*
X150320714Y-114324819D02*
X150320714Y-113324819D01*
X150320714Y-113324819D02*
X150701666Y-113324819D01*
X150701666Y-113324819D02*
X150796904Y-113372438D01*
X150796904Y-113372438D02*
X150844523Y-113420057D01*
X150844523Y-113420057D02*
X150892142Y-113515295D01*
X150892142Y-113515295D02*
X150892142Y-113658152D01*
X150892142Y-113658152D02*
X150844523Y-113753390D01*
X150844523Y-113753390D02*
X150796904Y-113801009D01*
X150796904Y-113801009D02*
X150701666Y-113848628D01*
X150701666Y-113848628D02*
X150320714Y-113848628D01*
X151225476Y-113324819D02*
X151844523Y-113324819D01*
X151844523Y-113324819D02*
X151511190Y-113705771D01*
X151511190Y-113705771D02*
X151654047Y-113705771D01*
X151654047Y-113705771D02*
X151749285Y-113753390D01*
X151749285Y-113753390D02*
X151796904Y-113801009D01*
X151796904Y-113801009D02*
X151844523Y-113896247D01*
X151844523Y-113896247D02*
X151844523Y-114134342D01*
X151844523Y-114134342D02*
X151796904Y-114229580D01*
X151796904Y-114229580D02*
X151749285Y-114277200D01*
X151749285Y-114277200D02*
X151654047Y-114324819D01*
X151654047Y-114324819D02*
X151368333Y-114324819D01*
X151368333Y-114324819D02*
X151273095Y-114277200D01*
X151273095Y-114277200D02*
X151225476Y-114229580D01*
X152415952Y-113753390D02*
X152320714Y-113705771D01*
X152320714Y-113705771D02*
X152273095Y-113658152D01*
X152273095Y-113658152D02*
X152225476Y-113562914D01*
X152225476Y-113562914D02*
X152225476Y-113515295D01*
X152225476Y-113515295D02*
X152273095Y-113420057D01*
X152273095Y-113420057D02*
X152320714Y-113372438D01*
X152320714Y-113372438D02*
X152415952Y-113324819D01*
X152415952Y-113324819D02*
X152606428Y-113324819D01*
X152606428Y-113324819D02*
X152701666Y-113372438D01*
X152701666Y-113372438D02*
X152749285Y-113420057D01*
X152749285Y-113420057D02*
X152796904Y-113515295D01*
X152796904Y-113515295D02*
X152796904Y-113562914D01*
X152796904Y-113562914D02*
X152749285Y-113658152D01*
X152749285Y-113658152D02*
X152701666Y-113705771D01*
X152701666Y-113705771D02*
X152606428Y-113753390D01*
X152606428Y-113753390D02*
X152415952Y-113753390D01*
X152415952Y-113753390D02*
X152320714Y-113801009D01*
X152320714Y-113801009D02*
X152273095Y-113848628D01*
X152273095Y-113848628D02*
X152225476Y-113943866D01*
X152225476Y-113943866D02*
X152225476Y-114134342D01*
X152225476Y-114134342D02*
X152273095Y-114229580D01*
X152273095Y-114229580D02*
X152320714Y-114277200D01*
X152320714Y-114277200D02*
X152415952Y-114324819D01*
X152415952Y-114324819D02*
X152606428Y-114324819D01*
X152606428Y-114324819D02*
X152701666Y-114277200D01*
X152701666Y-114277200D02*
X152749285Y-114229580D01*
X152749285Y-114229580D02*
X152796904Y-114134342D01*
X152796904Y-114134342D02*
X152796904Y-113943866D01*
X152796904Y-113943866D02*
X152749285Y-113848628D01*
X152749285Y-113848628D02*
X152701666Y-113801009D01*
X152701666Y-113801009D02*
X152606428Y-113753390D01*
X120248333Y-89124819D02*
X119915000Y-88648628D01*
X119676905Y-89124819D02*
X119676905Y-88124819D01*
X119676905Y-88124819D02*
X120057857Y-88124819D01*
X120057857Y-88124819D02*
X120153095Y-88172438D01*
X120153095Y-88172438D02*
X120200714Y-88220057D01*
X120200714Y-88220057D02*
X120248333Y-88315295D01*
X120248333Y-88315295D02*
X120248333Y-88458152D01*
X120248333Y-88458152D02*
X120200714Y-88553390D01*
X120200714Y-88553390D02*
X120153095Y-88601009D01*
X120153095Y-88601009D02*
X120057857Y-88648628D01*
X120057857Y-88648628D02*
X119676905Y-88648628D01*
X120724524Y-89124819D02*
X120915000Y-89124819D01*
X120915000Y-89124819D02*
X121010238Y-89077200D01*
X121010238Y-89077200D02*
X121057857Y-89029580D01*
X121057857Y-89029580D02*
X121153095Y-88886723D01*
X121153095Y-88886723D02*
X121200714Y-88696247D01*
X121200714Y-88696247D02*
X121200714Y-88315295D01*
X121200714Y-88315295D02*
X121153095Y-88220057D01*
X121153095Y-88220057D02*
X121105476Y-88172438D01*
X121105476Y-88172438D02*
X121010238Y-88124819D01*
X121010238Y-88124819D02*
X120819762Y-88124819D01*
X120819762Y-88124819D02*
X120724524Y-88172438D01*
X120724524Y-88172438D02*
X120676905Y-88220057D01*
X120676905Y-88220057D02*
X120629286Y-88315295D01*
X120629286Y-88315295D02*
X120629286Y-88553390D01*
X120629286Y-88553390D02*
X120676905Y-88648628D01*
X120676905Y-88648628D02*
X120724524Y-88696247D01*
X120724524Y-88696247D02*
X120819762Y-88743866D01*
X120819762Y-88743866D02*
X121010238Y-88743866D01*
X121010238Y-88743866D02*
X121105476Y-88696247D01*
X121105476Y-88696247D02*
X121153095Y-88648628D01*
X121153095Y-88648628D02*
X121200714Y-88553390D01*
X69644580Y-84166666D02*
X69692200Y-84214285D01*
X69692200Y-84214285D02*
X69739819Y-84357142D01*
X69739819Y-84357142D02*
X69739819Y-84452380D01*
X69739819Y-84452380D02*
X69692200Y-84595237D01*
X69692200Y-84595237D02*
X69596961Y-84690475D01*
X69596961Y-84690475D02*
X69501723Y-84738094D01*
X69501723Y-84738094D02*
X69311247Y-84785713D01*
X69311247Y-84785713D02*
X69168390Y-84785713D01*
X69168390Y-84785713D02*
X68977914Y-84738094D01*
X68977914Y-84738094D02*
X68882676Y-84690475D01*
X68882676Y-84690475D02*
X68787438Y-84595237D01*
X68787438Y-84595237D02*
X68739819Y-84452380D01*
X68739819Y-84452380D02*
X68739819Y-84357142D01*
X68739819Y-84357142D02*
X68787438Y-84214285D01*
X68787438Y-84214285D02*
X68835057Y-84166666D01*
X69168390Y-83595237D02*
X69120771Y-83690475D01*
X69120771Y-83690475D02*
X69073152Y-83738094D01*
X69073152Y-83738094D02*
X68977914Y-83785713D01*
X68977914Y-83785713D02*
X68930295Y-83785713D01*
X68930295Y-83785713D02*
X68835057Y-83738094D01*
X68835057Y-83738094D02*
X68787438Y-83690475D01*
X68787438Y-83690475D02*
X68739819Y-83595237D01*
X68739819Y-83595237D02*
X68739819Y-83404761D01*
X68739819Y-83404761D02*
X68787438Y-83309523D01*
X68787438Y-83309523D02*
X68835057Y-83261904D01*
X68835057Y-83261904D02*
X68930295Y-83214285D01*
X68930295Y-83214285D02*
X68977914Y-83214285D01*
X68977914Y-83214285D02*
X69073152Y-83261904D01*
X69073152Y-83261904D02*
X69120771Y-83309523D01*
X69120771Y-83309523D02*
X69168390Y-83404761D01*
X69168390Y-83404761D02*
X69168390Y-83595237D01*
X69168390Y-83595237D02*
X69216009Y-83690475D01*
X69216009Y-83690475D02*
X69263628Y-83738094D01*
X69263628Y-83738094D02*
X69358866Y-83785713D01*
X69358866Y-83785713D02*
X69549342Y-83785713D01*
X69549342Y-83785713D02*
X69644580Y-83738094D01*
X69644580Y-83738094D02*
X69692200Y-83690475D01*
X69692200Y-83690475D02*
X69739819Y-83595237D01*
X69739819Y-83595237D02*
X69739819Y-83404761D01*
X69739819Y-83404761D02*
X69692200Y-83309523D01*
X69692200Y-83309523D02*
X69644580Y-83261904D01*
X69644580Y-83261904D02*
X69549342Y-83214285D01*
X69549342Y-83214285D02*
X69358866Y-83214285D01*
X69358866Y-83214285D02*
X69263628Y-83261904D01*
X69263628Y-83261904D02*
X69216009Y-83309523D01*
X69216009Y-83309523D02*
X69168390Y-83404761D01*
X151119819Y-53583333D02*
X151834104Y-53583333D01*
X151834104Y-53583333D02*
X151976961Y-53630952D01*
X151976961Y-53630952D02*
X152072200Y-53726190D01*
X152072200Y-53726190D02*
X152119819Y-53869047D01*
X152119819Y-53869047D02*
X152119819Y-53964285D01*
X151215057Y-53154761D02*
X151167438Y-53107142D01*
X151167438Y-53107142D02*
X151119819Y-53011904D01*
X151119819Y-53011904D02*
X151119819Y-52773809D01*
X151119819Y-52773809D02*
X151167438Y-52678571D01*
X151167438Y-52678571D02*
X151215057Y-52630952D01*
X151215057Y-52630952D02*
X151310295Y-52583333D01*
X151310295Y-52583333D02*
X151405533Y-52583333D01*
X151405533Y-52583333D02*
X151548390Y-52630952D01*
X151548390Y-52630952D02*
X152119819Y-53202380D01*
X152119819Y-53202380D02*
X152119819Y-52583333D01*
X223932142Y-74159580D02*
X223884523Y-74207200D01*
X223884523Y-74207200D02*
X223741666Y-74254819D01*
X223741666Y-74254819D02*
X223646428Y-74254819D01*
X223646428Y-74254819D02*
X223503571Y-74207200D01*
X223503571Y-74207200D02*
X223408333Y-74111961D01*
X223408333Y-74111961D02*
X223360714Y-74016723D01*
X223360714Y-74016723D02*
X223313095Y-73826247D01*
X223313095Y-73826247D02*
X223313095Y-73683390D01*
X223313095Y-73683390D02*
X223360714Y-73492914D01*
X223360714Y-73492914D02*
X223408333Y-73397676D01*
X223408333Y-73397676D02*
X223503571Y-73302438D01*
X223503571Y-73302438D02*
X223646428Y-73254819D01*
X223646428Y-73254819D02*
X223741666Y-73254819D01*
X223741666Y-73254819D02*
X223884523Y-73302438D01*
X223884523Y-73302438D02*
X223932142Y-73350057D01*
X224313095Y-73350057D02*
X224360714Y-73302438D01*
X224360714Y-73302438D02*
X224455952Y-73254819D01*
X224455952Y-73254819D02*
X224694047Y-73254819D01*
X224694047Y-73254819D02*
X224789285Y-73302438D01*
X224789285Y-73302438D02*
X224836904Y-73350057D01*
X224836904Y-73350057D02*
X224884523Y-73445295D01*
X224884523Y-73445295D02*
X224884523Y-73540533D01*
X224884523Y-73540533D02*
X224836904Y-73683390D01*
X224836904Y-73683390D02*
X224265476Y-74254819D01*
X224265476Y-74254819D02*
X224884523Y-74254819D01*
X225789285Y-73254819D02*
X225313095Y-73254819D01*
X225313095Y-73254819D02*
X225265476Y-73731009D01*
X225265476Y-73731009D02*
X225313095Y-73683390D01*
X225313095Y-73683390D02*
X225408333Y-73635771D01*
X225408333Y-73635771D02*
X225646428Y-73635771D01*
X225646428Y-73635771D02*
X225741666Y-73683390D01*
X225741666Y-73683390D02*
X225789285Y-73731009D01*
X225789285Y-73731009D02*
X225836904Y-73826247D01*
X225836904Y-73826247D02*
X225836904Y-74064342D01*
X225836904Y-74064342D02*
X225789285Y-74159580D01*
X225789285Y-74159580D02*
X225741666Y-74207200D01*
X225741666Y-74207200D02*
X225646428Y-74254819D01*
X225646428Y-74254819D02*
X225408333Y-74254819D01*
X225408333Y-74254819D02*
X225313095Y-74207200D01*
X225313095Y-74207200D02*
X225265476Y-74159580D01*
X183772142Y-128704819D02*
X183438809Y-128228628D01*
X183200714Y-128704819D02*
X183200714Y-127704819D01*
X183200714Y-127704819D02*
X183581666Y-127704819D01*
X183581666Y-127704819D02*
X183676904Y-127752438D01*
X183676904Y-127752438D02*
X183724523Y-127800057D01*
X183724523Y-127800057D02*
X183772142Y-127895295D01*
X183772142Y-127895295D02*
X183772142Y-128038152D01*
X183772142Y-128038152D02*
X183724523Y-128133390D01*
X183724523Y-128133390D02*
X183676904Y-128181009D01*
X183676904Y-128181009D02*
X183581666Y-128228628D01*
X183581666Y-128228628D02*
X183200714Y-128228628D01*
X184105476Y-127704819D02*
X184724523Y-127704819D01*
X184724523Y-127704819D02*
X184391190Y-128085771D01*
X184391190Y-128085771D02*
X184534047Y-128085771D01*
X184534047Y-128085771D02*
X184629285Y-128133390D01*
X184629285Y-128133390D02*
X184676904Y-128181009D01*
X184676904Y-128181009D02*
X184724523Y-128276247D01*
X184724523Y-128276247D02*
X184724523Y-128514342D01*
X184724523Y-128514342D02*
X184676904Y-128609580D01*
X184676904Y-128609580D02*
X184629285Y-128657200D01*
X184629285Y-128657200D02*
X184534047Y-128704819D01*
X184534047Y-128704819D02*
X184248333Y-128704819D01*
X184248333Y-128704819D02*
X184153095Y-128657200D01*
X184153095Y-128657200D02*
X184105476Y-128609580D01*
X185105476Y-127800057D02*
X185153095Y-127752438D01*
X185153095Y-127752438D02*
X185248333Y-127704819D01*
X185248333Y-127704819D02*
X185486428Y-127704819D01*
X185486428Y-127704819D02*
X185581666Y-127752438D01*
X185581666Y-127752438D02*
X185629285Y-127800057D01*
X185629285Y-127800057D02*
X185676904Y-127895295D01*
X185676904Y-127895295D02*
X185676904Y-127990533D01*
X185676904Y-127990533D02*
X185629285Y-128133390D01*
X185629285Y-128133390D02*
X185057857Y-128704819D01*
X185057857Y-128704819D02*
X185676904Y-128704819D01*
X146144580Y-124142857D02*
X146192200Y-124190476D01*
X146192200Y-124190476D02*
X146239819Y-124333333D01*
X146239819Y-124333333D02*
X146239819Y-124428571D01*
X146239819Y-124428571D02*
X146192200Y-124571428D01*
X146192200Y-124571428D02*
X146096961Y-124666666D01*
X146096961Y-124666666D02*
X146001723Y-124714285D01*
X146001723Y-124714285D02*
X145811247Y-124761904D01*
X145811247Y-124761904D02*
X145668390Y-124761904D01*
X145668390Y-124761904D02*
X145477914Y-124714285D01*
X145477914Y-124714285D02*
X145382676Y-124666666D01*
X145382676Y-124666666D02*
X145287438Y-124571428D01*
X145287438Y-124571428D02*
X145239819Y-124428571D01*
X145239819Y-124428571D02*
X145239819Y-124333333D01*
X145239819Y-124333333D02*
X145287438Y-124190476D01*
X145287438Y-124190476D02*
X145335057Y-124142857D01*
X146239819Y-123190476D02*
X146239819Y-123761904D01*
X146239819Y-123476190D02*
X145239819Y-123476190D01*
X145239819Y-123476190D02*
X145382676Y-123571428D01*
X145382676Y-123571428D02*
X145477914Y-123666666D01*
X145477914Y-123666666D02*
X145525533Y-123761904D01*
X145573152Y-122333333D02*
X146239819Y-122333333D01*
X145192200Y-122571428D02*
X145906485Y-122809523D01*
X145906485Y-122809523D02*
X145906485Y-122190476D01*
X135272142Y-127784819D02*
X134938809Y-127308628D01*
X134700714Y-127784819D02*
X134700714Y-126784819D01*
X134700714Y-126784819D02*
X135081666Y-126784819D01*
X135081666Y-126784819D02*
X135176904Y-126832438D01*
X135176904Y-126832438D02*
X135224523Y-126880057D01*
X135224523Y-126880057D02*
X135272142Y-126975295D01*
X135272142Y-126975295D02*
X135272142Y-127118152D01*
X135272142Y-127118152D02*
X135224523Y-127213390D01*
X135224523Y-127213390D02*
X135176904Y-127261009D01*
X135176904Y-127261009D02*
X135081666Y-127308628D01*
X135081666Y-127308628D02*
X134700714Y-127308628D01*
X135653095Y-126880057D02*
X135700714Y-126832438D01*
X135700714Y-126832438D02*
X135795952Y-126784819D01*
X135795952Y-126784819D02*
X136034047Y-126784819D01*
X136034047Y-126784819D02*
X136129285Y-126832438D01*
X136129285Y-126832438D02*
X136176904Y-126880057D01*
X136176904Y-126880057D02*
X136224523Y-126975295D01*
X136224523Y-126975295D02*
X136224523Y-127070533D01*
X136224523Y-127070533D02*
X136176904Y-127213390D01*
X136176904Y-127213390D02*
X135605476Y-127784819D01*
X135605476Y-127784819D02*
X136224523Y-127784819D01*
X137129285Y-126784819D02*
X136653095Y-126784819D01*
X136653095Y-126784819D02*
X136605476Y-127261009D01*
X136605476Y-127261009D02*
X136653095Y-127213390D01*
X136653095Y-127213390D02*
X136748333Y-127165771D01*
X136748333Y-127165771D02*
X136986428Y-127165771D01*
X136986428Y-127165771D02*
X137081666Y-127213390D01*
X137081666Y-127213390D02*
X137129285Y-127261009D01*
X137129285Y-127261009D02*
X137176904Y-127356247D01*
X137176904Y-127356247D02*
X137176904Y-127594342D01*
X137176904Y-127594342D02*
X137129285Y-127689580D01*
X137129285Y-127689580D02*
X137081666Y-127737200D01*
X137081666Y-127737200D02*
X136986428Y-127784819D01*
X136986428Y-127784819D02*
X136748333Y-127784819D01*
X136748333Y-127784819D02*
X136653095Y-127737200D01*
X136653095Y-127737200D02*
X136605476Y-127689580D01*
X168748333Y-89624819D02*
X168415000Y-89148628D01*
X168176905Y-89624819D02*
X168176905Y-88624819D01*
X168176905Y-88624819D02*
X168557857Y-88624819D01*
X168557857Y-88624819D02*
X168653095Y-88672438D01*
X168653095Y-88672438D02*
X168700714Y-88720057D01*
X168700714Y-88720057D02*
X168748333Y-88815295D01*
X168748333Y-88815295D02*
X168748333Y-88958152D01*
X168748333Y-88958152D02*
X168700714Y-89053390D01*
X168700714Y-89053390D02*
X168653095Y-89101009D01*
X168653095Y-89101009D02*
X168557857Y-89148628D01*
X168557857Y-89148628D02*
X168176905Y-89148628D01*
X169605476Y-88958152D02*
X169605476Y-89624819D01*
X169367381Y-88577200D02*
X169129286Y-89291485D01*
X169129286Y-89291485D02*
X169748333Y-89291485D01*
X180748333Y-89624819D02*
X180415000Y-89148628D01*
X180176905Y-89624819D02*
X180176905Y-88624819D01*
X180176905Y-88624819D02*
X180557857Y-88624819D01*
X180557857Y-88624819D02*
X180653095Y-88672438D01*
X180653095Y-88672438D02*
X180700714Y-88720057D01*
X180700714Y-88720057D02*
X180748333Y-88815295D01*
X180748333Y-88815295D02*
X180748333Y-88958152D01*
X180748333Y-88958152D02*
X180700714Y-89053390D01*
X180700714Y-89053390D02*
X180653095Y-89101009D01*
X180653095Y-89101009D02*
X180557857Y-89148628D01*
X180557857Y-89148628D02*
X180176905Y-89148628D01*
X181129286Y-88720057D02*
X181176905Y-88672438D01*
X181176905Y-88672438D02*
X181272143Y-88624819D01*
X181272143Y-88624819D02*
X181510238Y-88624819D01*
X181510238Y-88624819D02*
X181605476Y-88672438D01*
X181605476Y-88672438D02*
X181653095Y-88720057D01*
X181653095Y-88720057D02*
X181700714Y-88815295D01*
X181700714Y-88815295D02*
X181700714Y-88910533D01*
X181700714Y-88910533D02*
X181653095Y-89053390D01*
X181653095Y-89053390D02*
X181081667Y-89624819D01*
X181081667Y-89624819D02*
X181700714Y-89624819D01*
X183748333Y-89624819D02*
X183415000Y-89148628D01*
X183176905Y-89624819D02*
X183176905Y-88624819D01*
X183176905Y-88624819D02*
X183557857Y-88624819D01*
X183557857Y-88624819D02*
X183653095Y-88672438D01*
X183653095Y-88672438D02*
X183700714Y-88720057D01*
X183700714Y-88720057D02*
X183748333Y-88815295D01*
X183748333Y-88815295D02*
X183748333Y-88958152D01*
X183748333Y-88958152D02*
X183700714Y-89053390D01*
X183700714Y-89053390D02*
X183653095Y-89101009D01*
X183653095Y-89101009D02*
X183557857Y-89148628D01*
X183557857Y-89148628D02*
X183176905Y-89148628D01*
X184700714Y-89624819D02*
X184129286Y-89624819D01*
X184415000Y-89624819D02*
X184415000Y-88624819D01*
X184415000Y-88624819D02*
X184319762Y-88767676D01*
X184319762Y-88767676D02*
X184224524Y-88862914D01*
X184224524Y-88862914D02*
X184129286Y-88910533D01*
X100475476Y-132357200D02*
X100618333Y-132404819D01*
X100618333Y-132404819D02*
X100856428Y-132404819D01*
X100856428Y-132404819D02*
X100951666Y-132357200D01*
X100951666Y-132357200D02*
X100999285Y-132309580D01*
X100999285Y-132309580D02*
X101046904Y-132214342D01*
X101046904Y-132214342D02*
X101046904Y-132119104D01*
X101046904Y-132119104D02*
X100999285Y-132023866D01*
X100999285Y-132023866D02*
X100951666Y-131976247D01*
X100951666Y-131976247D02*
X100856428Y-131928628D01*
X100856428Y-131928628D02*
X100665952Y-131881009D01*
X100665952Y-131881009D02*
X100570714Y-131833390D01*
X100570714Y-131833390D02*
X100523095Y-131785771D01*
X100523095Y-131785771D02*
X100475476Y-131690533D01*
X100475476Y-131690533D02*
X100475476Y-131595295D01*
X100475476Y-131595295D02*
X100523095Y-131500057D01*
X100523095Y-131500057D02*
X100570714Y-131452438D01*
X100570714Y-131452438D02*
X100665952Y-131404819D01*
X100665952Y-131404819D02*
X100904047Y-131404819D01*
X100904047Y-131404819D02*
X101046904Y-131452438D01*
X101380238Y-131404819D02*
X101618333Y-132404819D01*
X101618333Y-132404819D02*
X101808809Y-131690533D01*
X101808809Y-131690533D02*
X101999285Y-132404819D01*
X101999285Y-132404819D02*
X102237381Y-131404819D01*
X103142142Y-132404819D02*
X102570714Y-132404819D01*
X102856428Y-132404819D02*
X102856428Y-131404819D01*
X102856428Y-131404819D02*
X102761190Y-131547676D01*
X102761190Y-131547676D02*
X102665952Y-131642914D01*
X102665952Y-131642914D02*
X102570714Y-131690533D01*
X103475476Y-131404819D02*
X104094523Y-131404819D01*
X104094523Y-131404819D02*
X103761190Y-131785771D01*
X103761190Y-131785771D02*
X103904047Y-131785771D01*
X103904047Y-131785771D02*
X103999285Y-131833390D01*
X103999285Y-131833390D02*
X104046904Y-131881009D01*
X104046904Y-131881009D02*
X104094523Y-131976247D01*
X104094523Y-131976247D02*
X104094523Y-132214342D01*
X104094523Y-132214342D02*
X104046904Y-132309580D01*
X104046904Y-132309580D02*
X103999285Y-132357200D01*
X103999285Y-132357200D02*
X103904047Y-132404819D01*
X103904047Y-132404819D02*
X103618333Y-132404819D01*
X103618333Y-132404819D02*
X103523095Y-132357200D01*
X103523095Y-132357200D02*
X103475476Y-132309580D01*
X89272142Y-88624819D02*
X88938809Y-88148628D01*
X88700714Y-88624819D02*
X88700714Y-87624819D01*
X88700714Y-87624819D02*
X89081666Y-87624819D01*
X89081666Y-87624819D02*
X89176904Y-87672438D01*
X89176904Y-87672438D02*
X89224523Y-87720057D01*
X89224523Y-87720057D02*
X89272142Y-87815295D01*
X89272142Y-87815295D02*
X89272142Y-87958152D01*
X89272142Y-87958152D02*
X89224523Y-88053390D01*
X89224523Y-88053390D02*
X89176904Y-88101009D01*
X89176904Y-88101009D02*
X89081666Y-88148628D01*
X89081666Y-88148628D02*
X88700714Y-88148628D01*
X90224523Y-88624819D02*
X89653095Y-88624819D01*
X89938809Y-88624819D02*
X89938809Y-87624819D01*
X89938809Y-87624819D02*
X89843571Y-87767676D01*
X89843571Y-87767676D02*
X89748333Y-87862914D01*
X89748333Y-87862914D02*
X89653095Y-87910533D01*
X90557857Y-87624819D02*
X91176904Y-87624819D01*
X91176904Y-87624819D02*
X90843571Y-88005771D01*
X90843571Y-88005771D02*
X90986428Y-88005771D01*
X90986428Y-88005771D02*
X91081666Y-88053390D01*
X91081666Y-88053390D02*
X91129285Y-88101009D01*
X91129285Y-88101009D02*
X91176904Y-88196247D01*
X91176904Y-88196247D02*
X91176904Y-88434342D01*
X91176904Y-88434342D02*
X91129285Y-88529580D01*
X91129285Y-88529580D02*
X91081666Y-88577200D01*
X91081666Y-88577200D02*
X90986428Y-88624819D01*
X90986428Y-88624819D02*
X90700714Y-88624819D01*
X90700714Y-88624819D02*
X90605476Y-88577200D01*
X90605476Y-88577200D02*
X90557857Y-88529580D01*
X107522142Y-88874819D02*
X107188809Y-88398628D01*
X106950714Y-88874819D02*
X106950714Y-87874819D01*
X106950714Y-87874819D02*
X107331666Y-87874819D01*
X107331666Y-87874819D02*
X107426904Y-87922438D01*
X107426904Y-87922438D02*
X107474523Y-87970057D01*
X107474523Y-87970057D02*
X107522142Y-88065295D01*
X107522142Y-88065295D02*
X107522142Y-88208152D01*
X107522142Y-88208152D02*
X107474523Y-88303390D01*
X107474523Y-88303390D02*
X107426904Y-88351009D01*
X107426904Y-88351009D02*
X107331666Y-88398628D01*
X107331666Y-88398628D02*
X106950714Y-88398628D01*
X108474523Y-88874819D02*
X107903095Y-88874819D01*
X108188809Y-88874819D02*
X108188809Y-87874819D01*
X108188809Y-87874819D02*
X108093571Y-88017676D01*
X108093571Y-88017676D02*
X107998333Y-88112914D01*
X107998333Y-88112914D02*
X107903095Y-88160533D01*
X108855476Y-87970057D02*
X108903095Y-87922438D01*
X108903095Y-87922438D02*
X108998333Y-87874819D01*
X108998333Y-87874819D02*
X109236428Y-87874819D01*
X109236428Y-87874819D02*
X109331666Y-87922438D01*
X109331666Y-87922438D02*
X109379285Y-87970057D01*
X109379285Y-87970057D02*
X109426904Y-88065295D01*
X109426904Y-88065295D02*
X109426904Y-88160533D01*
X109426904Y-88160533D02*
X109379285Y-88303390D01*
X109379285Y-88303390D02*
X108807857Y-88874819D01*
X108807857Y-88874819D02*
X109426904Y-88874819D01*
X108022142Y-127374819D02*
X107688809Y-126898628D01*
X107450714Y-127374819D02*
X107450714Y-126374819D01*
X107450714Y-126374819D02*
X107831666Y-126374819D01*
X107831666Y-126374819D02*
X107926904Y-126422438D01*
X107926904Y-126422438D02*
X107974523Y-126470057D01*
X107974523Y-126470057D02*
X108022142Y-126565295D01*
X108022142Y-126565295D02*
X108022142Y-126708152D01*
X108022142Y-126708152D02*
X107974523Y-126803390D01*
X107974523Y-126803390D02*
X107926904Y-126851009D01*
X107926904Y-126851009D02*
X107831666Y-126898628D01*
X107831666Y-126898628D02*
X107450714Y-126898628D01*
X108403095Y-126470057D02*
X108450714Y-126422438D01*
X108450714Y-126422438D02*
X108545952Y-126374819D01*
X108545952Y-126374819D02*
X108784047Y-126374819D01*
X108784047Y-126374819D02*
X108879285Y-126422438D01*
X108879285Y-126422438D02*
X108926904Y-126470057D01*
X108926904Y-126470057D02*
X108974523Y-126565295D01*
X108974523Y-126565295D02*
X108974523Y-126660533D01*
X108974523Y-126660533D02*
X108926904Y-126803390D01*
X108926904Y-126803390D02*
X108355476Y-127374819D01*
X108355476Y-127374819D02*
X108974523Y-127374819D01*
X109355476Y-126470057D02*
X109403095Y-126422438D01*
X109403095Y-126422438D02*
X109498333Y-126374819D01*
X109498333Y-126374819D02*
X109736428Y-126374819D01*
X109736428Y-126374819D02*
X109831666Y-126422438D01*
X109831666Y-126422438D02*
X109879285Y-126470057D01*
X109879285Y-126470057D02*
X109926904Y-126565295D01*
X109926904Y-126565295D02*
X109926904Y-126660533D01*
X109926904Y-126660533D02*
X109879285Y-126803390D01*
X109879285Y-126803390D02*
X109307857Y-127374819D01*
X109307857Y-127374819D02*
X109926904Y-127374819D01*
X229558809Y-102978628D02*
X229558809Y-103454819D01*
X229225476Y-102454819D02*
X229558809Y-102978628D01*
X229558809Y-102978628D02*
X229892142Y-102454819D01*
X230749285Y-103454819D02*
X230177857Y-103454819D01*
X230463571Y-103454819D02*
X230463571Y-102454819D01*
X230463571Y-102454819D02*
X230368333Y-102597676D01*
X230368333Y-102597676D02*
X230273095Y-102692914D01*
X230273095Y-102692914D02*
X230177857Y-102740533D01*
X118489819Y-65982857D02*
X118013628Y-66316190D01*
X118489819Y-66554285D02*
X117489819Y-66554285D01*
X117489819Y-66554285D02*
X117489819Y-66173333D01*
X117489819Y-66173333D02*
X117537438Y-66078095D01*
X117537438Y-66078095D02*
X117585057Y-66030476D01*
X117585057Y-66030476D02*
X117680295Y-65982857D01*
X117680295Y-65982857D02*
X117823152Y-65982857D01*
X117823152Y-65982857D02*
X117918390Y-66030476D01*
X117918390Y-66030476D02*
X117966009Y-66078095D01*
X117966009Y-66078095D02*
X118013628Y-66173333D01*
X118013628Y-66173333D02*
X118013628Y-66554285D01*
X117489819Y-65649523D02*
X117489819Y-65030476D01*
X117489819Y-65030476D02*
X117870771Y-65363809D01*
X117870771Y-65363809D02*
X117870771Y-65220952D01*
X117870771Y-65220952D02*
X117918390Y-65125714D01*
X117918390Y-65125714D02*
X117966009Y-65078095D01*
X117966009Y-65078095D02*
X118061247Y-65030476D01*
X118061247Y-65030476D02*
X118299342Y-65030476D01*
X118299342Y-65030476D02*
X118394580Y-65078095D01*
X118394580Y-65078095D02*
X118442200Y-65125714D01*
X118442200Y-65125714D02*
X118489819Y-65220952D01*
X118489819Y-65220952D02*
X118489819Y-65506666D01*
X118489819Y-65506666D02*
X118442200Y-65601904D01*
X118442200Y-65601904D02*
X118394580Y-65649523D01*
X117489819Y-64697142D02*
X117489819Y-64078095D01*
X117489819Y-64078095D02*
X117870771Y-64411428D01*
X117870771Y-64411428D02*
X117870771Y-64268571D01*
X117870771Y-64268571D02*
X117918390Y-64173333D01*
X117918390Y-64173333D02*
X117966009Y-64125714D01*
X117966009Y-64125714D02*
X118061247Y-64078095D01*
X118061247Y-64078095D02*
X118299342Y-64078095D01*
X118299342Y-64078095D02*
X118394580Y-64125714D01*
X118394580Y-64125714D02*
X118442200Y-64173333D01*
X118442200Y-64173333D02*
X118489819Y-64268571D01*
X118489819Y-64268571D02*
X118489819Y-64554285D01*
X118489819Y-64554285D02*
X118442200Y-64649523D01*
X118442200Y-64649523D02*
X118394580Y-64697142D01*
X150272142Y-128204819D02*
X149938809Y-127728628D01*
X149700714Y-128204819D02*
X149700714Y-127204819D01*
X149700714Y-127204819D02*
X150081666Y-127204819D01*
X150081666Y-127204819D02*
X150176904Y-127252438D01*
X150176904Y-127252438D02*
X150224523Y-127300057D01*
X150224523Y-127300057D02*
X150272142Y-127395295D01*
X150272142Y-127395295D02*
X150272142Y-127538152D01*
X150272142Y-127538152D02*
X150224523Y-127633390D01*
X150224523Y-127633390D02*
X150176904Y-127681009D01*
X150176904Y-127681009D02*
X150081666Y-127728628D01*
X150081666Y-127728628D02*
X149700714Y-127728628D01*
X150653095Y-127300057D02*
X150700714Y-127252438D01*
X150700714Y-127252438D02*
X150795952Y-127204819D01*
X150795952Y-127204819D02*
X151034047Y-127204819D01*
X151034047Y-127204819D02*
X151129285Y-127252438D01*
X151129285Y-127252438D02*
X151176904Y-127300057D01*
X151176904Y-127300057D02*
X151224523Y-127395295D01*
X151224523Y-127395295D02*
X151224523Y-127490533D01*
X151224523Y-127490533D02*
X151176904Y-127633390D01*
X151176904Y-127633390D02*
X150605476Y-128204819D01*
X150605476Y-128204819D02*
X151224523Y-128204819D01*
X151557857Y-127204819D02*
X152224523Y-127204819D01*
X152224523Y-127204819D02*
X151795952Y-128204819D01*
X131144580Y-124142857D02*
X131192200Y-124190476D01*
X131192200Y-124190476D02*
X131239819Y-124333333D01*
X131239819Y-124333333D02*
X131239819Y-124428571D01*
X131239819Y-124428571D02*
X131192200Y-124571428D01*
X131192200Y-124571428D02*
X131096961Y-124666666D01*
X131096961Y-124666666D02*
X131001723Y-124714285D01*
X131001723Y-124714285D02*
X130811247Y-124761904D01*
X130811247Y-124761904D02*
X130668390Y-124761904D01*
X130668390Y-124761904D02*
X130477914Y-124714285D01*
X130477914Y-124714285D02*
X130382676Y-124666666D01*
X130382676Y-124666666D02*
X130287438Y-124571428D01*
X130287438Y-124571428D02*
X130239819Y-124428571D01*
X130239819Y-124428571D02*
X130239819Y-124333333D01*
X130239819Y-124333333D02*
X130287438Y-124190476D01*
X130287438Y-124190476D02*
X130335057Y-124142857D01*
X131239819Y-123190476D02*
X131239819Y-123761904D01*
X131239819Y-123476190D02*
X130239819Y-123476190D01*
X130239819Y-123476190D02*
X130382676Y-123571428D01*
X130382676Y-123571428D02*
X130477914Y-123666666D01*
X130477914Y-123666666D02*
X130525533Y-123761904D01*
X130239819Y-122857142D02*
X130239819Y-122238095D01*
X130239819Y-122238095D02*
X130620771Y-122571428D01*
X130620771Y-122571428D02*
X130620771Y-122428571D01*
X130620771Y-122428571D02*
X130668390Y-122333333D01*
X130668390Y-122333333D02*
X130716009Y-122285714D01*
X130716009Y-122285714D02*
X130811247Y-122238095D01*
X130811247Y-122238095D02*
X131049342Y-122238095D01*
X131049342Y-122238095D02*
X131144580Y-122285714D01*
X131144580Y-122285714D02*
X131192200Y-122333333D01*
X131192200Y-122333333D02*
X131239819Y-122428571D01*
X131239819Y-122428571D02*
X131239819Y-122714285D01*
X131239819Y-122714285D02*
X131192200Y-122809523D01*
X131192200Y-122809523D02*
X131144580Y-122857142D01*
X113359819Y-66142857D02*
X112883628Y-66476190D01*
X113359819Y-66714285D02*
X112359819Y-66714285D01*
X112359819Y-66714285D02*
X112359819Y-66333333D01*
X112359819Y-66333333D02*
X112407438Y-66238095D01*
X112407438Y-66238095D02*
X112455057Y-66190476D01*
X112455057Y-66190476D02*
X112550295Y-66142857D01*
X112550295Y-66142857D02*
X112693152Y-66142857D01*
X112693152Y-66142857D02*
X112788390Y-66190476D01*
X112788390Y-66190476D02*
X112836009Y-66238095D01*
X112836009Y-66238095D02*
X112883628Y-66333333D01*
X112883628Y-66333333D02*
X112883628Y-66714285D01*
X112359819Y-65809523D02*
X112359819Y-65190476D01*
X112359819Y-65190476D02*
X112740771Y-65523809D01*
X112740771Y-65523809D02*
X112740771Y-65380952D01*
X112740771Y-65380952D02*
X112788390Y-65285714D01*
X112788390Y-65285714D02*
X112836009Y-65238095D01*
X112836009Y-65238095D02*
X112931247Y-65190476D01*
X112931247Y-65190476D02*
X113169342Y-65190476D01*
X113169342Y-65190476D02*
X113264580Y-65238095D01*
X113264580Y-65238095D02*
X113312200Y-65285714D01*
X113312200Y-65285714D02*
X113359819Y-65380952D01*
X113359819Y-65380952D02*
X113359819Y-65666666D01*
X113359819Y-65666666D02*
X113312200Y-65761904D01*
X113312200Y-65761904D02*
X113264580Y-65809523D01*
X112693152Y-64333333D02*
X113359819Y-64333333D01*
X112312200Y-64571428D02*
X113026485Y-64809523D01*
X113026485Y-64809523D02*
X113026485Y-64190476D01*
X153748333Y-89624819D02*
X153415000Y-89148628D01*
X153176905Y-89624819D02*
X153176905Y-88624819D01*
X153176905Y-88624819D02*
X153557857Y-88624819D01*
X153557857Y-88624819D02*
X153653095Y-88672438D01*
X153653095Y-88672438D02*
X153700714Y-88720057D01*
X153700714Y-88720057D02*
X153748333Y-88815295D01*
X153748333Y-88815295D02*
X153748333Y-88958152D01*
X153748333Y-88958152D02*
X153700714Y-89053390D01*
X153700714Y-89053390D02*
X153653095Y-89101009D01*
X153653095Y-89101009D02*
X153557857Y-89148628D01*
X153557857Y-89148628D02*
X153176905Y-89148628D01*
X154605476Y-88624819D02*
X154415000Y-88624819D01*
X154415000Y-88624819D02*
X154319762Y-88672438D01*
X154319762Y-88672438D02*
X154272143Y-88720057D01*
X154272143Y-88720057D02*
X154176905Y-88862914D01*
X154176905Y-88862914D02*
X154129286Y-89053390D01*
X154129286Y-89053390D02*
X154129286Y-89434342D01*
X154129286Y-89434342D02*
X154176905Y-89529580D01*
X154176905Y-89529580D02*
X154224524Y-89577200D01*
X154224524Y-89577200D02*
X154319762Y-89624819D01*
X154319762Y-89624819D02*
X154510238Y-89624819D01*
X154510238Y-89624819D02*
X154605476Y-89577200D01*
X154605476Y-89577200D02*
X154653095Y-89529580D01*
X154653095Y-89529580D02*
X154700714Y-89434342D01*
X154700714Y-89434342D02*
X154700714Y-89196247D01*
X154700714Y-89196247D02*
X154653095Y-89101009D01*
X154653095Y-89101009D02*
X154605476Y-89053390D01*
X154605476Y-89053390D02*
X154510238Y-89005771D01*
X154510238Y-89005771D02*
X154319762Y-89005771D01*
X154319762Y-89005771D02*
X154224524Y-89053390D01*
X154224524Y-89053390D02*
X154176905Y-89101009D01*
X154176905Y-89101009D02*
X154129286Y-89196247D01*
X115725476Y-132687200D02*
X115868333Y-132734819D01*
X115868333Y-132734819D02*
X116106428Y-132734819D01*
X116106428Y-132734819D02*
X116201666Y-132687200D01*
X116201666Y-132687200D02*
X116249285Y-132639580D01*
X116249285Y-132639580D02*
X116296904Y-132544342D01*
X116296904Y-132544342D02*
X116296904Y-132449104D01*
X116296904Y-132449104D02*
X116249285Y-132353866D01*
X116249285Y-132353866D02*
X116201666Y-132306247D01*
X116201666Y-132306247D02*
X116106428Y-132258628D01*
X116106428Y-132258628D02*
X115915952Y-132211009D01*
X115915952Y-132211009D02*
X115820714Y-132163390D01*
X115820714Y-132163390D02*
X115773095Y-132115771D01*
X115773095Y-132115771D02*
X115725476Y-132020533D01*
X115725476Y-132020533D02*
X115725476Y-131925295D01*
X115725476Y-131925295D02*
X115773095Y-131830057D01*
X115773095Y-131830057D02*
X115820714Y-131782438D01*
X115820714Y-131782438D02*
X115915952Y-131734819D01*
X115915952Y-131734819D02*
X116154047Y-131734819D01*
X116154047Y-131734819D02*
X116296904Y-131782438D01*
X116630238Y-131734819D02*
X116868333Y-132734819D01*
X116868333Y-132734819D02*
X117058809Y-132020533D01*
X117058809Y-132020533D02*
X117249285Y-132734819D01*
X117249285Y-132734819D02*
X117487381Y-131734819D01*
X118392142Y-132734819D02*
X117820714Y-132734819D01*
X118106428Y-132734819D02*
X118106428Y-131734819D01*
X118106428Y-131734819D02*
X118011190Y-131877676D01*
X118011190Y-131877676D02*
X117915952Y-131972914D01*
X117915952Y-131972914D02*
X117820714Y-132020533D01*
X119249285Y-132068152D02*
X119249285Y-132734819D01*
X119011190Y-131687200D02*
X118773095Y-132401485D01*
X118773095Y-132401485D02*
X119392142Y-132401485D01*
X69225476Y-93607200D02*
X69368333Y-93654819D01*
X69368333Y-93654819D02*
X69606428Y-93654819D01*
X69606428Y-93654819D02*
X69701666Y-93607200D01*
X69701666Y-93607200D02*
X69749285Y-93559580D01*
X69749285Y-93559580D02*
X69796904Y-93464342D01*
X69796904Y-93464342D02*
X69796904Y-93369104D01*
X69796904Y-93369104D02*
X69749285Y-93273866D01*
X69749285Y-93273866D02*
X69701666Y-93226247D01*
X69701666Y-93226247D02*
X69606428Y-93178628D01*
X69606428Y-93178628D02*
X69415952Y-93131009D01*
X69415952Y-93131009D02*
X69320714Y-93083390D01*
X69320714Y-93083390D02*
X69273095Y-93035771D01*
X69273095Y-93035771D02*
X69225476Y-92940533D01*
X69225476Y-92940533D02*
X69225476Y-92845295D01*
X69225476Y-92845295D02*
X69273095Y-92750057D01*
X69273095Y-92750057D02*
X69320714Y-92702438D01*
X69320714Y-92702438D02*
X69415952Y-92654819D01*
X69415952Y-92654819D02*
X69654047Y-92654819D01*
X69654047Y-92654819D02*
X69796904Y-92702438D01*
X70130238Y-92654819D02*
X70368333Y-93654819D01*
X70368333Y-93654819D02*
X70558809Y-92940533D01*
X70558809Y-92940533D02*
X70749285Y-93654819D01*
X70749285Y-93654819D02*
X70987381Y-92654819D01*
X71892142Y-93654819D02*
X71320714Y-93654819D01*
X71606428Y-93654819D02*
X71606428Y-92654819D01*
X71606428Y-92654819D02*
X71511190Y-92797676D01*
X71511190Y-92797676D02*
X71415952Y-92892914D01*
X71415952Y-92892914D02*
X71320714Y-92940533D01*
X72511190Y-92654819D02*
X72606428Y-92654819D01*
X72606428Y-92654819D02*
X72701666Y-92702438D01*
X72701666Y-92702438D02*
X72749285Y-92750057D01*
X72749285Y-92750057D02*
X72796904Y-92845295D01*
X72796904Y-92845295D02*
X72844523Y-93035771D01*
X72844523Y-93035771D02*
X72844523Y-93273866D01*
X72844523Y-93273866D02*
X72796904Y-93464342D01*
X72796904Y-93464342D02*
X72749285Y-93559580D01*
X72749285Y-93559580D02*
X72701666Y-93607200D01*
X72701666Y-93607200D02*
X72606428Y-93654819D01*
X72606428Y-93654819D02*
X72511190Y-93654819D01*
X72511190Y-93654819D02*
X72415952Y-93607200D01*
X72415952Y-93607200D02*
X72368333Y-93559580D01*
X72368333Y-93559580D02*
X72320714Y-93464342D01*
X72320714Y-93464342D02*
X72273095Y-93273866D01*
X72273095Y-93273866D02*
X72273095Y-93035771D01*
X72273095Y-93035771D02*
X72320714Y-92845295D01*
X72320714Y-92845295D02*
X72368333Y-92750057D01*
X72368333Y-92750057D02*
X72415952Y-92702438D01*
X72415952Y-92702438D02*
X72511190Y-92654819D01*
X202432142Y-63659580D02*
X202384523Y-63707200D01*
X202384523Y-63707200D02*
X202241666Y-63754819D01*
X202241666Y-63754819D02*
X202146428Y-63754819D01*
X202146428Y-63754819D02*
X202003571Y-63707200D01*
X202003571Y-63707200D02*
X201908333Y-63611961D01*
X201908333Y-63611961D02*
X201860714Y-63516723D01*
X201860714Y-63516723D02*
X201813095Y-63326247D01*
X201813095Y-63326247D02*
X201813095Y-63183390D01*
X201813095Y-63183390D02*
X201860714Y-62992914D01*
X201860714Y-62992914D02*
X201908333Y-62897676D01*
X201908333Y-62897676D02*
X202003571Y-62802438D01*
X202003571Y-62802438D02*
X202146428Y-62754819D01*
X202146428Y-62754819D02*
X202241666Y-62754819D01*
X202241666Y-62754819D02*
X202384523Y-62802438D01*
X202384523Y-62802438D02*
X202432142Y-62850057D01*
X202813095Y-62850057D02*
X202860714Y-62802438D01*
X202860714Y-62802438D02*
X202955952Y-62754819D01*
X202955952Y-62754819D02*
X203194047Y-62754819D01*
X203194047Y-62754819D02*
X203289285Y-62802438D01*
X203289285Y-62802438D02*
X203336904Y-62850057D01*
X203336904Y-62850057D02*
X203384523Y-62945295D01*
X203384523Y-62945295D02*
X203384523Y-63040533D01*
X203384523Y-63040533D02*
X203336904Y-63183390D01*
X203336904Y-63183390D02*
X202765476Y-63754819D01*
X202765476Y-63754819D02*
X203384523Y-63754819D01*
X204241666Y-63088152D02*
X204241666Y-63754819D01*
X204003571Y-62707200D02*
X203765476Y-63421485D01*
X203765476Y-63421485D02*
X204384523Y-63421485D01*
X92272142Y-88624819D02*
X91938809Y-88148628D01*
X91700714Y-88624819D02*
X91700714Y-87624819D01*
X91700714Y-87624819D02*
X92081666Y-87624819D01*
X92081666Y-87624819D02*
X92176904Y-87672438D01*
X92176904Y-87672438D02*
X92224523Y-87720057D01*
X92224523Y-87720057D02*
X92272142Y-87815295D01*
X92272142Y-87815295D02*
X92272142Y-87958152D01*
X92272142Y-87958152D02*
X92224523Y-88053390D01*
X92224523Y-88053390D02*
X92176904Y-88101009D01*
X92176904Y-88101009D02*
X92081666Y-88148628D01*
X92081666Y-88148628D02*
X91700714Y-88148628D01*
X93224523Y-88624819D02*
X92653095Y-88624819D01*
X92938809Y-88624819D02*
X92938809Y-87624819D01*
X92938809Y-87624819D02*
X92843571Y-87767676D01*
X92843571Y-87767676D02*
X92748333Y-87862914D01*
X92748333Y-87862914D02*
X92653095Y-87910533D01*
X94081666Y-87958152D02*
X94081666Y-88624819D01*
X93843571Y-87577200D02*
X93605476Y-88291485D01*
X93605476Y-88291485D02*
X94224523Y-88291485D01*
X70144580Y-122666666D02*
X70192200Y-122714285D01*
X70192200Y-122714285D02*
X70239819Y-122857142D01*
X70239819Y-122857142D02*
X70239819Y-122952380D01*
X70239819Y-122952380D02*
X70192200Y-123095237D01*
X70192200Y-123095237D02*
X70096961Y-123190475D01*
X70096961Y-123190475D02*
X70001723Y-123238094D01*
X70001723Y-123238094D02*
X69811247Y-123285713D01*
X69811247Y-123285713D02*
X69668390Y-123285713D01*
X69668390Y-123285713D02*
X69477914Y-123238094D01*
X69477914Y-123238094D02*
X69382676Y-123190475D01*
X69382676Y-123190475D02*
X69287438Y-123095237D01*
X69287438Y-123095237D02*
X69239819Y-122952380D01*
X69239819Y-122952380D02*
X69239819Y-122857142D01*
X69239819Y-122857142D02*
X69287438Y-122714285D01*
X69287438Y-122714285D02*
X69335057Y-122666666D01*
X70239819Y-122190475D02*
X70239819Y-121999999D01*
X70239819Y-121999999D02*
X70192200Y-121904761D01*
X70192200Y-121904761D02*
X70144580Y-121857142D01*
X70144580Y-121857142D02*
X70001723Y-121761904D01*
X70001723Y-121761904D02*
X69811247Y-121714285D01*
X69811247Y-121714285D02*
X69430295Y-121714285D01*
X69430295Y-121714285D02*
X69335057Y-121761904D01*
X69335057Y-121761904D02*
X69287438Y-121809523D01*
X69287438Y-121809523D02*
X69239819Y-121904761D01*
X69239819Y-121904761D02*
X69239819Y-122095237D01*
X69239819Y-122095237D02*
X69287438Y-122190475D01*
X69287438Y-122190475D02*
X69335057Y-122238094D01*
X69335057Y-122238094D02*
X69430295Y-122285713D01*
X69430295Y-122285713D02*
X69668390Y-122285713D01*
X69668390Y-122285713D02*
X69763628Y-122238094D01*
X69763628Y-122238094D02*
X69811247Y-122190475D01*
X69811247Y-122190475D02*
X69858866Y-122095237D01*
X69858866Y-122095237D02*
X69858866Y-121904761D01*
X69858866Y-121904761D02*
X69811247Y-121809523D01*
X69811247Y-121809523D02*
X69763628Y-121761904D01*
X69763628Y-121761904D02*
X69668390Y-121714285D01*
X138272142Y-127784819D02*
X137938809Y-127308628D01*
X137700714Y-127784819D02*
X137700714Y-126784819D01*
X137700714Y-126784819D02*
X138081666Y-126784819D01*
X138081666Y-126784819D02*
X138176904Y-126832438D01*
X138176904Y-126832438D02*
X138224523Y-126880057D01*
X138224523Y-126880057D02*
X138272142Y-126975295D01*
X138272142Y-126975295D02*
X138272142Y-127118152D01*
X138272142Y-127118152D02*
X138224523Y-127213390D01*
X138224523Y-127213390D02*
X138176904Y-127261009D01*
X138176904Y-127261009D02*
X138081666Y-127308628D01*
X138081666Y-127308628D02*
X137700714Y-127308628D01*
X138653095Y-126880057D02*
X138700714Y-126832438D01*
X138700714Y-126832438D02*
X138795952Y-126784819D01*
X138795952Y-126784819D02*
X139034047Y-126784819D01*
X139034047Y-126784819D02*
X139129285Y-126832438D01*
X139129285Y-126832438D02*
X139176904Y-126880057D01*
X139176904Y-126880057D02*
X139224523Y-126975295D01*
X139224523Y-126975295D02*
X139224523Y-127070533D01*
X139224523Y-127070533D02*
X139176904Y-127213390D01*
X139176904Y-127213390D02*
X138605476Y-127784819D01*
X138605476Y-127784819D02*
X139224523Y-127784819D01*
X140081666Y-126784819D02*
X139891190Y-126784819D01*
X139891190Y-126784819D02*
X139795952Y-126832438D01*
X139795952Y-126832438D02*
X139748333Y-126880057D01*
X139748333Y-126880057D02*
X139653095Y-127022914D01*
X139653095Y-127022914D02*
X139605476Y-127213390D01*
X139605476Y-127213390D02*
X139605476Y-127594342D01*
X139605476Y-127594342D02*
X139653095Y-127689580D01*
X139653095Y-127689580D02*
X139700714Y-127737200D01*
X139700714Y-127737200D02*
X139795952Y-127784819D01*
X139795952Y-127784819D02*
X139986428Y-127784819D01*
X139986428Y-127784819D02*
X140081666Y-127737200D01*
X140081666Y-127737200D02*
X140129285Y-127689580D01*
X140129285Y-127689580D02*
X140176904Y-127594342D01*
X140176904Y-127594342D02*
X140176904Y-127356247D01*
X140176904Y-127356247D02*
X140129285Y-127261009D01*
X140129285Y-127261009D02*
X140081666Y-127213390D01*
X140081666Y-127213390D02*
X139986428Y-127165771D01*
X139986428Y-127165771D02*
X139795952Y-127165771D01*
X139795952Y-127165771D02*
X139700714Y-127213390D01*
X139700714Y-127213390D02*
X139653095Y-127261009D01*
X139653095Y-127261009D02*
X139605476Y-127356247D01*
X100394580Y-84336666D02*
X100442200Y-84384285D01*
X100442200Y-84384285D02*
X100489819Y-84527142D01*
X100489819Y-84527142D02*
X100489819Y-84622380D01*
X100489819Y-84622380D02*
X100442200Y-84765237D01*
X100442200Y-84765237D02*
X100346961Y-84860475D01*
X100346961Y-84860475D02*
X100251723Y-84908094D01*
X100251723Y-84908094D02*
X100061247Y-84955713D01*
X100061247Y-84955713D02*
X99918390Y-84955713D01*
X99918390Y-84955713D02*
X99727914Y-84908094D01*
X99727914Y-84908094D02*
X99632676Y-84860475D01*
X99632676Y-84860475D02*
X99537438Y-84765237D01*
X99537438Y-84765237D02*
X99489819Y-84622380D01*
X99489819Y-84622380D02*
X99489819Y-84527142D01*
X99489819Y-84527142D02*
X99537438Y-84384285D01*
X99537438Y-84384285D02*
X99585057Y-84336666D01*
X99489819Y-83479523D02*
X99489819Y-83669999D01*
X99489819Y-83669999D02*
X99537438Y-83765237D01*
X99537438Y-83765237D02*
X99585057Y-83812856D01*
X99585057Y-83812856D02*
X99727914Y-83908094D01*
X99727914Y-83908094D02*
X99918390Y-83955713D01*
X99918390Y-83955713D02*
X100299342Y-83955713D01*
X100299342Y-83955713D02*
X100394580Y-83908094D01*
X100394580Y-83908094D02*
X100442200Y-83860475D01*
X100442200Y-83860475D02*
X100489819Y-83765237D01*
X100489819Y-83765237D02*
X100489819Y-83574761D01*
X100489819Y-83574761D02*
X100442200Y-83479523D01*
X100442200Y-83479523D02*
X100394580Y-83431904D01*
X100394580Y-83431904D02*
X100299342Y-83384285D01*
X100299342Y-83384285D02*
X100061247Y-83384285D01*
X100061247Y-83384285D02*
X99966009Y-83431904D01*
X99966009Y-83431904D02*
X99918390Y-83479523D01*
X99918390Y-83479523D02*
X99870771Y-83574761D01*
X99870771Y-83574761D02*
X99870771Y-83765237D01*
X99870771Y-83765237D02*
X99918390Y-83860475D01*
X99918390Y-83860475D02*
X99966009Y-83908094D01*
X99966009Y-83908094D02*
X100061247Y-83955713D01*
X85201667Y-93607200D02*
X85344524Y-93654819D01*
X85344524Y-93654819D02*
X85582619Y-93654819D01*
X85582619Y-93654819D02*
X85677857Y-93607200D01*
X85677857Y-93607200D02*
X85725476Y-93559580D01*
X85725476Y-93559580D02*
X85773095Y-93464342D01*
X85773095Y-93464342D02*
X85773095Y-93369104D01*
X85773095Y-93369104D02*
X85725476Y-93273866D01*
X85725476Y-93273866D02*
X85677857Y-93226247D01*
X85677857Y-93226247D02*
X85582619Y-93178628D01*
X85582619Y-93178628D02*
X85392143Y-93131009D01*
X85392143Y-93131009D02*
X85296905Y-93083390D01*
X85296905Y-93083390D02*
X85249286Y-93035771D01*
X85249286Y-93035771D02*
X85201667Y-92940533D01*
X85201667Y-92940533D02*
X85201667Y-92845295D01*
X85201667Y-92845295D02*
X85249286Y-92750057D01*
X85249286Y-92750057D02*
X85296905Y-92702438D01*
X85296905Y-92702438D02*
X85392143Y-92654819D01*
X85392143Y-92654819D02*
X85630238Y-92654819D01*
X85630238Y-92654819D02*
X85773095Y-92702438D01*
X86106429Y-92654819D02*
X86344524Y-93654819D01*
X86344524Y-93654819D02*
X86535000Y-92940533D01*
X86535000Y-92940533D02*
X86725476Y-93654819D01*
X86725476Y-93654819D02*
X86963572Y-92654819D01*
X87392143Y-93654819D02*
X87582619Y-93654819D01*
X87582619Y-93654819D02*
X87677857Y-93607200D01*
X87677857Y-93607200D02*
X87725476Y-93559580D01*
X87725476Y-93559580D02*
X87820714Y-93416723D01*
X87820714Y-93416723D02*
X87868333Y-93226247D01*
X87868333Y-93226247D02*
X87868333Y-92845295D01*
X87868333Y-92845295D02*
X87820714Y-92750057D01*
X87820714Y-92750057D02*
X87773095Y-92702438D01*
X87773095Y-92702438D02*
X87677857Y-92654819D01*
X87677857Y-92654819D02*
X87487381Y-92654819D01*
X87487381Y-92654819D02*
X87392143Y-92702438D01*
X87392143Y-92702438D02*
X87344524Y-92750057D01*
X87344524Y-92750057D02*
X87296905Y-92845295D01*
X87296905Y-92845295D02*
X87296905Y-93083390D01*
X87296905Y-93083390D02*
X87344524Y-93178628D01*
X87344524Y-93178628D02*
X87392143Y-93226247D01*
X87392143Y-93226247D02*
X87487381Y-93273866D01*
X87487381Y-93273866D02*
X87677857Y-93273866D01*
X87677857Y-93273866D02*
X87773095Y-93226247D01*
X87773095Y-93226247D02*
X87820714Y-93178628D01*
X87820714Y-93178628D02*
X87868333Y-93083390D01*
X153272142Y-128204819D02*
X152938809Y-127728628D01*
X152700714Y-128204819D02*
X152700714Y-127204819D01*
X152700714Y-127204819D02*
X153081666Y-127204819D01*
X153081666Y-127204819D02*
X153176904Y-127252438D01*
X153176904Y-127252438D02*
X153224523Y-127300057D01*
X153224523Y-127300057D02*
X153272142Y-127395295D01*
X153272142Y-127395295D02*
X153272142Y-127538152D01*
X153272142Y-127538152D02*
X153224523Y-127633390D01*
X153224523Y-127633390D02*
X153176904Y-127681009D01*
X153176904Y-127681009D02*
X153081666Y-127728628D01*
X153081666Y-127728628D02*
X152700714Y-127728628D01*
X153653095Y-127300057D02*
X153700714Y-127252438D01*
X153700714Y-127252438D02*
X153795952Y-127204819D01*
X153795952Y-127204819D02*
X154034047Y-127204819D01*
X154034047Y-127204819D02*
X154129285Y-127252438D01*
X154129285Y-127252438D02*
X154176904Y-127300057D01*
X154176904Y-127300057D02*
X154224523Y-127395295D01*
X154224523Y-127395295D02*
X154224523Y-127490533D01*
X154224523Y-127490533D02*
X154176904Y-127633390D01*
X154176904Y-127633390D02*
X153605476Y-128204819D01*
X153605476Y-128204819D02*
X154224523Y-128204819D01*
X154795952Y-127633390D02*
X154700714Y-127585771D01*
X154700714Y-127585771D02*
X154653095Y-127538152D01*
X154653095Y-127538152D02*
X154605476Y-127442914D01*
X154605476Y-127442914D02*
X154605476Y-127395295D01*
X154605476Y-127395295D02*
X154653095Y-127300057D01*
X154653095Y-127300057D02*
X154700714Y-127252438D01*
X154700714Y-127252438D02*
X154795952Y-127204819D01*
X154795952Y-127204819D02*
X154986428Y-127204819D01*
X154986428Y-127204819D02*
X155081666Y-127252438D01*
X155081666Y-127252438D02*
X155129285Y-127300057D01*
X155129285Y-127300057D02*
X155176904Y-127395295D01*
X155176904Y-127395295D02*
X155176904Y-127442914D01*
X155176904Y-127442914D02*
X155129285Y-127538152D01*
X155129285Y-127538152D02*
X155081666Y-127585771D01*
X155081666Y-127585771D02*
X154986428Y-127633390D01*
X154986428Y-127633390D02*
X154795952Y-127633390D01*
X154795952Y-127633390D02*
X154700714Y-127681009D01*
X154700714Y-127681009D02*
X154653095Y-127728628D01*
X154653095Y-127728628D02*
X154605476Y-127823866D01*
X154605476Y-127823866D02*
X154605476Y-128014342D01*
X154605476Y-128014342D02*
X154653095Y-128109580D01*
X154653095Y-128109580D02*
X154700714Y-128157200D01*
X154700714Y-128157200D02*
X154795952Y-128204819D01*
X154795952Y-128204819D02*
X154986428Y-128204819D01*
X154986428Y-128204819D02*
X155081666Y-128157200D01*
X155081666Y-128157200D02*
X155129285Y-128109580D01*
X155129285Y-128109580D02*
X155176904Y-128014342D01*
X155176904Y-128014342D02*
X155176904Y-127823866D01*
X155176904Y-127823866D02*
X155129285Y-127728628D01*
X155129285Y-127728628D02*
X155081666Y-127681009D01*
X155081666Y-127681009D02*
X154986428Y-127633390D01*
X180772142Y-128704819D02*
X180438809Y-128228628D01*
X180200714Y-128704819D02*
X180200714Y-127704819D01*
X180200714Y-127704819D02*
X180581666Y-127704819D01*
X180581666Y-127704819D02*
X180676904Y-127752438D01*
X180676904Y-127752438D02*
X180724523Y-127800057D01*
X180724523Y-127800057D02*
X180772142Y-127895295D01*
X180772142Y-127895295D02*
X180772142Y-128038152D01*
X180772142Y-128038152D02*
X180724523Y-128133390D01*
X180724523Y-128133390D02*
X180676904Y-128181009D01*
X180676904Y-128181009D02*
X180581666Y-128228628D01*
X180581666Y-128228628D02*
X180200714Y-128228628D01*
X181105476Y-127704819D02*
X181724523Y-127704819D01*
X181724523Y-127704819D02*
X181391190Y-128085771D01*
X181391190Y-128085771D02*
X181534047Y-128085771D01*
X181534047Y-128085771D02*
X181629285Y-128133390D01*
X181629285Y-128133390D02*
X181676904Y-128181009D01*
X181676904Y-128181009D02*
X181724523Y-128276247D01*
X181724523Y-128276247D02*
X181724523Y-128514342D01*
X181724523Y-128514342D02*
X181676904Y-128609580D01*
X181676904Y-128609580D02*
X181629285Y-128657200D01*
X181629285Y-128657200D02*
X181534047Y-128704819D01*
X181534047Y-128704819D02*
X181248333Y-128704819D01*
X181248333Y-128704819D02*
X181153095Y-128657200D01*
X181153095Y-128657200D02*
X181105476Y-128609580D01*
X182676904Y-128704819D02*
X182105476Y-128704819D01*
X182391190Y-128704819D02*
X182391190Y-127704819D01*
X182391190Y-127704819D02*
X182295952Y-127847676D01*
X182295952Y-127847676D02*
X182200714Y-127942914D01*
X182200714Y-127942914D02*
X182105476Y-127990533D01*
X130951667Y-94357200D02*
X131094524Y-94404819D01*
X131094524Y-94404819D02*
X131332619Y-94404819D01*
X131332619Y-94404819D02*
X131427857Y-94357200D01*
X131427857Y-94357200D02*
X131475476Y-94309580D01*
X131475476Y-94309580D02*
X131523095Y-94214342D01*
X131523095Y-94214342D02*
X131523095Y-94119104D01*
X131523095Y-94119104D02*
X131475476Y-94023866D01*
X131475476Y-94023866D02*
X131427857Y-93976247D01*
X131427857Y-93976247D02*
X131332619Y-93928628D01*
X131332619Y-93928628D02*
X131142143Y-93881009D01*
X131142143Y-93881009D02*
X131046905Y-93833390D01*
X131046905Y-93833390D02*
X130999286Y-93785771D01*
X130999286Y-93785771D02*
X130951667Y-93690533D01*
X130951667Y-93690533D02*
X130951667Y-93595295D01*
X130951667Y-93595295D02*
X130999286Y-93500057D01*
X130999286Y-93500057D02*
X131046905Y-93452438D01*
X131046905Y-93452438D02*
X131142143Y-93404819D01*
X131142143Y-93404819D02*
X131380238Y-93404819D01*
X131380238Y-93404819D02*
X131523095Y-93452438D01*
X131856429Y-93404819D02*
X132094524Y-94404819D01*
X132094524Y-94404819D02*
X132285000Y-93690533D01*
X132285000Y-93690533D02*
X132475476Y-94404819D01*
X132475476Y-94404819D02*
X132713572Y-93404819D01*
X133523095Y-93404819D02*
X133332619Y-93404819D01*
X133332619Y-93404819D02*
X133237381Y-93452438D01*
X133237381Y-93452438D02*
X133189762Y-93500057D01*
X133189762Y-93500057D02*
X133094524Y-93642914D01*
X133094524Y-93642914D02*
X133046905Y-93833390D01*
X133046905Y-93833390D02*
X133046905Y-94214342D01*
X133046905Y-94214342D02*
X133094524Y-94309580D01*
X133094524Y-94309580D02*
X133142143Y-94357200D01*
X133142143Y-94357200D02*
X133237381Y-94404819D01*
X133237381Y-94404819D02*
X133427857Y-94404819D01*
X133427857Y-94404819D02*
X133523095Y-94357200D01*
X133523095Y-94357200D02*
X133570714Y-94309580D01*
X133570714Y-94309580D02*
X133618333Y-94214342D01*
X133618333Y-94214342D02*
X133618333Y-93976247D01*
X133618333Y-93976247D02*
X133570714Y-93881009D01*
X133570714Y-93881009D02*
X133523095Y-93833390D01*
X133523095Y-93833390D02*
X133427857Y-93785771D01*
X133427857Y-93785771D02*
X133237381Y-93785771D01*
X133237381Y-93785771D02*
X133142143Y-93833390D01*
X133142143Y-93833390D02*
X133094524Y-93881009D01*
X133094524Y-93881009D02*
X133046905Y-93976247D01*
X145644580Y-85166666D02*
X145692200Y-85214285D01*
X145692200Y-85214285D02*
X145739819Y-85357142D01*
X145739819Y-85357142D02*
X145739819Y-85452380D01*
X145739819Y-85452380D02*
X145692200Y-85595237D01*
X145692200Y-85595237D02*
X145596961Y-85690475D01*
X145596961Y-85690475D02*
X145501723Y-85738094D01*
X145501723Y-85738094D02*
X145311247Y-85785713D01*
X145311247Y-85785713D02*
X145168390Y-85785713D01*
X145168390Y-85785713D02*
X144977914Y-85738094D01*
X144977914Y-85738094D02*
X144882676Y-85690475D01*
X144882676Y-85690475D02*
X144787438Y-85595237D01*
X144787438Y-85595237D02*
X144739819Y-85452380D01*
X144739819Y-85452380D02*
X144739819Y-85357142D01*
X144739819Y-85357142D02*
X144787438Y-85214285D01*
X144787438Y-85214285D02*
X144835057Y-85166666D01*
X144739819Y-84833332D02*
X144739819Y-84214285D01*
X144739819Y-84214285D02*
X145120771Y-84547618D01*
X145120771Y-84547618D02*
X145120771Y-84404761D01*
X145120771Y-84404761D02*
X145168390Y-84309523D01*
X145168390Y-84309523D02*
X145216009Y-84261904D01*
X145216009Y-84261904D02*
X145311247Y-84214285D01*
X145311247Y-84214285D02*
X145549342Y-84214285D01*
X145549342Y-84214285D02*
X145644580Y-84261904D01*
X145644580Y-84261904D02*
X145692200Y-84309523D01*
X145692200Y-84309523D02*
X145739819Y-84404761D01*
X145739819Y-84404761D02*
X145739819Y-84690475D01*
X145739819Y-84690475D02*
X145692200Y-84785713D01*
X145692200Y-84785713D02*
X145644580Y-84833332D01*
X235359819Y-87642857D02*
X234883628Y-87976190D01*
X235359819Y-88214285D02*
X234359819Y-88214285D01*
X234359819Y-88214285D02*
X234359819Y-87833333D01*
X234359819Y-87833333D02*
X234407438Y-87738095D01*
X234407438Y-87738095D02*
X234455057Y-87690476D01*
X234455057Y-87690476D02*
X234550295Y-87642857D01*
X234550295Y-87642857D02*
X234693152Y-87642857D01*
X234693152Y-87642857D02*
X234788390Y-87690476D01*
X234788390Y-87690476D02*
X234836009Y-87738095D01*
X234836009Y-87738095D02*
X234883628Y-87833333D01*
X234883628Y-87833333D02*
X234883628Y-88214285D01*
X234359819Y-87309523D02*
X234359819Y-86690476D01*
X234359819Y-86690476D02*
X234740771Y-87023809D01*
X234740771Y-87023809D02*
X234740771Y-86880952D01*
X234740771Y-86880952D02*
X234788390Y-86785714D01*
X234788390Y-86785714D02*
X234836009Y-86738095D01*
X234836009Y-86738095D02*
X234931247Y-86690476D01*
X234931247Y-86690476D02*
X235169342Y-86690476D01*
X235169342Y-86690476D02*
X235264580Y-86738095D01*
X235264580Y-86738095D02*
X235312200Y-86785714D01*
X235312200Y-86785714D02*
X235359819Y-86880952D01*
X235359819Y-86880952D02*
X235359819Y-87166666D01*
X235359819Y-87166666D02*
X235312200Y-87261904D01*
X235312200Y-87261904D02*
X235264580Y-87309523D01*
X234359819Y-86357142D02*
X234359819Y-85690476D01*
X234359819Y-85690476D02*
X235359819Y-86119047D01*
X145725476Y-133187200D02*
X145868333Y-133234819D01*
X145868333Y-133234819D02*
X146106428Y-133234819D01*
X146106428Y-133234819D02*
X146201666Y-133187200D01*
X146201666Y-133187200D02*
X146249285Y-133139580D01*
X146249285Y-133139580D02*
X146296904Y-133044342D01*
X146296904Y-133044342D02*
X146296904Y-132949104D01*
X146296904Y-132949104D02*
X146249285Y-132853866D01*
X146249285Y-132853866D02*
X146201666Y-132806247D01*
X146201666Y-132806247D02*
X146106428Y-132758628D01*
X146106428Y-132758628D02*
X145915952Y-132711009D01*
X145915952Y-132711009D02*
X145820714Y-132663390D01*
X145820714Y-132663390D02*
X145773095Y-132615771D01*
X145773095Y-132615771D02*
X145725476Y-132520533D01*
X145725476Y-132520533D02*
X145725476Y-132425295D01*
X145725476Y-132425295D02*
X145773095Y-132330057D01*
X145773095Y-132330057D02*
X145820714Y-132282438D01*
X145820714Y-132282438D02*
X145915952Y-132234819D01*
X145915952Y-132234819D02*
X146154047Y-132234819D01*
X146154047Y-132234819D02*
X146296904Y-132282438D01*
X146630238Y-132234819D02*
X146868333Y-133234819D01*
X146868333Y-133234819D02*
X147058809Y-132520533D01*
X147058809Y-132520533D02*
X147249285Y-133234819D01*
X147249285Y-133234819D02*
X147487381Y-132234819D01*
X148392142Y-133234819D02*
X147820714Y-133234819D01*
X148106428Y-133234819D02*
X148106428Y-132234819D01*
X148106428Y-132234819D02*
X148011190Y-132377676D01*
X148011190Y-132377676D02*
X147915952Y-132472914D01*
X147915952Y-132472914D02*
X147820714Y-132520533D01*
X149249285Y-132234819D02*
X149058809Y-132234819D01*
X149058809Y-132234819D02*
X148963571Y-132282438D01*
X148963571Y-132282438D02*
X148915952Y-132330057D01*
X148915952Y-132330057D02*
X148820714Y-132472914D01*
X148820714Y-132472914D02*
X148773095Y-132663390D01*
X148773095Y-132663390D02*
X148773095Y-133044342D01*
X148773095Y-133044342D02*
X148820714Y-133139580D01*
X148820714Y-133139580D02*
X148868333Y-133187200D01*
X148868333Y-133187200D02*
X148963571Y-133234819D01*
X148963571Y-133234819D02*
X149154047Y-133234819D01*
X149154047Y-133234819D02*
X149249285Y-133187200D01*
X149249285Y-133187200D02*
X149296904Y-133139580D01*
X149296904Y-133139580D02*
X149344523Y-133044342D01*
X149344523Y-133044342D02*
X149344523Y-132806247D01*
X149344523Y-132806247D02*
X149296904Y-132711009D01*
X149296904Y-132711009D02*
X149249285Y-132663390D01*
X149249285Y-132663390D02*
X149154047Y-132615771D01*
X149154047Y-132615771D02*
X148963571Y-132615771D01*
X148963571Y-132615771D02*
X148868333Y-132663390D01*
X148868333Y-132663390D02*
X148820714Y-132711009D01*
X148820714Y-132711009D02*
X148773095Y-132806247D01*
X202394580Y-147392857D02*
X202442200Y-147440476D01*
X202442200Y-147440476D02*
X202489819Y-147583333D01*
X202489819Y-147583333D02*
X202489819Y-147678571D01*
X202489819Y-147678571D02*
X202442200Y-147821428D01*
X202442200Y-147821428D02*
X202346961Y-147916666D01*
X202346961Y-147916666D02*
X202251723Y-147964285D01*
X202251723Y-147964285D02*
X202061247Y-148011904D01*
X202061247Y-148011904D02*
X201918390Y-148011904D01*
X201918390Y-148011904D02*
X201727914Y-147964285D01*
X201727914Y-147964285D02*
X201632676Y-147916666D01*
X201632676Y-147916666D02*
X201537438Y-147821428D01*
X201537438Y-147821428D02*
X201489819Y-147678571D01*
X201489819Y-147678571D02*
X201489819Y-147583333D01*
X201489819Y-147583333D02*
X201537438Y-147440476D01*
X201537438Y-147440476D02*
X201585057Y-147392857D01*
X201585057Y-147011904D02*
X201537438Y-146964285D01*
X201537438Y-146964285D02*
X201489819Y-146869047D01*
X201489819Y-146869047D02*
X201489819Y-146630952D01*
X201489819Y-146630952D02*
X201537438Y-146535714D01*
X201537438Y-146535714D02*
X201585057Y-146488095D01*
X201585057Y-146488095D02*
X201680295Y-146440476D01*
X201680295Y-146440476D02*
X201775533Y-146440476D01*
X201775533Y-146440476D02*
X201918390Y-146488095D01*
X201918390Y-146488095D02*
X202489819Y-147059523D01*
X202489819Y-147059523D02*
X202489819Y-146440476D01*
X201489819Y-146107142D02*
X201489819Y-145488095D01*
X201489819Y-145488095D02*
X201870771Y-145821428D01*
X201870771Y-145821428D02*
X201870771Y-145678571D01*
X201870771Y-145678571D02*
X201918390Y-145583333D01*
X201918390Y-145583333D02*
X201966009Y-145535714D01*
X201966009Y-145535714D02*
X202061247Y-145488095D01*
X202061247Y-145488095D02*
X202299342Y-145488095D01*
X202299342Y-145488095D02*
X202394580Y-145535714D01*
X202394580Y-145535714D02*
X202442200Y-145583333D01*
X202442200Y-145583333D02*
X202489819Y-145678571D01*
X202489819Y-145678571D02*
X202489819Y-145964285D01*
X202489819Y-145964285D02*
X202442200Y-146059523D01*
X202442200Y-146059523D02*
X202394580Y-146107142D01*
X135498333Y-89374819D02*
X135165000Y-88898628D01*
X134926905Y-89374819D02*
X134926905Y-88374819D01*
X134926905Y-88374819D02*
X135307857Y-88374819D01*
X135307857Y-88374819D02*
X135403095Y-88422438D01*
X135403095Y-88422438D02*
X135450714Y-88470057D01*
X135450714Y-88470057D02*
X135498333Y-88565295D01*
X135498333Y-88565295D02*
X135498333Y-88708152D01*
X135498333Y-88708152D02*
X135450714Y-88803390D01*
X135450714Y-88803390D02*
X135403095Y-88851009D01*
X135403095Y-88851009D02*
X135307857Y-88898628D01*
X135307857Y-88898628D02*
X134926905Y-88898628D01*
X135831667Y-88374819D02*
X136498333Y-88374819D01*
X136498333Y-88374819D02*
X136069762Y-89374819D01*
X205523095Y-133044819D02*
X205523095Y-133854342D01*
X205523095Y-133854342D02*
X205570714Y-133949580D01*
X205570714Y-133949580D02*
X205618333Y-133997200D01*
X205618333Y-133997200D02*
X205713571Y-134044819D01*
X205713571Y-134044819D02*
X205904047Y-134044819D01*
X205904047Y-134044819D02*
X205999285Y-133997200D01*
X205999285Y-133997200D02*
X206046904Y-133949580D01*
X206046904Y-133949580D02*
X206094523Y-133854342D01*
X206094523Y-133854342D02*
X206094523Y-133044819D01*
X207094523Y-134044819D02*
X206523095Y-134044819D01*
X206808809Y-134044819D02*
X206808809Y-133044819D01*
X206808809Y-133044819D02*
X206713571Y-133187676D01*
X206713571Y-133187676D02*
X206618333Y-133282914D01*
X206618333Y-133282914D02*
X206523095Y-133330533D01*
X85225476Y-132187200D02*
X85368333Y-132234819D01*
X85368333Y-132234819D02*
X85606428Y-132234819D01*
X85606428Y-132234819D02*
X85701666Y-132187200D01*
X85701666Y-132187200D02*
X85749285Y-132139580D01*
X85749285Y-132139580D02*
X85796904Y-132044342D01*
X85796904Y-132044342D02*
X85796904Y-131949104D01*
X85796904Y-131949104D02*
X85749285Y-131853866D01*
X85749285Y-131853866D02*
X85701666Y-131806247D01*
X85701666Y-131806247D02*
X85606428Y-131758628D01*
X85606428Y-131758628D02*
X85415952Y-131711009D01*
X85415952Y-131711009D02*
X85320714Y-131663390D01*
X85320714Y-131663390D02*
X85273095Y-131615771D01*
X85273095Y-131615771D02*
X85225476Y-131520533D01*
X85225476Y-131520533D02*
X85225476Y-131425295D01*
X85225476Y-131425295D02*
X85273095Y-131330057D01*
X85273095Y-131330057D02*
X85320714Y-131282438D01*
X85320714Y-131282438D02*
X85415952Y-131234819D01*
X85415952Y-131234819D02*
X85654047Y-131234819D01*
X85654047Y-131234819D02*
X85796904Y-131282438D01*
X86130238Y-131234819D02*
X86368333Y-132234819D01*
X86368333Y-132234819D02*
X86558809Y-131520533D01*
X86558809Y-131520533D02*
X86749285Y-132234819D01*
X86749285Y-132234819D02*
X86987381Y-131234819D01*
X87892142Y-132234819D02*
X87320714Y-132234819D01*
X87606428Y-132234819D02*
X87606428Y-131234819D01*
X87606428Y-131234819D02*
X87511190Y-131377676D01*
X87511190Y-131377676D02*
X87415952Y-131472914D01*
X87415952Y-131472914D02*
X87320714Y-131520533D01*
X88273095Y-131330057D02*
X88320714Y-131282438D01*
X88320714Y-131282438D02*
X88415952Y-131234819D01*
X88415952Y-131234819D02*
X88654047Y-131234819D01*
X88654047Y-131234819D02*
X88749285Y-131282438D01*
X88749285Y-131282438D02*
X88796904Y-131330057D01*
X88796904Y-131330057D02*
X88844523Y-131425295D01*
X88844523Y-131425295D02*
X88844523Y-131520533D01*
X88844523Y-131520533D02*
X88796904Y-131663390D01*
X88796904Y-131663390D02*
X88225476Y-132234819D01*
X88225476Y-132234819D02*
X88844523Y-132234819D01*
X85644580Y-123642857D02*
X85692200Y-123690476D01*
X85692200Y-123690476D02*
X85739819Y-123833333D01*
X85739819Y-123833333D02*
X85739819Y-123928571D01*
X85739819Y-123928571D02*
X85692200Y-124071428D01*
X85692200Y-124071428D02*
X85596961Y-124166666D01*
X85596961Y-124166666D02*
X85501723Y-124214285D01*
X85501723Y-124214285D02*
X85311247Y-124261904D01*
X85311247Y-124261904D02*
X85168390Y-124261904D01*
X85168390Y-124261904D02*
X84977914Y-124214285D01*
X84977914Y-124214285D02*
X84882676Y-124166666D01*
X84882676Y-124166666D02*
X84787438Y-124071428D01*
X84787438Y-124071428D02*
X84739819Y-123928571D01*
X84739819Y-123928571D02*
X84739819Y-123833333D01*
X84739819Y-123833333D02*
X84787438Y-123690476D01*
X84787438Y-123690476D02*
X84835057Y-123642857D01*
X85739819Y-122690476D02*
X85739819Y-123261904D01*
X85739819Y-122976190D02*
X84739819Y-122976190D01*
X84739819Y-122976190D02*
X84882676Y-123071428D01*
X84882676Y-123071428D02*
X84977914Y-123166666D01*
X84977914Y-123166666D02*
X85025533Y-123261904D01*
X84739819Y-122071428D02*
X84739819Y-121976190D01*
X84739819Y-121976190D02*
X84787438Y-121880952D01*
X84787438Y-121880952D02*
X84835057Y-121833333D01*
X84835057Y-121833333D02*
X84930295Y-121785714D01*
X84930295Y-121785714D02*
X85120771Y-121738095D01*
X85120771Y-121738095D02*
X85358866Y-121738095D01*
X85358866Y-121738095D02*
X85549342Y-121785714D01*
X85549342Y-121785714D02*
X85644580Y-121833333D01*
X85644580Y-121833333D02*
X85692200Y-121880952D01*
X85692200Y-121880952D02*
X85739819Y-121976190D01*
X85739819Y-121976190D02*
X85739819Y-122071428D01*
X85739819Y-122071428D02*
X85692200Y-122166666D01*
X85692200Y-122166666D02*
X85644580Y-122214285D01*
X85644580Y-122214285D02*
X85549342Y-122261904D01*
X85549342Y-122261904D02*
X85358866Y-122309523D01*
X85358866Y-122309523D02*
X85120771Y-122309523D01*
X85120771Y-122309523D02*
X84930295Y-122261904D01*
X84930295Y-122261904D02*
X84835057Y-122214285D01*
X84835057Y-122214285D02*
X84787438Y-122166666D01*
X84787438Y-122166666D02*
X84739819Y-122071428D01*
X116144580Y-124142857D02*
X116192200Y-124190476D01*
X116192200Y-124190476D02*
X116239819Y-124333333D01*
X116239819Y-124333333D02*
X116239819Y-124428571D01*
X116239819Y-124428571D02*
X116192200Y-124571428D01*
X116192200Y-124571428D02*
X116096961Y-124666666D01*
X116096961Y-124666666D02*
X116001723Y-124714285D01*
X116001723Y-124714285D02*
X115811247Y-124761904D01*
X115811247Y-124761904D02*
X115668390Y-124761904D01*
X115668390Y-124761904D02*
X115477914Y-124714285D01*
X115477914Y-124714285D02*
X115382676Y-124666666D01*
X115382676Y-124666666D02*
X115287438Y-124571428D01*
X115287438Y-124571428D02*
X115239819Y-124428571D01*
X115239819Y-124428571D02*
X115239819Y-124333333D01*
X115239819Y-124333333D02*
X115287438Y-124190476D01*
X115287438Y-124190476D02*
X115335057Y-124142857D01*
X116239819Y-123190476D02*
X116239819Y-123761904D01*
X116239819Y-123476190D02*
X115239819Y-123476190D01*
X115239819Y-123476190D02*
X115382676Y-123571428D01*
X115382676Y-123571428D02*
X115477914Y-123666666D01*
X115477914Y-123666666D02*
X115525533Y-123761904D01*
X115335057Y-122809523D02*
X115287438Y-122761904D01*
X115287438Y-122761904D02*
X115239819Y-122666666D01*
X115239819Y-122666666D02*
X115239819Y-122428571D01*
X115239819Y-122428571D02*
X115287438Y-122333333D01*
X115287438Y-122333333D02*
X115335057Y-122285714D01*
X115335057Y-122285714D02*
X115430295Y-122238095D01*
X115430295Y-122238095D02*
X115525533Y-122238095D01*
X115525533Y-122238095D02*
X115668390Y-122285714D01*
X115668390Y-122285714D02*
X116239819Y-122857142D01*
X116239819Y-122857142D02*
X116239819Y-122238095D01*
X89772142Y-127204819D02*
X89438809Y-126728628D01*
X89200714Y-127204819D02*
X89200714Y-126204819D01*
X89200714Y-126204819D02*
X89581666Y-126204819D01*
X89581666Y-126204819D02*
X89676904Y-126252438D01*
X89676904Y-126252438D02*
X89724523Y-126300057D01*
X89724523Y-126300057D02*
X89772142Y-126395295D01*
X89772142Y-126395295D02*
X89772142Y-126538152D01*
X89772142Y-126538152D02*
X89724523Y-126633390D01*
X89724523Y-126633390D02*
X89676904Y-126681009D01*
X89676904Y-126681009D02*
X89581666Y-126728628D01*
X89581666Y-126728628D02*
X89200714Y-126728628D01*
X90724523Y-127204819D02*
X90153095Y-127204819D01*
X90438809Y-127204819D02*
X90438809Y-126204819D01*
X90438809Y-126204819D02*
X90343571Y-126347676D01*
X90343571Y-126347676D02*
X90248333Y-126442914D01*
X90248333Y-126442914D02*
X90153095Y-126490533D01*
X91200714Y-127204819D02*
X91391190Y-127204819D01*
X91391190Y-127204819D02*
X91486428Y-127157200D01*
X91486428Y-127157200D02*
X91534047Y-127109580D01*
X91534047Y-127109580D02*
X91629285Y-126966723D01*
X91629285Y-126966723D02*
X91676904Y-126776247D01*
X91676904Y-126776247D02*
X91676904Y-126395295D01*
X91676904Y-126395295D02*
X91629285Y-126300057D01*
X91629285Y-126300057D02*
X91581666Y-126252438D01*
X91581666Y-126252438D02*
X91486428Y-126204819D01*
X91486428Y-126204819D02*
X91295952Y-126204819D01*
X91295952Y-126204819D02*
X91200714Y-126252438D01*
X91200714Y-126252438D02*
X91153095Y-126300057D01*
X91153095Y-126300057D02*
X91105476Y-126395295D01*
X91105476Y-126395295D02*
X91105476Y-126633390D01*
X91105476Y-126633390D02*
X91153095Y-126728628D01*
X91153095Y-126728628D02*
X91200714Y-126776247D01*
X91200714Y-126776247D02*
X91295952Y-126823866D01*
X91295952Y-126823866D02*
X91486428Y-126823866D01*
X91486428Y-126823866D02*
X91581666Y-126776247D01*
X91581666Y-126776247D02*
X91629285Y-126728628D01*
X91629285Y-126728628D02*
X91676904Y-126633390D01*
X219144580Y-75442857D02*
X219192200Y-75490476D01*
X219192200Y-75490476D02*
X219239819Y-75633333D01*
X219239819Y-75633333D02*
X219239819Y-75728571D01*
X219239819Y-75728571D02*
X219192200Y-75871428D01*
X219192200Y-75871428D02*
X219096961Y-75966666D01*
X219096961Y-75966666D02*
X219001723Y-76014285D01*
X219001723Y-76014285D02*
X218811247Y-76061904D01*
X218811247Y-76061904D02*
X218668390Y-76061904D01*
X218668390Y-76061904D02*
X218477914Y-76014285D01*
X218477914Y-76014285D02*
X218382676Y-75966666D01*
X218382676Y-75966666D02*
X218287438Y-75871428D01*
X218287438Y-75871428D02*
X218239819Y-75728571D01*
X218239819Y-75728571D02*
X218239819Y-75633333D01*
X218239819Y-75633333D02*
X218287438Y-75490476D01*
X218287438Y-75490476D02*
X218335057Y-75442857D01*
X218335057Y-75061904D02*
X218287438Y-75014285D01*
X218287438Y-75014285D02*
X218239819Y-74919047D01*
X218239819Y-74919047D02*
X218239819Y-74680952D01*
X218239819Y-74680952D02*
X218287438Y-74585714D01*
X218287438Y-74585714D02*
X218335057Y-74538095D01*
X218335057Y-74538095D02*
X218430295Y-74490476D01*
X218430295Y-74490476D02*
X218525533Y-74490476D01*
X218525533Y-74490476D02*
X218668390Y-74538095D01*
X218668390Y-74538095D02*
X219239819Y-75109523D01*
X219239819Y-75109523D02*
X219239819Y-74490476D01*
X218239819Y-73633333D02*
X218239819Y-73823809D01*
X218239819Y-73823809D02*
X218287438Y-73919047D01*
X218287438Y-73919047D02*
X218335057Y-73966666D01*
X218335057Y-73966666D02*
X218477914Y-74061904D01*
X218477914Y-74061904D02*
X218668390Y-74109523D01*
X218668390Y-74109523D02*
X219049342Y-74109523D01*
X219049342Y-74109523D02*
X219144580Y-74061904D01*
X219144580Y-74061904D02*
X219192200Y-74014285D01*
X219192200Y-74014285D02*
X219239819Y-73919047D01*
X219239819Y-73919047D02*
X219239819Y-73728571D01*
X219239819Y-73728571D02*
X219192200Y-73633333D01*
X219192200Y-73633333D02*
X219144580Y-73585714D01*
X219144580Y-73585714D02*
X219049342Y-73538095D01*
X219049342Y-73538095D02*
X218811247Y-73538095D01*
X218811247Y-73538095D02*
X218716009Y-73585714D01*
X218716009Y-73585714D02*
X218668390Y-73633333D01*
X218668390Y-73633333D02*
X218620771Y-73728571D01*
X218620771Y-73728571D02*
X218620771Y-73919047D01*
X218620771Y-73919047D02*
X218668390Y-74014285D01*
X218668390Y-74014285D02*
X218716009Y-74061904D01*
X218716009Y-74061904D02*
X218811247Y-74109523D01*
X122772142Y-89124819D02*
X122438809Y-88648628D01*
X122200714Y-89124819D02*
X122200714Y-88124819D01*
X122200714Y-88124819D02*
X122581666Y-88124819D01*
X122581666Y-88124819D02*
X122676904Y-88172438D01*
X122676904Y-88172438D02*
X122724523Y-88220057D01*
X122724523Y-88220057D02*
X122772142Y-88315295D01*
X122772142Y-88315295D02*
X122772142Y-88458152D01*
X122772142Y-88458152D02*
X122724523Y-88553390D01*
X122724523Y-88553390D02*
X122676904Y-88601009D01*
X122676904Y-88601009D02*
X122581666Y-88648628D01*
X122581666Y-88648628D02*
X122200714Y-88648628D01*
X123724523Y-89124819D02*
X123153095Y-89124819D01*
X123438809Y-89124819D02*
X123438809Y-88124819D01*
X123438809Y-88124819D02*
X123343571Y-88267676D01*
X123343571Y-88267676D02*
X123248333Y-88362914D01*
X123248333Y-88362914D02*
X123153095Y-88410533D01*
X124343571Y-88124819D02*
X124438809Y-88124819D01*
X124438809Y-88124819D02*
X124534047Y-88172438D01*
X124534047Y-88172438D02*
X124581666Y-88220057D01*
X124581666Y-88220057D02*
X124629285Y-88315295D01*
X124629285Y-88315295D02*
X124676904Y-88505771D01*
X124676904Y-88505771D02*
X124676904Y-88743866D01*
X124676904Y-88743866D02*
X124629285Y-88934342D01*
X124629285Y-88934342D02*
X124581666Y-89029580D01*
X124581666Y-89029580D02*
X124534047Y-89077200D01*
X124534047Y-89077200D02*
X124438809Y-89124819D01*
X124438809Y-89124819D02*
X124343571Y-89124819D01*
X124343571Y-89124819D02*
X124248333Y-89077200D01*
X124248333Y-89077200D02*
X124200714Y-89029580D01*
X124200714Y-89029580D02*
X124153095Y-88934342D01*
X124153095Y-88934342D02*
X124105476Y-88743866D01*
X124105476Y-88743866D02*
X124105476Y-88505771D01*
X124105476Y-88505771D02*
X124153095Y-88315295D01*
X124153095Y-88315295D02*
X124200714Y-88220057D01*
X124200714Y-88220057D02*
X124248333Y-88172438D01*
X124248333Y-88172438D02*
X124343571Y-88124819D01*
X176644580Y-125142857D02*
X176692200Y-125190476D01*
X176692200Y-125190476D02*
X176739819Y-125333333D01*
X176739819Y-125333333D02*
X176739819Y-125428571D01*
X176739819Y-125428571D02*
X176692200Y-125571428D01*
X176692200Y-125571428D02*
X176596961Y-125666666D01*
X176596961Y-125666666D02*
X176501723Y-125714285D01*
X176501723Y-125714285D02*
X176311247Y-125761904D01*
X176311247Y-125761904D02*
X176168390Y-125761904D01*
X176168390Y-125761904D02*
X175977914Y-125714285D01*
X175977914Y-125714285D02*
X175882676Y-125666666D01*
X175882676Y-125666666D02*
X175787438Y-125571428D01*
X175787438Y-125571428D02*
X175739819Y-125428571D01*
X175739819Y-125428571D02*
X175739819Y-125333333D01*
X175739819Y-125333333D02*
X175787438Y-125190476D01*
X175787438Y-125190476D02*
X175835057Y-125142857D01*
X176739819Y-124190476D02*
X176739819Y-124761904D01*
X176739819Y-124476190D02*
X175739819Y-124476190D01*
X175739819Y-124476190D02*
X175882676Y-124571428D01*
X175882676Y-124571428D02*
X175977914Y-124666666D01*
X175977914Y-124666666D02*
X176025533Y-124761904D01*
X175739819Y-123333333D02*
X175739819Y-123523809D01*
X175739819Y-123523809D02*
X175787438Y-123619047D01*
X175787438Y-123619047D02*
X175835057Y-123666666D01*
X175835057Y-123666666D02*
X175977914Y-123761904D01*
X175977914Y-123761904D02*
X176168390Y-123809523D01*
X176168390Y-123809523D02*
X176549342Y-123809523D01*
X176549342Y-123809523D02*
X176644580Y-123761904D01*
X176644580Y-123761904D02*
X176692200Y-123714285D01*
X176692200Y-123714285D02*
X176739819Y-123619047D01*
X176739819Y-123619047D02*
X176739819Y-123428571D01*
X176739819Y-123428571D02*
X176692200Y-123333333D01*
X176692200Y-123333333D02*
X176644580Y-123285714D01*
X176644580Y-123285714D02*
X176549342Y-123238095D01*
X176549342Y-123238095D02*
X176311247Y-123238095D01*
X176311247Y-123238095D02*
X176216009Y-123285714D01*
X176216009Y-123285714D02*
X176168390Y-123333333D01*
X176168390Y-123333333D02*
X176120771Y-123428571D01*
X176120771Y-123428571D02*
X176120771Y-123619047D01*
X176120771Y-123619047D02*
X176168390Y-123714285D01*
X176168390Y-123714285D02*
X176216009Y-123761904D01*
X176216009Y-123761904D02*
X176311247Y-123809523D01*
X231924819Y-136080238D02*
X231448628Y-136413571D01*
X231924819Y-136651666D02*
X230924819Y-136651666D01*
X230924819Y-136651666D02*
X230924819Y-136270714D01*
X230924819Y-136270714D02*
X230972438Y-136175476D01*
X230972438Y-136175476D02*
X231020057Y-136127857D01*
X231020057Y-136127857D02*
X231115295Y-136080238D01*
X231115295Y-136080238D02*
X231258152Y-136080238D01*
X231258152Y-136080238D02*
X231353390Y-136127857D01*
X231353390Y-136127857D02*
X231401009Y-136175476D01*
X231401009Y-136175476D02*
X231448628Y-136270714D01*
X231448628Y-136270714D02*
X231448628Y-136651666D01*
X230924819Y-135794523D02*
X231924819Y-135461190D01*
X231924819Y-135461190D02*
X230924819Y-135127857D01*
X231924819Y-134270714D02*
X231924819Y-134842142D01*
X231924819Y-134556428D02*
X230924819Y-134556428D01*
X230924819Y-134556428D02*
X231067676Y-134651666D01*
X231067676Y-134651666D02*
X231162914Y-134746904D01*
X231162914Y-134746904D02*
X231210533Y-134842142D01*
X212684580Y-75442857D02*
X212732200Y-75490476D01*
X212732200Y-75490476D02*
X212779819Y-75633333D01*
X212779819Y-75633333D02*
X212779819Y-75728571D01*
X212779819Y-75728571D02*
X212732200Y-75871428D01*
X212732200Y-75871428D02*
X212636961Y-75966666D01*
X212636961Y-75966666D02*
X212541723Y-76014285D01*
X212541723Y-76014285D02*
X212351247Y-76061904D01*
X212351247Y-76061904D02*
X212208390Y-76061904D01*
X212208390Y-76061904D02*
X212017914Y-76014285D01*
X212017914Y-76014285D02*
X211922676Y-75966666D01*
X211922676Y-75966666D02*
X211827438Y-75871428D01*
X211827438Y-75871428D02*
X211779819Y-75728571D01*
X211779819Y-75728571D02*
X211779819Y-75633333D01*
X211779819Y-75633333D02*
X211827438Y-75490476D01*
X211827438Y-75490476D02*
X211875057Y-75442857D01*
X211875057Y-75061904D02*
X211827438Y-75014285D01*
X211827438Y-75014285D02*
X211779819Y-74919047D01*
X211779819Y-74919047D02*
X211779819Y-74680952D01*
X211779819Y-74680952D02*
X211827438Y-74585714D01*
X211827438Y-74585714D02*
X211875057Y-74538095D01*
X211875057Y-74538095D02*
X211970295Y-74490476D01*
X211970295Y-74490476D02*
X212065533Y-74490476D01*
X212065533Y-74490476D02*
X212208390Y-74538095D01*
X212208390Y-74538095D02*
X212779819Y-75109523D01*
X212779819Y-75109523D02*
X212779819Y-74490476D01*
X211779819Y-74157142D02*
X211779819Y-73490476D01*
X211779819Y-73490476D02*
X212779819Y-73919047D01*
X176201667Y-94607200D02*
X176344524Y-94654819D01*
X176344524Y-94654819D02*
X176582619Y-94654819D01*
X176582619Y-94654819D02*
X176677857Y-94607200D01*
X176677857Y-94607200D02*
X176725476Y-94559580D01*
X176725476Y-94559580D02*
X176773095Y-94464342D01*
X176773095Y-94464342D02*
X176773095Y-94369104D01*
X176773095Y-94369104D02*
X176725476Y-94273866D01*
X176725476Y-94273866D02*
X176677857Y-94226247D01*
X176677857Y-94226247D02*
X176582619Y-94178628D01*
X176582619Y-94178628D02*
X176392143Y-94131009D01*
X176392143Y-94131009D02*
X176296905Y-94083390D01*
X176296905Y-94083390D02*
X176249286Y-94035771D01*
X176249286Y-94035771D02*
X176201667Y-93940533D01*
X176201667Y-93940533D02*
X176201667Y-93845295D01*
X176201667Y-93845295D02*
X176249286Y-93750057D01*
X176249286Y-93750057D02*
X176296905Y-93702438D01*
X176296905Y-93702438D02*
X176392143Y-93654819D01*
X176392143Y-93654819D02*
X176630238Y-93654819D01*
X176630238Y-93654819D02*
X176773095Y-93702438D01*
X177106429Y-93654819D02*
X177344524Y-94654819D01*
X177344524Y-94654819D02*
X177535000Y-93940533D01*
X177535000Y-93940533D02*
X177725476Y-94654819D01*
X177725476Y-94654819D02*
X177963572Y-93654819D01*
X178249286Y-93654819D02*
X178868333Y-93654819D01*
X178868333Y-93654819D02*
X178535000Y-94035771D01*
X178535000Y-94035771D02*
X178677857Y-94035771D01*
X178677857Y-94035771D02*
X178773095Y-94083390D01*
X178773095Y-94083390D02*
X178820714Y-94131009D01*
X178820714Y-94131009D02*
X178868333Y-94226247D01*
X178868333Y-94226247D02*
X178868333Y-94464342D01*
X178868333Y-94464342D02*
X178820714Y-94559580D01*
X178820714Y-94559580D02*
X178773095Y-94607200D01*
X178773095Y-94607200D02*
X178677857Y-94654819D01*
X178677857Y-94654819D02*
X178392143Y-94654819D01*
X178392143Y-94654819D02*
X178296905Y-94607200D01*
X178296905Y-94607200D02*
X178249286Y-94559580D01*
X161062142Y-56074819D02*
X160728809Y-55598628D01*
X160490714Y-56074819D02*
X160490714Y-55074819D01*
X160490714Y-55074819D02*
X160871666Y-55074819D01*
X160871666Y-55074819D02*
X160966904Y-55122438D01*
X160966904Y-55122438D02*
X161014523Y-55170057D01*
X161014523Y-55170057D02*
X161062142Y-55265295D01*
X161062142Y-55265295D02*
X161062142Y-55408152D01*
X161062142Y-55408152D02*
X161014523Y-55503390D01*
X161014523Y-55503390D02*
X160966904Y-55551009D01*
X160966904Y-55551009D02*
X160871666Y-55598628D01*
X160871666Y-55598628D02*
X160490714Y-55598628D01*
X161395476Y-55074819D02*
X162014523Y-55074819D01*
X162014523Y-55074819D02*
X161681190Y-55455771D01*
X161681190Y-55455771D02*
X161824047Y-55455771D01*
X161824047Y-55455771D02*
X161919285Y-55503390D01*
X161919285Y-55503390D02*
X161966904Y-55551009D01*
X161966904Y-55551009D02*
X162014523Y-55646247D01*
X162014523Y-55646247D02*
X162014523Y-55884342D01*
X162014523Y-55884342D02*
X161966904Y-55979580D01*
X161966904Y-55979580D02*
X161919285Y-56027200D01*
X161919285Y-56027200D02*
X161824047Y-56074819D01*
X161824047Y-56074819D02*
X161538333Y-56074819D01*
X161538333Y-56074819D02*
X161443095Y-56027200D01*
X161443095Y-56027200D02*
X161395476Y-55979580D01*
X162919285Y-55074819D02*
X162443095Y-55074819D01*
X162443095Y-55074819D02*
X162395476Y-55551009D01*
X162395476Y-55551009D02*
X162443095Y-55503390D01*
X162443095Y-55503390D02*
X162538333Y-55455771D01*
X162538333Y-55455771D02*
X162776428Y-55455771D01*
X162776428Y-55455771D02*
X162871666Y-55503390D01*
X162871666Y-55503390D02*
X162919285Y-55551009D01*
X162919285Y-55551009D02*
X162966904Y-55646247D01*
X162966904Y-55646247D02*
X162966904Y-55884342D01*
X162966904Y-55884342D02*
X162919285Y-55979580D01*
X162919285Y-55979580D02*
X162871666Y-56027200D01*
X162871666Y-56027200D02*
X162776428Y-56074819D01*
X162776428Y-56074819D02*
X162538333Y-56074819D01*
X162538333Y-56074819D02*
X162443095Y-56027200D01*
X162443095Y-56027200D02*
X162395476Y-55979580D01*
X77272142Y-126624819D02*
X76938809Y-126148628D01*
X76700714Y-126624819D02*
X76700714Y-125624819D01*
X76700714Y-125624819D02*
X77081666Y-125624819D01*
X77081666Y-125624819D02*
X77176904Y-125672438D01*
X77176904Y-125672438D02*
X77224523Y-125720057D01*
X77224523Y-125720057D02*
X77272142Y-125815295D01*
X77272142Y-125815295D02*
X77272142Y-125958152D01*
X77272142Y-125958152D02*
X77224523Y-126053390D01*
X77224523Y-126053390D02*
X77176904Y-126101009D01*
X77176904Y-126101009D02*
X77081666Y-126148628D01*
X77081666Y-126148628D02*
X76700714Y-126148628D01*
X78224523Y-126624819D02*
X77653095Y-126624819D01*
X77938809Y-126624819D02*
X77938809Y-125624819D01*
X77938809Y-125624819D02*
X77843571Y-125767676D01*
X77843571Y-125767676D02*
X77748333Y-125862914D01*
X77748333Y-125862914D02*
X77653095Y-125910533D01*
X78795952Y-126053390D02*
X78700714Y-126005771D01*
X78700714Y-126005771D02*
X78653095Y-125958152D01*
X78653095Y-125958152D02*
X78605476Y-125862914D01*
X78605476Y-125862914D02*
X78605476Y-125815295D01*
X78605476Y-125815295D02*
X78653095Y-125720057D01*
X78653095Y-125720057D02*
X78700714Y-125672438D01*
X78700714Y-125672438D02*
X78795952Y-125624819D01*
X78795952Y-125624819D02*
X78986428Y-125624819D01*
X78986428Y-125624819D02*
X79081666Y-125672438D01*
X79081666Y-125672438D02*
X79129285Y-125720057D01*
X79129285Y-125720057D02*
X79176904Y-125815295D01*
X79176904Y-125815295D02*
X79176904Y-125862914D01*
X79176904Y-125862914D02*
X79129285Y-125958152D01*
X79129285Y-125958152D02*
X79081666Y-126005771D01*
X79081666Y-126005771D02*
X78986428Y-126053390D01*
X78986428Y-126053390D02*
X78795952Y-126053390D01*
X78795952Y-126053390D02*
X78700714Y-126101009D01*
X78700714Y-126101009D02*
X78653095Y-126148628D01*
X78653095Y-126148628D02*
X78605476Y-126243866D01*
X78605476Y-126243866D02*
X78605476Y-126434342D01*
X78605476Y-126434342D02*
X78653095Y-126529580D01*
X78653095Y-126529580D02*
X78700714Y-126577200D01*
X78700714Y-126577200D02*
X78795952Y-126624819D01*
X78795952Y-126624819D02*
X78986428Y-126624819D01*
X78986428Y-126624819D02*
X79081666Y-126577200D01*
X79081666Y-126577200D02*
X79129285Y-126529580D01*
X79129285Y-126529580D02*
X79176904Y-126434342D01*
X79176904Y-126434342D02*
X79176904Y-126243866D01*
X79176904Y-126243866D02*
X79129285Y-126148628D01*
X79129285Y-126148628D02*
X79081666Y-126101009D01*
X79081666Y-126101009D02*
X78986428Y-126053390D01*
X74272142Y-126624819D02*
X73938809Y-126148628D01*
X73700714Y-126624819D02*
X73700714Y-125624819D01*
X73700714Y-125624819D02*
X74081666Y-125624819D01*
X74081666Y-125624819D02*
X74176904Y-125672438D01*
X74176904Y-125672438D02*
X74224523Y-125720057D01*
X74224523Y-125720057D02*
X74272142Y-125815295D01*
X74272142Y-125815295D02*
X74272142Y-125958152D01*
X74272142Y-125958152D02*
X74224523Y-126053390D01*
X74224523Y-126053390D02*
X74176904Y-126101009D01*
X74176904Y-126101009D02*
X74081666Y-126148628D01*
X74081666Y-126148628D02*
X73700714Y-126148628D01*
X75224523Y-126624819D02*
X74653095Y-126624819D01*
X74938809Y-126624819D02*
X74938809Y-125624819D01*
X74938809Y-125624819D02*
X74843571Y-125767676D01*
X74843571Y-125767676D02*
X74748333Y-125862914D01*
X74748333Y-125862914D02*
X74653095Y-125910533D01*
X75557857Y-125624819D02*
X76224523Y-125624819D01*
X76224523Y-125624819D02*
X75795952Y-126624819D01*
X69725476Y-131607200D02*
X69868333Y-131654819D01*
X69868333Y-131654819D02*
X70106428Y-131654819D01*
X70106428Y-131654819D02*
X70201666Y-131607200D01*
X70201666Y-131607200D02*
X70249285Y-131559580D01*
X70249285Y-131559580D02*
X70296904Y-131464342D01*
X70296904Y-131464342D02*
X70296904Y-131369104D01*
X70296904Y-131369104D02*
X70249285Y-131273866D01*
X70249285Y-131273866D02*
X70201666Y-131226247D01*
X70201666Y-131226247D02*
X70106428Y-131178628D01*
X70106428Y-131178628D02*
X69915952Y-131131009D01*
X69915952Y-131131009D02*
X69820714Y-131083390D01*
X69820714Y-131083390D02*
X69773095Y-131035771D01*
X69773095Y-131035771D02*
X69725476Y-130940533D01*
X69725476Y-130940533D02*
X69725476Y-130845295D01*
X69725476Y-130845295D02*
X69773095Y-130750057D01*
X69773095Y-130750057D02*
X69820714Y-130702438D01*
X69820714Y-130702438D02*
X69915952Y-130654819D01*
X69915952Y-130654819D02*
X70154047Y-130654819D01*
X70154047Y-130654819D02*
X70296904Y-130702438D01*
X70630238Y-130654819D02*
X70868333Y-131654819D01*
X70868333Y-131654819D02*
X71058809Y-130940533D01*
X71058809Y-130940533D02*
X71249285Y-131654819D01*
X71249285Y-131654819D02*
X71487381Y-130654819D01*
X72392142Y-131654819D02*
X71820714Y-131654819D01*
X72106428Y-131654819D02*
X72106428Y-130654819D01*
X72106428Y-130654819D02*
X72011190Y-130797676D01*
X72011190Y-130797676D02*
X71915952Y-130892914D01*
X71915952Y-130892914D02*
X71820714Y-130940533D01*
X73344523Y-131654819D02*
X72773095Y-131654819D01*
X73058809Y-131654819D02*
X73058809Y-130654819D01*
X73058809Y-130654819D02*
X72963571Y-130797676D01*
X72963571Y-130797676D02*
X72868333Y-130892914D01*
X72868333Y-130892914D02*
X72773095Y-130940533D01*
X130725476Y-132767200D02*
X130868333Y-132814819D01*
X130868333Y-132814819D02*
X131106428Y-132814819D01*
X131106428Y-132814819D02*
X131201666Y-132767200D01*
X131201666Y-132767200D02*
X131249285Y-132719580D01*
X131249285Y-132719580D02*
X131296904Y-132624342D01*
X131296904Y-132624342D02*
X131296904Y-132529104D01*
X131296904Y-132529104D02*
X131249285Y-132433866D01*
X131249285Y-132433866D02*
X131201666Y-132386247D01*
X131201666Y-132386247D02*
X131106428Y-132338628D01*
X131106428Y-132338628D02*
X130915952Y-132291009D01*
X130915952Y-132291009D02*
X130820714Y-132243390D01*
X130820714Y-132243390D02*
X130773095Y-132195771D01*
X130773095Y-132195771D02*
X130725476Y-132100533D01*
X130725476Y-132100533D02*
X130725476Y-132005295D01*
X130725476Y-132005295D02*
X130773095Y-131910057D01*
X130773095Y-131910057D02*
X130820714Y-131862438D01*
X130820714Y-131862438D02*
X130915952Y-131814819D01*
X130915952Y-131814819D02*
X131154047Y-131814819D01*
X131154047Y-131814819D02*
X131296904Y-131862438D01*
X131630238Y-131814819D02*
X131868333Y-132814819D01*
X131868333Y-132814819D02*
X132058809Y-132100533D01*
X132058809Y-132100533D02*
X132249285Y-132814819D01*
X132249285Y-132814819D02*
X132487381Y-131814819D01*
X133392142Y-132814819D02*
X132820714Y-132814819D01*
X133106428Y-132814819D02*
X133106428Y-131814819D01*
X133106428Y-131814819D02*
X133011190Y-131957676D01*
X133011190Y-131957676D02*
X132915952Y-132052914D01*
X132915952Y-132052914D02*
X132820714Y-132100533D01*
X134296904Y-131814819D02*
X133820714Y-131814819D01*
X133820714Y-131814819D02*
X133773095Y-132291009D01*
X133773095Y-132291009D02*
X133820714Y-132243390D01*
X133820714Y-132243390D02*
X133915952Y-132195771D01*
X133915952Y-132195771D02*
X134154047Y-132195771D01*
X134154047Y-132195771D02*
X134249285Y-132243390D01*
X134249285Y-132243390D02*
X134296904Y-132291009D01*
X134296904Y-132291009D02*
X134344523Y-132386247D01*
X134344523Y-132386247D02*
X134344523Y-132624342D01*
X134344523Y-132624342D02*
X134296904Y-132719580D01*
X134296904Y-132719580D02*
X134249285Y-132767200D01*
X134249285Y-132767200D02*
X134154047Y-132814819D01*
X134154047Y-132814819D02*
X133915952Y-132814819D01*
X133915952Y-132814819D02*
X133820714Y-132767200D01*
X133820714Y-132767200D02*
X133773095Y-132719580D01*
X146201667Y-94607200D02*
X146344524Y-94654819D01*
X146344524Y-94654819D02*
X146582619Y-94654819D01*
X146582619Y-94654819D02*
X146677857Y-94607200D01*
X146677857Y-94607200D02*
X146725476Y-94559580D01*
X146725476Y-94559580D02*
X146773095Y-94464342D01*
X146773095Y-94464342D02*
X146773095Y-94369104D01*
X146773095Y-94369104D02*
X146725476Y-94273866D01*
X146725476Y-94273866D02*
X146677857Y-94226247D01*
X146677857Y-94226247D02*
X146582619Y-94178628D01*
X146582619Y-94178628D02*
X146392143Y-94131009D01*
X146392143Y-94131009D02*
X146296905Y-94083390D01*
X146296905Y-94083390D02*
X146249286Y-94035771D01*
X146249286Y-94035771D02*
X146201667Y-93940533D01*
X146201667Y-93940533D02*
X146201667Y-93845295D01*
X146201667Y-93845295D02*
X146249286Y-93750057D01*
X146249286Y-93750057D02*
X146296905Y-93702438D01*
X146296905Y-93702438D02*
X146392143Y-93654819D01*
X146392143Y-93654819D02*
X146630238Y-93654819D01*
X146630238Y-93654819D02*
X146773095Y-93702438D01*
X147106429Y-93654819D02*
X147344524Y-94654819D01*
X147344524Y-94654819D02*
X147535000Y-93940533D01*
X147535000Y-93940533D02*
X147725476Y-94654819D01*
X147725476Y-94654819D02*
X147963572Y-93654819D01*
X148820714Y-93654819D02*
X148344524Y-93654819D01*
X148344524Y-93654819D02*
X148296905Y-94131009D01*
X148296905Y-94131009D02*
X148344524Y-94083390D01*
X148344524Y-94083390D02*
X148439762Y-94035771D01*
X148439762Y-94035771D02*
X148677857Y-94035771D01*
X148677857Y-94035771D02*
X148773095Y-94083390D01*
X148773095Y-94083390D02*
X148820714Y-94131009D01*
X148820714Y-94131009D02*
X148868333Y-94226247D01*
X148868333Y-94226247D02*
X148868333Y-94464342D01*
X148868333Y-94464342D02*
X148820714Y-94559580D01*
X148820714Y-94559580D02*
X148773095Y-94607200D01*
X148773095Y-94607200D02*
X148677857Y-94654819D01*
X148677857Y-94654819D02*
X148439762Y-94654819D01*
X148439762Y-94654819D02*
X148344524Y-94607200D01*
X148344524Y-94607200D02*
X148296905Y-94559580D01*
X165748333Y-89624819D02*
X165415000Y-89148628D01*
X165176905Y-89624819D02*
X165176905Y-88624819D01*
X165176905Y-88624819D02*
X165557857Y-88624819D01*
X165557857Y-88624819D02*
X165653095Y-88672438D01*
X165653095Y-88672438D02*
X165700714Y-88720057D01*
X165700714Y-88720057D02*
X165748333Y-88815295D01*
X165748333Y-88815295D02*
X165748333Y-88958152D01*
X165748333Y-88958152D02*
X165700714Y-89053390D01*
X165700714Y-89053390D02*
X165653095Y-89101009D01*
X165653095Y-89101009D02*
X165557857Y-89148628D01*
X165557857Y-89148628D02*
X165176905Y-89148628D01*
X166081667Y-88624819D02*
X166700714Y-88624819D01*
X166700714Y-88624819D02*
X166367381Y-89005771D01*
X166367381Y-89005771D02*
X166510238Y-89005771D01*
X166510238Y-89005771D02*
X166605476Y-89053390D01*
X166605476Y-89053390D02*
X166653095Y-89101009D01*
X166653095Y-89101009D02*
X166700714Y-89196247D01*
X166700714Y-89196247D02*
X166700714Y-89434342D01*
X166700714Y-89434342D02*
X166653095Y-89529580D01*
X166653095Y-89529580D02*
X166605476Y-89577200D01*
X166605476Y-89577200D02*
X166510238Y-89624819D01*
X166510238Y-89624819D02*
X166224524Y-89624819D01*
X166224524Y-89624819D02*
X166129286Y-89577200D01*
X166129286Y-89577200D02*
X166081667Y-89529580D01*
X160894580Y-85416666D02*
X160942200Y-85464285D01*
X160942200Y-85464285D02*
X160989819Y-85607142D01*
X160989819Y-85607142D02*
X160989819Y-85702380D01*
X160989819Y-85702380D02*
X160942200Y-85845237D01*
X160942200Y-85845237D02*
X160846961Y-85940475D01*
X160846961Y-85940475D02*
X160751723Y-85988094D01*
X160751723Y-85988094D02*
X160561247Y-86035713D01*
X160561247Y-86035713D02*
X160418390Y-86035713D01*
X160418390Y-86035713D02*
X160227914Y-85988094D01*
X160227914Y-85988094D02*
X160132676Y-85940475D01*
X160132676Y-85940475D02*
X160037438Y-85845237D01*
X160037438Y-85845237D02*
X159989819Y-85702380D01*
X159989819Y-85702380D02*
X159989819Y-85607142D01*
X159989819Y-85607142D02*
X160037438Y-85464285D01*
X160037438Y-85464285D02*
X160085057Y-85416666D01*
X160085057Y-85035713D02*
X160037438Y-84988094D01*
X160037438Y-84988094D02*
X159989819Y-84892856D01*
X159989819Y-84892856D02*
X159989819Y-84654761D01*
X159989819Y-84654761D02*
X160037438Y-84559523D01*
X160037438Y-84559523D02*
X160085057Y-84511904D01*
X160085057Y-84511904D02*
X160180295Y-84464285D01*
X160180295Y-84464285D02*
X160275533Y-84464285D01*
X160275533Y-84464285D02*
X160418390Y-84511904D01*
X160418390Y-84511904D02*
X160989819Y-85083332D01*
X160989819Y-85083332D02*
X160989819Y-84464285D01*
X130644580Y-85166666D02*
X130692200Y-85214285D01*
X130692200Y-85214285D02*
X130739819Y-85357142D01*
X130739819Y-85357142D02*
X130739819Y-85452380D01*
X130739819Y-85452380D02*
X130692200Y-85595237D01*
X130692200Y-85595237D02*
X130596961Y-85690475D01*
X130596961Y-85690475D02*
X130501723Y-85738094D01*
X130501723Y-85738094D02*
X130311247Y-85785713D01*
X130311247Y-85785713D02*
X130168390Y-85785713D01*
X130168390Y-85785713D02*
X129977914Y-85738094D01*
X129977914Y-85738094D02*
X129882676Y-85690475D01*
X129882676Y-85690475D02*
X129787438Y-85595237D01*
X129787438Y-85595237D02*
X129739819Y-85452380D01*
X129739819Y-85452380D02*
X129739819Y-85357142D01*
X129739819Y-85357142D02*
X129787438Y-85214285D01*
X129787438Y-85214285D02*
X129835057Y-85166666D01*
X130073152Y-84309523D02*
X130739819Y-84309523D01*
X129692200Y-84547618D02*
X130406485Y-84785713D01*
X130406485Y-84785713D02*
X130406485Y-84166666D01*
X105429819Y-112321904D02*
X106239342Y-112321904D01*
X106239342Y-112321904D02*
X106334580Y-112274285D01*
X106334580Y-112274285D02*
X106382200Y-112226666D01*
X106382200Y-112226666D02*
X106429819Y-112131428D01*
X106429819Y-112131428D02*
X106429819Y-111940952D01*
X106429819Y-111940952D02*
X106382200Y-111845714D01*
X106382200Y-111845714D02*
X106334580Y-111798095D01*
X106334580Y-111798095D02*
X106239342Y-111750476D01*
X106239342Y-111750476D02*
X105429819Y-111750476D01*
X105429819Y-111369523D02*
X105429819Y-110750476D01*
X105429819Y-110750476D02*
X105810771Y-111083809D01*
X105810771Y-111083809D02*
X105810771Y-110940952D01*
X105810771Y-110940952D02*
X105858390Y-110845714D01*
X105858390Y-110845714D02*
X105906009Y-110798095D01*
X105906009Y-110798095D02*
X106001247Y-110750476D01*
X106001247Y-110750476D02*
X106239342Y-110750476D01*
X106239342Y-110750476D02*
X106334580Y-110798095D01*
X106334580Y-110798095D02*
X106382200Y-110845714D01*
X106382200Y-110845714D02*
X106429819Y-110940952D01*
X106429819Y-110940952D02*
X106429819Y-111226666D01*
X106429819Y-111226666D02*
X106382200Y-111321904D01*
X106382200Y-111321904D02*
X106334580Y-111369523D01*
X205813095Y-61754819D02*
X205813095Y-62564342D01*
X205813095Y-62564342D02*
X205860714Y-62659580D01*
X205860714Y-62659580D02*
X205908333Y-62707200D01*
X205908333Y-62707200D02*
X206003571Y-62754819D01*
X206003571Y-62754819D02*
X206194047Y-62754819D01*
X206194047Y-62754819D02*
X206289285Y-62707200D01*
X206289285Y-62707200D02*
X206336904Y-62659580D01*
X206336904Y-62659580D02*
X206384523Y-62564342D01*
X206384523Y-62564342D02*
X206384523Y-61754819D01*
X206813095Y-61850057D02*
X206860714Y-61802438D01*
X206860714Y-61802438D02*
X206955952Y-61754819D01*
X206955952Y-61754819D02*
X207194047Y-61754819D01*
X207194047Y-61754819D02*
X207289285Y-61802438D01*
X207289285Y-61802438D02*
X207336904Y-61850057D01*
X207336904Y-61850057D02*
X207384523Y-61945295D01*
X207384523Y-61945295D02*
X207384523Y-62040533D01*
X207384523Y-62040533D02*
X207336904Y-62183390D01*
X207336904Y-62183390D02*
X206765476Y-62754819D01*
X206765476Y-62754819D02*
X207384523Y-62754819D01*
X196894580Y-147142857D02*
X196942200Y-147190476D01*
X196942200Y-147190476D02*
X196989819Y-147333333D01*
X196989819Y-147333333D02*
X196989819Y-147428571D01*
X196989819Y-147428571D02*
X196942200Y-147571428D01*
X196942200Y-147571428D02*
X196846961Y-147666666D01*
X196846961Y-147666666D02*
X196751723Y-147714285D01*
X196751723Y-147714285D02*
X196561247Y-147761904D01*
X196561247Y-147761904D02*
X196418390Y-147761904D01*
X196418390Y-147761904D02*
X196227914Y-147714285D01*
X196227914Y-147714285D02*
X196132676Y-147666666D01*
X196132676Y-147666666D02*
X196037438Y-147571428D01*
X196037438Y-147571428D02*
X195989819Y-147428571D01*
X195989819Y-147428571D02*
X195989819Y-147333333D01*
X195989819Y-147333333D02*
X196037438Y-147190476D01*
X196037438Y-147190476D02*
X196085057Y-147142857D01*
X196085057Y-146761904D02*
X196037438Y-146714285D01*
X196037438Y-146714285D02*
X195989819Y-146619047D01*
X195989819Y-146619047D02*
X195989819Y-146380952D01*
X195989819Y-146380952D02*
X196037438Y-146285714D01*
X196037438Y-146285714D02*
X196085057Y-146238095D01*
X196085057Y-146238095D02*
X196180295Y-146190476D01*
X196180295Y-146190476D02*
X196275533Y-146190476D01*
X196275533Y-146190476D02*
X196418390Y-146238095D01*
X196418390Y-146238095D02*
X196989819Y-146809523D01*
X196989819Y-146809523D02*
X196989819Y-146190476D01*
X195989819Y-145571428D02*
X195989819Y-145476190D01*
X195989819Y-145476190D02*
X196037438Y-145380952D01*
X196037438Y-145380952D02*
X196085057Y-145333333D01*
X196085057Y-145333333D02*
X196180295Y-145285714D01*
X196180295Y-145285714D02*
X196370771Y-145238095D01*
X196370771Y-145238095D02*
X196608866Y-145238095D01*
X196608866Y-145238095D02*
X196799342Y-145285714D01*
X196799342Y-145285714D02*
X196894580Y-145333333D01*
X196894580Y-145333333D02*
X196942200Y-145380952D01*
X196942200Y-145380952D02*
X196989819Y-145476190D01*
X196989819Y-145476190D02*
X196989819Y-145571428D01*
X196989819Y-145571428D02*
X196942200Y-145666666D01*
X196942200Y-145666666D02*
X196894580Y-145714285D01*
X196894580Y-145714285D02*
X196799342Y-145761904D01*
X196799342Y-145761904D02*
X196608866Y-145809523D01*
X196608866Y-145809523D02*
X196370771Y-145809523D01*
X196370771Y-145809523D02*
X196180295Y-145761904D01*
X196180295Y-145761904D02*
X196085057Y-145714285D01*
X196085057Y-145714285D02*
X196037438Y-145666666D01*
X196037438Y-145666666D02*
X195989819Y-145571428D01*
X115644580Y-84666666D02*
X115692200Y-84714285D01*
X115692200Y-84714285D02*
X115739819Y-84857142D01*
X115739819Y-84857142D02*
X115739819Y-84952380D01*
X115739819Y-84952380D02*
X115692200Y-85095237D01*
X115692200Y-85095237D02*
X115596961Y-85190475D01*
X115596961Y-85190475D02*
X115501723Y-85238094D01*
X115501723Y-85238094D02*
X115311247Y-85285713D01*
X115311247Y-85285713D02*
X115168390Y-85285713D01*
X115168390Y-85285713D02*
X114977914Y-85238094D01*
X114977914Y-85238094D02*
X114882676Y-85190475D01*
X114882676Y-85190475D02*
X114787438Y-85095237D01*
X114787438Y-85095237D02*
X114739819Y-84952380D01*
X114739819Y-84952380D02*
X114739819Y-84857142D01*
X114739819Y-84857142D02*
X114787438Y-84714285D01*
X114787438Y-84714285D02*
X114835057Y-84666666D01*
X114739819Y-83761904D02*
X114739819Y-84238094D01*
X114739819Y-84238094D02*
X115216009Y-84285713D01*
X115216009Y-84285713D02*
X115168390Y-84238094D01*
X115168390Y-84238094D02*
X115120771Y-84142856D01*
X115120771Y-84142856D02*
X115120771Y-83904761D01*
X115120771Y-83904761D02*
X115168390Y-83809523D01*
X115168390Y-83809523D02*
X115216009Y-83761904D01*
X115216009Y-83761904D02*
X115311247Y-83714285D01*
X115311247Y-83714285D02*
X115549342Y-83714285D01*
X115549342Y-83714285D02*
X115644580Y-83761904D01*
X115644580Y-83761904D02*
X115692200Y-83809523D01*
X115692200Y-83809523D02*
X115739819Y-83904761D01*
X115739819Y-83904761D02*
X115739819Y-84142856D01*
X115739819Y-84142856D02*
X115692200Y-84238094D01*
X115692200Y-84238094D02*
X115644580Y-84285713D01*
X206894580Y-147642857D02*
X206942200Y-147690476D01*
X206942200Y-147690476D02*
X206989819Y-147833333D01*
X206989819Y-147833333D02*
X206989819Y-147928571D01*
X206989819Y-147928571D02*
X206942200Y-148071428D01*
X206942200Y-148071428D02*
X206846961Y-148166666D01*
X206846961Y-148166666D02*
X206751723Y-148214285D01*
X206751723Y-148214285D02*
X206561247Y-148261904D01*
X206561247Y-148261904D02*
X206418390Y-148261904D01*
X206418390Y-148261904D02*
X206227914Y-148214285D01*
X206227914Y-148214285D02*
X206132676Y-148166666D01*
X206132676Y-148166666D02*
X206037438Y-148071428D01*
X206037438Y-148071428D02*
X205989819Y-147928571D01*
X205989819Y-147928571D02*
X205989819Y-147833333D01*
X205989819Y-147833333D02*
X206037438Y-147690476D01*
X206037438Y-147690476D02*
X206085057Y-147642857D01*
X206085057Y-147261904D02*
X206037438Y-147214285D01*
X206037438Y-147214285D02*
X205989819Y-147119047D01*
X205989819Y-147119047D02*
X205989819Y-146880952D01*
X205989819Y-146880952D02*
X206037438Y-146785714D01*
X206037438Y-146785714D02*
X206085057Y-146738095D01*
X206085057Y-146738095D02*
X206180295Y-146690476D01*
X206180295Y-146690476D02*
X206275533Y-146690476D01*
X206275533Y-146690476D02*
X206418390Y-146738095D01*
X206418390Y-146738095D02*
X206989819Y-147309523D01*
X206989819Y-147309523D02*
X206989819Y-146690476D01*
X206085057Y-146309523D02*
X206037438Y-146261904D01*
X206037438Y-146261904D02*
X205989819Y-146166666D01*
X205989819Y-146166666D02*
X205989819Y-145928571D01*
X205989819Y-145928571D02*
X206037438Y-145833333D01*
X206037438Y-145833333D02*
X206085057Y-145785714D01*
X206085057Y-145785714D02*
X206180295Y-145738095D01*
X206180295Y-145738095D02*
X206275533Y-145738095D01*
X206275533Y-145738095D02*
X206418390Y-145785714D01*
X206418390Y-145785714D02*
X206989819Y-146357142D01*
X206989819Y-146357142D02*
X206989819Y-145738095D01*
X241642142Y-107859580D02*
X241594523Y-107907200D01*
X241594523Y-107907200D02*
X241451666Y-107954819D01*
X241451666Y-107954819D02*
X241356428Y-107954819D01*
X241356428Y-107954819D02*
X241213571Y-107907200D01*
X241213571Y-107907200D02*
X241118333Y-107811961D01*
X241118333Y-107811961D02*
X241070714Y-107716723D01*
X241070714Y-107716723D02*
X241023095Y-107526247D01*
X241023095Y-107526247D02*
X241023095Y-107383390D01*
X241023095Y-107383390D02*
X241070714Y-107192914D01*
X241070714Y-107192914D02*
X241118333Y-107097676D01*
X241118333Y-107097676D02*
X241213571Y-107002438D01*
X241213571Y-107002438D02*
X241356428Y-106954819D01*
X241356428Y-106954819D02*
X241451666Y-106954819D01*
X241451666Y-106954819D02*
X241594523Y-107002438D01*
X241594523Y-107002438D02*
X241642142Y-107050057D01*
X242594523Y-107954819D02*
X242023095Y-107954819D01*
X242308809Y-107954819D02*
X242308809Y-106954819D01*
X242308809Y-106954819D02*
X242213571Y-107097676D01*
X242213571Y-107097676D02*
X242118333Y-107192914D01*
X242118333Y-107192914D02*
X242023095Y-107240533D01*
X242927857Y-106954819D02*
X243594523Y-106954819D01*
X243594523Y-106954819D02*
X243165952Y-107954819D01*
X76772142Y-88624819D02*
X76438809Y-88148628D01*
X76200714Y-88624819D02*
X76200714Y-87624819D01*
X76200714Y-87624819D02*
X76581666Y-87624819D01*
X76581666Y-87624819D02*
X76676904Y-87672438D01*
X76676904Y-87672438D02*
X76724523Y-87720057D01*
X76724523Y-87720057D02*
X76772142Y-87815295D01*
X76772142Y-87815295D02*
X76772142Y-87958152D01*
X76772142Y-87958152D02*
X76724523Y-88053390D01*
X76724523Y-88053390D02*
X76676904Y-88101009D01*
X76676904Y-88101009D02*
X76581666Y-88148628D01*
X76581666Y-88148628D02*
X76200714Y-88148628D01*
X77724523Y-88624819D02*
X77153095Y-88624819D01*
X77438809Y-88624819D02*
X77438809Y-87624819D01*
X77438809Y-87624819D02*
X77343571Y-87767676D01*
X77343571Y-87767676D02*
X77248333Y-87862914D01*
X77248333Y-87862914D02*
X77153095Y-87910533D01*
X78581666Y-87624819D02*
X78391190Y-87624819D01*
X78391190Y-87624819D02*
X78295952Y-87672438D01*
X78295952Y-87672438D02*
X78248333Y-87720057D01*
X78248333Y-87720057D02*
X78153095Y-87862914D01*
X78153095Y-87862914D02*
X78105476Y-88053390D01*
X78105476Y-88053390D02*
X78105476Y-88434342D01*
X78105476Y-88434342D02*
X78153095Y-88529580D01*
X78153095Y-88529580D02*
X78200714Y-88577200D01*
X78200714Y-88577200D02*
X78295952Y-88624819D01*
X78295952Y-88624819D02*
X78486428Y-88624819D01*
X78486428Y-88624819D02*
X78581666Y-88577200D01*
X78581666Y-88577200D02*
X78629285Y-88529580D01*
X78629285Y-88529580D02*
X78676904Y-88434342D01*
X78676904Y-88434342D02*
X78676904Y-88196247D01*
X78676904Y-88196247D02*
X78629285Y-88101009D01*
X78629285Y-88101009D02*
X78581666Y-88053390D01*
X78581666Y-88053390D02*
X78486428Y-88005771D01*
X78486428Y-88005771D02*
X78295952Y-88005771D01*
X78295952Y-88005771D02*
X78200714Y-88053390D01*
X78200714Y-88053390D02*
X78153095Y-88101009D01*
X78153095Y-88101009D02*
X78105476Y-88196247D01*
X161644580Y-124642857D02*
X161692200Y-124690476D01*
X161692200Y-124690476D02*
X161739819Y-124833333D01*
X161739819Y-124833333D02*
X161739819Y-124928571D01*
X161739819Y-124928571D02*
X161692200Y-125071428D01*
X161692200Y-125071428D02*
X161596961Y-125166666D01*
X161596961Y-125166666D02*
X161501723Y-125214285D01*
X161501723Y-125214285D02*
X161311247Y-125261904D01*
X161311247Y-125261904D02*
X161168390Y-125261904D01*
X161168390Y-125261904D02*
X160977914Y-125214285D01*
X160977914Y-125214285D02*
X160882676Y-125166666D01*
X160882676Y-125166666D02*
X160787438Y-125071428D01*
X160787438Y-125071428D02*
X160739819Y-124928571D01*
X160739819Y-124928571D02*
X160739819Y-124833333D01*
X160739819Y-124833333D02*
X160787438Y-124690476D01*
X160787438Y-124690476D02*
X160835057Y-124642857D01*
X161739819Y-123690476D02*
X161739819Y-124261904D01*
X161739819Y-123976190D02*
X160739819Y-123976190D01*
X160739819Y-123976190D02*
X160882676Y-124071428D01*
X160882676Y-124071428D02*
X160977914Y-124166666D01*
X160977914Y-124166666D02*
X161025533Y-124261904D01*
X160739819Y-122785714D02*
X160739819Y-123261904D01*
X160739819Y-123261904D02*
X161216009Y-123309523D01*
X161216009Y-123309523D02*
X161168390Y-123261904D01*
X161168390Y-123261904D02*
X161120771Y-123166666D01*
X161120771Y-123166666D02*
X161120771Y-122928571D01*
X161120771Y-122928571D02*
X161168390Y-122833333D01*
X161168390Y-122833333D02*
X161216009Y-122785714D01*
X161216009Y-122785714D02*
X161311247Y-122738095D01*
X161311247Y-122738095D02*
X161549342Y-122738095D01*
X161549342Y-122738095D02*
X161644580Y-122785714D01*
X161644580Y-122785714D02*
X161692200Y-122833333D01*
X161692200Y-122833333D02*
X161739819Y-122928571D01*
X161739819Y-122928571D02*
X161739819Y-123166666D01*
X161739819Y-123166666D02*
X161692200Y-123261904D01*
X161692200Y-123261904D02*
X161644580Y-123309523D01*
X150748333Y-89624819D02*
X150415000Y-89148628D01*
X150176905Y-89624819D02*
X150176905Y-88624819D01*
X150176905Y-88624819D02*
X150557857Y-88624819D01*
X150557857Y-88624819D02*
X150653095Y-88672438D01*
X150653095Y-88672438D02*
X150700714Y-88720057D01*
X150700714Y-88720057D02*
X150748333Y-88815295D01*
X150748333Y-88815295D02*
X150748333Y-88958152D01*
X150748333Y-88958152D02*
X150700714Y-89053390D01*
X150700714Y-89053390D02*
X150653095Y-89101009D01*
X150653095Y-89101009D02*
X150557857Y-89148628D01*
X150557857Y-89148628D02*
X150176905Y-89148628D01*
X151653095Y-88624819D02*
X151176905Y-88624819D01*
X151176905Y-88624819D02*
X151129286Y-89101009D01*
X151129286Y-89101009D02*
X151176905Y-89053390D01*
X151176905Y-89053390D02*
X151272143Y-89005771D01*
X151272143Y-89005771D02*
X151510238Y-89005771D01*
X151510238Y-89005771D02*
X151605476Y-89053390D01*
X151605476Y-89053390D02*
X151653095Y-89101009D01*
X151653095Y-89101009D02*
X151700714Y-89196247D01*
X151700714Y-89196247D02*
X151700714Y-89434342D01*
X151700714Y-89434342D02*
X151653095Y-89529580D01*
X151653095Y-89529580D02*
X151605476Y-89577200D01*
X151605476Y-89577200D02*
X151510238Y-89624819D01*
X151510238Y-89624819D02*
X151272143Y-89624819D01*
X151272143Y-89624819D02*
X151176905Y-89577200D01*
X151176905Y-89577200D02*
X151129286Y-89529580D01*
X104522142Y-88874819D02*
X104188809Y-88398628D01*
X103950714Y-88874819D02*
X103950714Y-87874819D01*
X103950714Y-87874819D02*
X104331666Y-87874819D01*
X104331666Y-87874819D02*
X104426904Y-87922438D01*
X104426904Y-87922438D02*
X104474523Y-87970057D01*
X104474523Y-87970057D02*
X104522142Y-88065295D01*
X104522142Y-88065295D02*
X104522142Y-88208152D01*
X104522142Y-88208152D02*
X104474523Y-88303390D01*
X104474523Y-88303390D02*
X104426904Y-88351009D01*
X104426904Y-88351009D02*
X104331666Y-88398628D01*
X104331666Y-88398628D02*
X103950714Y-88398628D01*
X105474523Y-88874819D02*
X104903095Y-88874819D01*
X105188809Y-88874819D02*
X105188809Y-87874819D01*
X105188809Y-87874819D02*
X105093571Y-88017676D01*
X105093571Y-88017676D02*
X104998333Y-88112914D01*
X104998333Y-88112914D02*
X104903095Y-88160533D01*
X106426904Y-88874819D02*
X105855476Y-88874819D01*
X106141190Y-88874819D02*
X106141190Y-87874819D01*
X106141190Y-87874819D02*
X106045952Y-88017676D01*
X106045952Y-88017676D02*
X105950714Y-88112914D01*
X105950714Y-88112914D02*
X105855476Y-88160533D01*
X138498333Y-89374819D02*
X138165000Y-88898628D01*
X137926905Y-89374819D02*
X137926905Y-88374819D01*
X137926905Y-88374819D02*
X138307857Y-88374819D01*
X138307857Y-88374819D02*
X138403095Y-88422438D01*
X138403095Y-88422438D02*
X138450714Y-88470057D01*
X138450714Y-88470057D02*
X138498333Y-88565295D01*
X138498333Y-88565295D02*
X138498333Y-88708152D01*
X138498333Y-88708152D02*
X138450714Y-88803390D01*
X138450714Y-88803390D02*
X138403095Y-88851009D01*
X138403095Y-88851009D02*
X138307857Y-88898628D01*
X138307857Y-88898628D02*
X137926905Y-88898628D01*
X139069762Y-88803390D02*
X138974524Y-88755771D01*
X138974524Y-88755771D02*
X138926905Y-88708152D01*
X138926905Y-88708152D02*
X138879286Y-88612914D01*
X138879286Y-88612914D02*
X138879286Y-88565295D01*
X138879286Y-88565295D02*
X138926905Y-88470057D01*
X138926905Y-88470057D02*
X138974524Y-88422438D01*
X138974524Y-88422438D02*
X139069762Y-88374819D01*
X139069762Y-88374819D02*
X139260238Y-88374819D01*
X139260238Y-88374819D02*
X139355476Y-88422438D01*
X139355476Y-88422438D02*
X139403095Y-88470057D01*
X139403095Y-88470057D02*
X139450714Y-88565295D01*
X139450714Y-88565295D02*
X139450714Y-88612914D01*
X139450714Y-88612914D02*
X139403095Y-88708152D01*
X139403095Y-88708152D02*
X139355476Y-88755771D01*
X139355476Y-88755771D02*
X139260238Y-88803390D01*
X139260238Y-88803390D02*
X139069762Y-88803390D01*
X139069762Y-88803390D02*
X138974524Y-88851009D01*
X138974524Y-88851009D02*
X138926905Y-88898628D01*
X138926905Y-88898628D02*
X138879286Y-88993866D01*
X138879286Y-88993866D02*
X138879286Y-89184342D01*
X138879286Y-89184342D02*
X138926905Y-89279580D01*
X138926905Y-89279580D02*
X138974524Y-89327200D01*
X138974524Y-89327200D02*
X139069762Y-89374819D01*
X139069762Y-89374819D02*
X139260238Y-89374819D01*
X139260238Y-89374819D02*
X139355476Y-89327200D01*
X139355476Y-89327200D02*
X139403095Y-89279580D01*
X139403095Y-89279580D02*
X139450714Y-89184342D01*
X139450714Y-89184342D02*
X139450714Y-88993866D01*
X139450714Y-88993866D02*
X139403095Y-88898628D01*
X139403095Y-88898628D02*
X139355476Y-88851009D01*
X139355476Y-88851009D02*
X139260238Y-88803390D01*
X168522142Y-128374819D02*
X168188809Y-127898628D01*
X167950714Y-128374819D02*
X167950714Y-127374819D01*
X167950714Y-127374819D02*
X168331666Y-127374819D01*
X168331666Y-127374819D02*
X168426904Y-127422438D01*
X168426904Y-127422438D02*
X168474523Y-127470057D01*
X168474523Y-127470057D02*
X168522142Y-127565295D01*
X168522142Y-127565295D02*
X168522142Y-127708152D01*
X168522142Y-127708152D02*
X168474523Y-127803390D01*
X168474523Y-127803390D02*
X168426904Y-127851009D01*
X168426904Y-127851009D02*
X168331666Y-127898628D01*
X168331666Y-127898628D02*
X167950714Y-127898628D01*
X168855476Y-127374819D02*
X169474523Y-127374819D01*
X169474523Y-127374819D02*
X169141190Y-127755771D01*
X169141190Y-127755771D02*
X169284047Y-127755771D01*
X169284047Y-127755771D02*
X169379285Y-127803390D01*
X169379285Y-127803390D02*
X169426904Y-127851009D01*
X169426904Y-127851009D02*
X169474523Y-127946247D01*
X169474523Y-127946247D02*
X169474523Y-128184342D01*
X169474523Y-128184342D02*
X169426904Y-128279580D01*
X169426904Y-128279580D02*
X169379285Y-128327200D01*
X169379285Y-128327200D02*
X169284047Y-128374819D01*
X169284047Y-128374819D02*
X168998333Y-128374819D01*
X168998333Y-128374819D02*
X168903095Y-128327200D01*
X168903095Y-128327200D02*
X168855476Y-128279580D01*
X170093571Y-127374819D02*
X170188809Y-127374819D01*
X170188809Y-127374819D02*
X170284047Y-127422438D01*
X170284047Y-127422438D02*
X170331666Y-127470057D01*
X170331666Y-127470057D02*
X170379285Y-127565295D01*
X170379285Y-127565295D02*
X170426904Y-127755771D01*
X170426904Y-127755771D02*
X170426904Y-127993866D01*
X170426904Y-127993866D02*
X170379285Y-128184342D01*
X170379285Y-128184342D02*
X170331666Y-128279580D01*
X170331666Y-128279580D02*
X170284047Y-128327200D01*
X170284047Y-128327200D02*
X170188809Y-128374819D01*
X170188809Y-128374819D02*
X170093571Y-128374819D01*
X170093571Y-128374819D02*
X169998333Y-128327200D01*
X169998333Y-128327200D02*
X169950714Y-128279580D01*
X169950714Y-128279580D02*
X169903095Y-128184342D01*
X169903095Y-128184342D02*
X169855476Y-127993866D01*
X169855476Y-127993866D02*
X169855476Y-127755771D01*
X169855476Y-127755771D02*
X169903095Y-127565295D01*
X169903095Y-127565295D02*
X169950714Y-127470057D01*
X169950714Y-127470057D02*
X169998333Y-127422438D01*
X169998333Y-127422438D02*
X170093571Y-127374819D01*
X160975476Y-133357200D02*
X161118333Y-133404819D01*
X161118333Y-133404819D02*
X161356428Y-133404819D01*
X161356428Y-133404819D02*
X161451666Y-133357200D01*
X161451666Y-133357200D02*
X161499285Y-133309580D01*
X161499285Y-133309580D02*
X161546904Y-133214342D01*
X161546904Y-133214342D02*
X161546904Y-133119104D01*
X161546904Y-133119104D02*
X161499285Y-133023866D01*
X161499285Y-133023866D02*
X161451666Y-132976247D01*
X161451666Y-132976247D02*
X161356428Y-132928628D01*
X161356428Y-132928628D02*
X161165952Y-132881009D01*
X161165952Y-132881009D02*
X161070714Y-132833390D01*
X161070714Y-132833390D02*
X161023095Y-132785771D01*
X161023095Y-132785771D02*
X160975476Y-132690533D01*
X160975476Y-132690533D02*
X160975476Y-132595295D01*
X160975476Y-132595295D02*
X161023095Y-132500057D01*
X161023095Y-132500057D02*
X161070714Y-132452438D01*
X161070714Y-132452438D02*
X161165952Y-132404819D01*
X161165952Y-132404819D02*
X161404047Y-132404819D01*
X161404047Y-132404819D02*
X161546904Y-132452438D01*
X161880238Y-132404819D02*
X162118333Y-133404819D01*
X162118333Y-133404819D02*
X162308809Y-132690533D01*
X162308809Y-132690533D02*
X162499285Y-133404819D01*
X162499285Y-133404819D02*
X162737381Y-132404819D01*
X163642142Y-133404819D02*
X163070714Y-133404819D01*
X163356428Y-133404819D02*
X163356428Y-132404819D01*
X163356428Y-132404819D02*
X163261190Y-132547676D01*
X163261190Y-132547676D02*
X163165952Y-132642914D01*
X163165952Y-132642914D02*
X163070714Y-132690533D01*
X163975476Y-132404819D02*
X164642142Y-132404819D01*
X164642142Y-132404819D02*
X164213571Y-133404819D01*
X175644580Y-85416666D02*
X175692200Y-85464285D01*
X175692200Y-85464285D02*
X175739819Y-85607142D01*
X175739819Y-85607142D02*
X175739819Y-85702380D01*
X175739819Y-85702380D02*
X175692200Y-85845237D01*
X175692200Y-85845237D02*
X175596961Y-85940475D01*
X175596961Y-85940475D02*
X175501723Y-85988094D01*
X175501723Y-85988094D02*
X175311247Y-86035713D01*
X175311247Y-86035713D02*
X175168390Y-86035713D01*
X175168390Y-86035713D02*
X174977914Y-85988094D01*
X174977914Y-85988094D02*
X174882676Y-85940475D01*
X174882676Y-85940475D02*
X174787438Y-85845237D01*
X174787438Y-85845237D02*
X174739819Y-85702380D01*
X174739819Y-85702380D02*
X174739819Y-85607142D01*
X174739819Y-85607142D02*
X174787438Y-85464285D01*
X174787438Y-85464285D02*
X174835057Y-85416666D01*
X175739819Y-84464285D02*
X175739819Y-85035713D01*
X175739819Y-84749999D02*
X174739819Y-84749999D01*
X174739819Y-84749999D02*
X174882676Y-84845237D01*
X174882676Y-84845237D02*
X174977914Y-84940475D01*
X174977914Y-84940475D02*
X175025533Y-85035713D01*
X112256905Y-49994819D02*
X112256905Y-48994819D01*
X112256905Y-48994819D02*
X112495000Y-48994819D01*
X112495000Y-48994819D02*
X112637857Y-49042438D01*
X112637857Y-49042438D02*
X112733095Y-49137676D01*
X112733095Y-49137676D02*
X112780714Y-49232914D01*
X112780714Y-49232914D02*
X112828333Y-49423390D01*
X112828333Y-49423390D02*
X112828333Y-49566247D01*
X112828333Y-49566247D02*
X112780714Y-49756723D01*
X112780714Y-49756723D02*
X112733095Y-49851961D01*
X112733095Y-49851961D02*
X112637857Y-49947200D01*
X112637857Y-49947200D02*
X112495000Y-49994819D01*
X112495000Y-49994819D02*
X112256905Y-49994819D01*
X113209286Y-49090057D02*
X113256905Y-49042438D01*
X113256905Y-49042438D02*
X113352143Y-48994819D01*
X113352143Y-48994819D02*
X113590238Y-48994819D01*
X113590238Y-48994819D02*
X113685476Y-49042438D01*
X113685476Y-49042438D02*
X113733095Y-49090057D01*
X113733095Y-49090057D02*
X113780714Y-49185295D01*
X113780714Y-49185295D02*
X113780714Y-49280533D01*
X113780714Y-49280533D02*
X113733095Y-49423390D01*
X113733095Y-49423390D02*
X113161667Y-49994819D01*
X113161667Y-49994819D02*
X113780714Y-49994819D01*
X120272142Y-127704819D02*
X119938809Y-127228628D01*
X119700714Y-127704819D02*
X119700714Y-126704819D01*
X119700714Y-126704819D02*
X120081666Y-126704819D01*
X120081666Y-126704819D02*
X120176904Y-126752438D01*
X120176904Y-126752438D02*
X120224523Y-126800057D01*
X120224523Y-126800057D02*
X120272142Y-126895295D01*
X120272142Y-126895295D02*
X120272142Y-127038152D01*
X120272142Y-127038152D02*
X120224523Y-127133390D01*
X120224523Y-127133390D02*
X120176904Y-127181009D01*
X120176904Y-127181009D02*
X120081666Y-127228628D01*
X120081666Y-127228628D02*
X119700714Y-127228628D01*
X120653095Y-126800057D02*
X120700714Y-126752438D01*
X120700714Y-126752438D02*
X120795952Y-126704819D01*
X120795952Y-126704819D02*
X121034047Y-126704819D01*
X121034047Y-126704819D02*
X121129285Y-126752438D01*
X121129285Y-126752438D02*
X121176904Y-126800057D01*
X121176904Y-126800057D02*
X121224523Y-126895295D01*
X121224523Y-126895295D02*
X121224523Y-126990533D01*
X121224523Y-126990533D02*
X121176904Y-127133390D01*
X121176904Y-127133390D02*
X120605476Y-127704819D01*
X120605476Y-127704819D02*
X121224523Y-127704819D01*
X121557857Y-126704819D02*
X122176904Y-126704819D01*
X122176904Y-126704819D02*
X121843571Y-127085771D01*
X121843571Y-127085771D02*
X121986428Y-127085771D01*
X121986428Y-127085771D02*
X122081666Y-127133390D01*
X122081666Y-127133390D02*
X122129285Y-127181009D01*
X122129285Y-127181009D02*
X122176904Y-127276247D01*
X122176904Y-127276247D02*
X122176904Y-127514342D01*
X122176904Y-127514342D02*
X122129285Y-127609580D01*
X122129285Y-127609580D02*
X122081666Y-127657200D01*
X122081666Y-127657200D02*
X121986428Y-127704819D01*
X121986428Y-127704819D02*
X121700714Y-127704819D01*
X121700714Y-127704819D02*
X121605476Y-127657200D01*
X121605476Y-127657200D02*
X121557857Y-127609580D01*
X105022142Y-127374819D02*
X104688809Y-126898628D01*
X104450714Y-127374819D02*
X104450714Y-126374819D01*
X104450714Y-126374819D02*
X104831666Y-126374819D01*
X104831666Y-126374819D02*
X104926904Y-126422438D01*
X104926904Y-126422438D02*
X104974523Y-126470057D01*
X104974523Y-126470057D02*
X105022142Y-126565295D01*
X105022142Y-126565295D02*
X105022142Y-126708152D01*
X105022142Y-126708152D02*
X104974523Y-126803390D01*
X104974523Y-126803390D02*
X104926904Y-126851009D01*
X104926904Y-126851009D02*
X104831666Y-126898628D01*
X104831666Y-126898628D02*
X104450714Y-126898628D01*
X105403095Y-126470057D02*
X105450714Y-126422438D01*
X105450714Y-126422438D02*
X105545952Y-126374819D01*
X105545952Y-126374819D02*
X105784047Y-126374819D01*
X105784047Y-126374819D02*
X105879285Y-126422438D01*
X105879285Y-126422438D02*
X105926904Y-126470057D01*
X105926904Y-126470057D02*
X105974523Y-126565295D01*
X105974523Y-126565295D02*
X105974523Y-126660533D01*
X105974523Y-126660533D02*
X105926904Y-126803390D01*
X105926904Y-126803390D02*
X105355476Y-127374819D01*
X105355476Y-127374819D02*
X105974523Y-127374819D01*
X106926904Y-127374819D02*
X106355476Y-127374819D01*
X106641190Y-127374819D02*
X106641190Y-126374819D01*
X106641190Y-126374819D02*
X106545952Y-126517676D01*
X106545952Y-126517676D02*
X106450714Y-126612914D01*
X106450714Y-126612914D02*
X106355476Y-126660533D01*
X92772142Y-127204819D02*
X92438809Y-126728628D01*
X92200714Y-127204819D02*
X92200714Y-126204819D01*
X92200714Y-126204819D02*
X92581666Y-126204819D01*
X92581666Y-126204819D02*
X92676904Y-126252438D01*
X92676904Y-126252438D02*
X92724523Y-126300057D01*
X92724523Y-126300057D02*
X92772142Y-126395295D01*
X92772142Y-126395295D02*
X92772142Y-126538152D01*
X92772142Y-126538152D02*
X92724523Y-126633390D01*
X92724523Y-126633390D02*
X92676904Y-126681009D01*
X92676904Y-126681009D02*
X92581666Y-126728628D01*
X92581666Y-126728628D02*
X92200714Y-126728628D01*
X93153095Y-126300057D02*
X93200714Y-126252438D01*
X93200714Y-126252438D02*
X93295952Y-126204819D01*
X93295952Y-126204819D02*
X93534047Y-126204819D01*
X93534047Y-126204819D02*
X93629285Y-126252438D01*
X93629285Y-126252438D02*
X93676904Y-126300057D01*
X93676904Y-126300057D02*
X93724523Y-126395295D01*
X93724523Y-126395295D02*
X93724523Y-126490533D01*
X93724523Y-126490533D02*
X93676904Y-126633390D01*
X93676904Y-126633390D02*
X93105476Y-127204819D01*
X93105476Y-127204819D02*
X93724523Y-127204819D01*
X94343571Y-126204819D02*
X94438809Y-126204819D01*
X94438809Y-126204819D02*
X94534047Y-126252438D01*
X94534047Y-126252438D02*
X94581666Y-126300057D01*
X94581666Y-126300057D02*
X94629285Y-126395295D01*
X94629285Y-126395295D02*
X94676904Y-126585771D01*
X94676904Y-126585771D02*
X94676904Y-126823866D01*
X94676904Y-126823866D02*
X94629285Y-127014342D01*
X94629285Y-127014342D02*
X94581666Y-127109580D01*
X94581666Y-127109580D02*
X94534047Y-127157200D01*
X94534047Y-127157200D02*
X94438809Y-127204819D01*
X94438809Y-127204819D02*
X94343571Y-127204819D01*
X94343571Y-127204819D02*
X94248333Y-127157200D01*
X94248333Y-127157200D02*
X94200714Y-127109580D01*
X94200714Y-127109580D02*
X94153095Y-127014342D01*
X94153095Y-127014342D02*
X94105476Y-126823866D01*
X94105476Y-126823866D02*
X94105476Y-126585771D01*
X94105476Y-126585771D02*
X94153095Y-126395295D01*
X94153095Y-126395295D02*
X94200714Y-126300057D01*
X94200714Y-126300057D02*
X94248333Y-126252438D01*
X94248333Y-126252438D02*
X94343571Y-126204819D01*
X161201667Y-94607200D02*
X161344524Y-94654819D01*
X161344524Y-94654819D02*
X161582619Y-94654819D01*
X161582619Y-94654819D02*
X161677857Y-94607200D01*
X161677857Y-94607200D02*
X161725476Y-94559580D01*
X161725476Y-94559580D02*
X161773095Y-94464342D01*
X161773095Y-94464342D02*
X161773095Y-94369104D01*
X161773095Y-94369104D02*
X161725476Y-94273866D01*
X161725476Y-94273866D02*
X161677857Y-94226247D01*
X161677857Y-94226247D02*
X161582619Y-94178628D01*
X161582619Y-94178628D02*
X161392143Y-94131009D01*
X161392143Y-94131009D02*
X161296905Y-94083390D01*
X161296905Y-94083390D02*
X161249286Y-94035771D01*
X161249286Y-94035771D02*
X161201667Y-93940533D01*
X161201667Y-93940533D02*
X161201667Y-93845295D01*
X161201667Y-93845295D02*
X161249286Y-93750057D01*
X161249286Y-93750057D02*
X161296905Y-93702438D01*
X161296905Y-93702438D02*
X161392143Y-93654819D01*
X161392143Y-93654819D02*
X161630238Y-93654819D01*
X161630238Y-93654819D02*
X161773095Y-93702438D01*
X162106429Y-93654819D02*
X162344524Y-94654819D01*
X162344524Y-94654819D02*
X162535000Y-93940533D01*
X162535000Y-93940533D02*
X162725476Y-94654819D01*
X162725476Y-94654819D02*
X162963572Y-93654819D01*
X163773095Y-93988152D02*
X163773095Y-94654819D01*
X163535000Y-93607200D02*
X163296905Y-94321485D01*
X163296905Y-94321485D02*
X163915952Y-94321485D01*
X199394580Y-110392857D02*
X199442200Y-110440476D01*
X199442200Y-110440476D02*
X199489819Y-110583333D01*
X199489819Y-110583333D02*
X199489819Y-110678571D01*
X199489819Y-110678571D02*
X199442200Y-110821428D01*
X199442200Y-110821428D02*
X199346961Y-110916666D01*
X199346961Y-110916666D02*
X199251723Y-110964285D01*
X199251723Y-110964285D02*
X199061247Y-111011904D01*
X199061247Y-111011904D02*
X198918390Y-111011904D01*
X198918390Y-111011904D02*
X198727914Y-110964285D01*
X198727914Y-110964285D02*
X198632676Y-110916666D01*
X198632676Y-110916666D02*
X198537438Y-110821428D01*
X198537438Y-110821428D02*
X198489819Y-110678571D01*
X198489819Y-110678571D02*
X198489819Y-110583333D01*
X198489819Y-110583333D02*
X198537438Y-110440476D01*
X198537438Y-110440476D02*
X198585057Y-110392857D01*
X199489819Y-109440476D02*
X199489819Y-110011904D01*
X199489819Y-109726190D02*
X198489819Y-109726190D01*
X198489819Y-109726190D02*
X198632676Y-109821428D01*
X198632676Y-109821428D02*
X198727914Y-109916666D01*
X198727914Y-109916666D02*
X198775533Y-110011904D01*
X199489819Y-108964285D02*
X199489819Y-108773809D01*
X199489819Y-108773809D02*
X199442200Y-108678571D01*
X199442200Y-108678571D02*
X199394580Y-108630952D01*
X199394580Y-108630952D02*
X199251723Y-108535714D01*
X199251723Y-108535714D02*
X199061247Y-108488095D01*
X199061247Y-108488095D02*
X198680295Y-108488095D01*
X198680295Y-108488095D02*
X198585057Y-108535714D01*
X198585057Y-108535714D02*
X198537438Y-108583333D01*
X198537438Y-108583333D02*
X198489819Y-108678571D01*
X198489819Y-108678571D02*
X198489819Y-108869047D01*
X198489819Y-108869047D02*
X198537438Y-108964285D01*
X198537438Y-108964285D02*
X198585057Y-109011904D01*
X198585057Y-109011904D02*
X198680295Y-109059523D01*
X198680295Y-109059523D02*
X198918390Y-109059523D01*
X198918390Y-109059523D02*
X199013628Y-109011904D01*
X199013628Y-109011904D02*
X199061247Y-108964285D01*
X199061247Y-108964285D02*
X199108866Y-108869047D01*
X199108866Y-108869047D02*
X199108866Y-108678571D01*
X199108866Y-108678571D02*
X199061247Y-108583333D01*
X199061247Y-108583333D02*
X199013628Y-108535714D01*
X199013628Y-108535714D02*
X198918390Y-108488095D01*
X73772142Y-88624819D02*
X73438809Y-88148628D01*
X73200714Y-88624819D02*
X73200714Y-87624819D01*
X73200714Y-87624819D02*
X73581666Y-87624819D01*
X73581666Y-87624819D02*
X73676904Y-87672438D01*
X73676904Y-87672438D02*
X73724523Y-87720057D01*
X73724523Y-87720057D02*
X73772142Y-87815295D01*
X73772142Y-87815295D02*
X73772142Y-87958152D01*
X73772142Y-87958152D02*
X73724523Y-88053390D01*
X73724523Y-88053390D02*
X73676904Y-88101009D01*
X73676904Y-88101009D02*
X73581666Y-88148628D01*
X73581666Y-88148628D02*
X73200714Y-88148628D01*
X74724523Y-88624819D02*
X74153095Y-88624819D01*
X74438809Y-88624819D02*
X74438809Y-87624819D01*
X74438809Y-87624819D02*
X74343571Y-87767676D01*
X74343571Y-87767676D02*
X74248333Y-87862914D01*
X74248333Y-87862914D02*
X74153095Y-87910533D01*
X75629285Y-87624819D02*
X75153095Y-87624819D01*
X75153095Y-87624819D02*
X75105476Y-88101009D01*
X75105476Y-88101009D02*
X75153095Y-88053390D01*
X75153095Y-88053390D02*
X75248333Y-88005771D01*
X75248333Y-88005771D02*
X75486428Y-88005771D01*
X75486428Y-88005771D02*
X75581666Y-88053390D01*
X75581666Y-88053390D02*
X75629285Y-88101009D01*
X75629285Y-88101009D02*
X75676904Y-88196247D01*
X75676904Y-88196247D02*
X75676904Y-88434342D01*
X75676904Y-88434342D02*
X75629285Y-88529580D01*
X75629285Y-88529580D02*
X75581666Y-88577200D01*
X75581666Y-88577200D02*
X75486428Y-88624819D01*
X75486428Y-88624819D02*
X75248333Y-88624819D01*
X75248333Y-88624819D02*
X75153095Y-88577200D01*
X75153095Y-88577200D02*
X75105476Y-88529580D01*
X100451667Y-93857200D02*
X100594524Y-93904819D01*
X100594524Y-93904819D02*
X100832619Y-93904819D01*
X100832619Y-93904819D02*
X100927857Y-93857200D01*
X100927857Y-93857200D02*
X100975476Y-93809580D01*
X100975476Y-93809580D02*
X101023095Y-93714342D01*
X101023095Y-93714342D02*
X101023095Y-93619104D01*
X101023095Y-93619104D02*
X100975476Y-93523866D01*
X100975476Y-93523866D02*
X100927857Y-93476247D01*
X100927857Y-93476247D02*
X100832619Y-93428628D01*
X100832619Y-93428628D02*
X100642143Y-93381009D01*
X100642143Y-93381009D02*
X100546905Y-93333390D01*
X100546905Y-93333390D02*
X100499286Y-93285771D01*
X100499286Y-93285771D02*
X100451667Y-93190533D01*
X100451667Y-93190533D02*
X100451667Y-93095295D01*
X100451667Y-93095295D02*
X100499286Y-93000057D01*
X100499286Y-93000057D02*
X100546905Y-92952438D01*
X100546905Y-92952438D02*
X100642143Y-92904819D01*
X100642143Y-92904819D02*
X100880238Y-92904819D01*
X100880238Y-92904819D02*
X101023095Y-92952438D01*
X101356429Y-92904819D02*
X101594524Y-93904819D01*
X101594524Y-93904819D02*
X101785000Y-93190533D01*
X101785000Y-93190533D02*
X101975476Y-93904819D01*
X101975476Y-93904819D02*
X102213572Y-92904819D01*
X102737381Y-93333390D02*
X102642143Y-93285771D01*
X102642143Y-93285771D02*
X102594524Y-93238152D01*
X102594524Y-93238152D02*
X102546905Y-93142914D01*
X102546905Y-93142914D02*
X102546905Y-93095295D01*
X102546905Y-93095295D02*
X102594524Y-93000057D01*
X102594524Y-93000057D02*
X102642143Y-92952438D01*
X102642143Y-92952438D02*
X102737381Y-92904819D01*
X102737381Y-92904819D02*
X102927857Y-92904819D01*
X102927857Y-92904819D02*
X103023095Y-92952438D01*
X103023095Y-92952438D02*
X103070714Y-93000057D01*
X103070714Y-93000057D02*
X103118333Y-93095295D01*
X103118333Y-93095295D02*
X103118333Y-93142914D01*
X103118333Y-93142914D02*
X103070714Y-93238152D01*
X103070714Y-93238152D02*
X103023095Y-93285771D01*
X103023095Y-93285771D02*
X102927857Y-93333390D01*
X102927857Y-93333390D02*
X102737381Y-93333390D01*
X102737381Y-93333390D02*
X102642143Y-93381009D01*
X102642143Y-93381009D02*
X102594524Y-93428628D01*
X102594524Y-93428628D02*
X102546905Y-93523866D01*
X102546905Y-93523866D02*
X102546905Y-93714342D01*
X102546905Y-93714342D02*
X102594524Y-93809580D01*
X102594524Y-93809580D02*
X102642143Y-93857200D01*
X102642143Y-93857200D02*
X102737381Y-93904819D01*
X102737381Y-93904819D02*
X102927857Y-93904819D01*
X102927857Y-93904819D02*
X103023095Y-93857200D01*
X103023095Y-93857200D02*
X103070714Y-93809580D01*
X103070714Y-93809580D02*
X103118333Y-93714342D01*
X103118333Y-93714342D02*
X103118333Y-93523866D01*
X103118333Y-93523866D02*
X103070714Y-93428628D01*
X103070714Y-93428628D02*
X103023095Y-93381009D01*
X103023095Y-93381009D02*
X102927857Y-93333390D01*
X123272142Y-127704819D02*
X122938809Y-127228628D01*
X122700714Y-127704819D02*
X122700714Y-126704819D01*
X122700714Y-126704819D02*
X123081666Y-126704819D01*
X123081666Y-126704819D02*
X123176904Y-126752438D01*
X123176904Y-126752438D02*
X123224523Y-126800057D01*
X123224523Y-126800057D02*
X123272142Y-126895295D01*
X123272142Y-126895295D02*
X123272142Y-127038152D01*
X123272142Y-127038152D02*
X123224523Y-127133390D01*
X123224523Y-127133390D02*
X123176904Y-127181009D01*
X123176904Y-127181009D02*
X123081666Y-127228628D01*
X123081666Y-127228628D02*
X122700714Y-127228628D01*
X123653095Y-126800057D02*
X123700714Y-126752438D01*
X123700714Y-126752438D02*
X123795952Y-126704819D01*
X123795952Y-126704819D02*
X124034047Y-126704819D01*
X124034047Y-126704819D02*
X124129285Y-126752438D01*
X124129285Y-126752438D02*
X124176904Y-126800057D01*
X124176904Y-126800057D02*
X124224523Y-126895295D01*
X124224523Y-126895295D02*
X124224523Y-126990533D01*
X124224523Y-126990533D02*
X124176904Y-127133390D01*
X124176904Y-127133390D02*
X123605476Y-127704819D01*
X123605476Y-127704819D02*
X124224523Y-127704819D01*
X125081666Y-127038152D02*
X125081666Y-127704819D01*
X124843571Y-126657200D02*
X124605476Y-127371485D01*
X124605476Y-127371485D02*
X125224523Y-127371485D01*
X69451667Y-64357200D02*
X69594524Y-64404819D01*
X69594524Y-64404819D02*
X69832619Y-64404819D01*
X69832619Y-64404819D02*
X69927857Y-64357200D01*
X69927857Y-64357200D02*
X69975476Y-64309580D01*
X69975476Y-64309580D02*
X70023095Y-64214342D01*
X70023095Y-64214342D02*
X70023095Y-64119104D01*
X70023095Y-64119104D02*
X69975476Y-64023866D01*
X69975476Y-64023866D02*
X69927857Y-63976247D01*
X69927857Y-63976247D02*
X69832619Y-63928628D01*
X69832619Y-63928628D02*
X69642143Y-63881009D01*
X69642143Y-63881009D02*
X69546905Y-63833390D01*
X69546905Y-63833390D02*
X69499286Y-63785771D01*
X69499286Y-63785771D02*
X69451667Y-63690533D01*
X69451667Y-63690533D02*
X69451667Y-63595295D01*
X69451667Y-63595295D02*
X69499286Y-63500057D01*
X69499286Y-63500057D02*
X69546905Y-63452438D01*
X69546905Y-63452438D02*
X69642143Y-63404819D01*
X69642143Y-63404819D02*
X69880238Y-63404819D01*
X69880238Y-63404819D02*
X70023095Y-63452438D01*
X70356429Y-63404819D02*
X70594524Y-64404819D01*
X70594524Y-64404819D02*
X70785000Y-63690533D01*
X70785000Y-63690533D02*
X70975476Y-64404819D01*
X70975476Y-64404819D02*
X71213572Y-63404819D01*
X72118333Y-64404819D02*
X71546905Y-64404819D01*
X71832619Y-64404819D02*
X71832619Y-63404819D01*
X71832619Y-63404819D02*
X71737381Y-63547676D01*
X71737381Y-63547676D02*
X71642143Y-63642914D01*
X71642143Y-63642914D02*
X71546905Y-63690533D01*
X191894580Y-147142857D02*
X191942200Y-147190476D01*
X191942200Y-147190476D02*
X191989819Y-147333333D01*
X191989819Y-147333333D02*
X191989819Y-147428571D01*
X191989819Y-147428571D02*
X191942200Y-147571428D01*
X191942200Y-147571428D02*
X191846961Y-147666666D01*
X191846961Y-147666666D02*
X191751723Y-147714285D01*
X191751723Y-147714285D02*
X191561247Y-147761904D01*
X191561247Y-147761904D02*
X191418390Y-147761904D01*
X191418390Y-147761904D02*
X191227914Y-147714285D01*
X191227914Y-147714285D02*
X191132676Y-147666666D01*
X191132676Y-147666666D02*
X191037438Y-147571428D01*
X191037438Y-147571428D02*
X190989819Y-147428571D01*
X190989819Y-147428571D02*
X190989819Y-147333333D01*
X190989819Y-147333333D02*
X191037438Y-147190476D01*
X191037438Y-147190476D02*
X191085057Y-147142857D01*
X191085057Y-146761904D02*
X191037438Y-146714285D01*
X191037438Y-146714285D02*
X190989819Y-146619047D01*
X190989819Y-146619047D02*
X190989819Y-146380952D01*
X190989819Y-146380952D02*
X191037438Y-146285714D01*
X191037438Y-146285714D02*
X191085057Y-146238095D01*
X191085057Y-146238095D02*
X191180295Y-146190476D01*
X191180295Y-146190476D02*
X191275533Y-146190476D01*
X191275533Y-146190476D02*
X191418390Y-146238095D01*
X191418390Y-146238095D02*
X191989819Y-146809523D01*
X191989819Y-146809523D02*
X191989819Y-146190476D01*
X191989819Y-145238095D02*
X191989819Y-145809523D01*
X191989819Y-145523809D02*
X190989819Y-145523809D01*
X190989819Y-145523809D02*
X191132676Y-145619047D01*
X191132676Y-145619047D02*
X191227914Y-145714285D01*
X191227914Y-145714285D02*
X191275533Y-145809523D01*
X85201667Y-64607200D02*
X85344524Y-64654819D01*
X85344524Y-64654819D02*
X85582619Y-64654819D01*
X85582619Y-64654819D02*
X85677857Y-64607200D01*
X85677857Y-64607200D02*
X85725476Y-64559580D01*
X85725476Y-64559580D02*
X85773095Y-64464342D01*
X85773095Y-64464342D02*
X85773095Y-64369104D01*
X85773095Y-64369104D02*
X85725476Y-64273866D01*
X85725476Y-64273866D02*
X85677857Y-64226247D01*
X85677857Y-64226247D02*
X85582619Y-64178628D01*
X85582619Y-64178628D02*
X85392143Y-64131009D01*
X85392143Y-64131009D02*
X85296905Y-64083390D01*
X85296905Y-64083390D02*
X85249286Y-64035771D01*
X85249286Y-64035771D02*
X85201667Y-63940533D01*
X85201667Y-63940533D02*
X85201667Y-63845295D01*
X85201667Y-63845295D02*
X85249286Y-63750057D01*
X85249286Y-63750057D02*
X85296905Y-63702438D01*
X85296905Y-63702438D02*
X85392143Y-63654819D01*
X85392143Y-63654819D02*
X85630238Y-63654819D01*
X85630238Y-63654819D02*
X85773095Y-63702438D01*
X86106429Y-63654819D02*
X86344524Y-64654819D01*
X86344524Y-64654819D02*
X86535000Y-63940533D01*
X86535000Y-63940533D02*
X86725476Y-64654819D01*
X86725476Y-64654819D02*
X86963572Y-63654819D01*
X87296905Y-63750057D02*
X87344524Y-63702438D01*
X87344524Y-63702438D02*
X87439762Y-63654819D01*
X87439762Y-63654819D02*
X87677857Y-63654819D01*
X87677857Y-63654819D02*
X87773095Y-63702438D01*
X87773095Y-63702438D02*
X87820714Y-63750057D01*
X87820714Y-63750057D02*
X87868333Y-63845295D01*
X87868333Y-63845295D02*
X87868333Y-63940533D01*
X87868333Y-63940533D02*
X87820714Y-64083390D01*
X87820714Y-64083390D02*
X87249286Y-64654819D01*
X87249286Y-64654819D02*
X87868333Y-64654819D01*
X176225476Y-133687200D02*
X176368333Y-133734819D01*
X176368333Y-133734819D02*
X176606428Y-133734819D01*
X176606428Y-133734819D02*
X176701666Y-133687200D01*
X176701666Y-133687200D02*
X176749285Y-133639580D01*
X176749285Y-133639580D02*
X176796904Y-133544342D01*
X176796904Y-133544342D02*
X176796904Y-133449104D01*
X176796904Y-133449104D02*
X176749285Y-133353866D01*
X176749285Y-133353866D02*
X176701666Y-133306247D01*
X176701666Y-133306247D02*
X176606428Y-133258628D01*
X176606428Y-133258628D02*
X176415952Y-133211009D01*
X176415952Y-133211009D02*
X176320714Y-133163390D01*
X176320714Y-133163390D02*
X176273095Y-133115771D01*
X176273095Y-133115771D02*
X176225476Y-133020533D01*
X176225476Y-133020533D02*
X176225476Y-132925295D01*
X176225476Y-132925295D02*
X176273095Y-132830057D01*
X176273095Y-132830057D02*
X176320714Y-132782438D01*
X176320714Y-132782438D02*
X176415952Y-132734819D01*
X176415952Y-132734819D02*
X176654047Y-132734819D01*
X176654047Y-132734819D02*
X176796904Y-132782438D01*
X177130238Y-132734819D02*
X177368333Y-133734819D01*
X177368333Y-133734819D02*
X177558809Y-133020533D01*
X177558809Y-133020533D02*
X177749285Y-133734819D01*
X177749285Y-133734819D02*
X177987381Y-132734819D01*
X178892142Y-133734819D02*
X178320714Y-133734819D01*
X178606428Y-133734819D02*
X178606428Y-132734819D01*
X178606428Y-132734819D02*
X178511190Y-132877676D01*
X178511190Y-132877676D02*
X178415952Y-132972914D01*
X178415952Y-132972914D02*
X178320714Y-133020533D01*
X179463571Y-133163390D02*
X179368333Y-133115771D01*
X179368333Y-133115771D02*
X179320714Y-133068152D01*
X179320714Y-133068152D02*
X179273095Y-132972914D01*
X179273095Y-132972914D02*
X179273095Y-132925295D01*
X179273095Y-132925295D02*
X179320714Y-132830057D01*
X179320714Y-132830057D02*
X179368333Y-132782438D01*
X179368333Y-132782438D02*
X179463571Y-132734819D01*
X179463571Y-132734819D02*
X179654047Y-132734819D01*
X179654047Y-132734819D02*
X179749285Y-132782438D01*
X179749285Y-132782438D02*
X179796904Y-132830057D01*
X179796904Y-132830057D02*
X179844523Y-132925295D01*
X179844523Y-132925295D02*
X179844523Y-132972914D01*
X179844523Y-132972914D02*
X179796904Y-133068152D01*
X179796904Y-133068152D02*
X179749285Y-133115771D01*
X179749285Y-133115771D02*
X179654047Y-133163390D01*
X179654047Y-133163390D02*
X179463571Y-133163390D01*
X179463571Y-133163390D02*
X179368333Y-133211009D01*
X179368333Y-133211009D02*
X179320714Y-133258628D01*
X179320714Y-133258628D02*
X179273095Y-133353866D01*
X179273095Y-133353866D02*
X179273095Y-133544342D01*
X179273095Y-133544342D02*
X179320714Y-133639580D01*
X179320714Y-133639580D02*
X179368333Y-133687200D01*
X179368333Y-133687200D02*
X179463571Y-133734819D01*
X179463571Y-133734819D02*
X179654047Y-133734819D01*
X179654047Y-133734819D02*
X179749285Y-133687200D01*
X179749285Y-133687200D02*
X179796904Y-133639580D01*
X179796904Y-133639580D02*
X179844523Y-133544342D01*
X179844523Y-133544342D02*
X179844523Y-133353866D01*
X179844523Y-133353866D02*
X179796904Y-133258628D01*
X179796904Y-133258628D02*
X179749285Y-133211009D01*
X179749285Y-133211009D02*
X179654047Y-133163390D01*
X100644580Y-123642857D02*
X100692200Y-123690476D01*
X100692200Y-123690476D02*
X100739819Y-123833333D01*
X100739819Y-123833333D02*
X100739819Y-123928571D01*
X100739819Y-123928571D02*
X100692200Y-124071428D01*
X100692200Y-124071428D02*
X100596961Y-124166666D01*
X100596961Y-124166666D02*
X100501723Y-124214285D01*
X100501723Y-124214285D02*
X100311247Y-124261904D01*
X100311247Y-124261904D02*
X100168390Y-124261904D01*
X100168390Y-124261904D02*
X99977914Y-124214285D01*
X99977914Y-124214285D02*
X99882676Y-124166666D01*
X99882676Y-124166666D02*
X99787438Y-124071428D01*
X99787438Y-124071428D02*
X99739819Y-123928571D01*
X99739819Y-123928571D02*
X99739819Y-123833333D01*
X99739819Y-123833333D02*
X99787438Y-123690476D01*
X99787438Y-123690476D02*
X99835057Y-123642857D01*
X100739819Y-122690476D02*
X100739819Y-123261904D01*
X100739819Y-122976190D02*
X99739819Y-122976190D01*
X99739819Y-122976190D02*
X99882676Y-123071428D01*
X99882676Y-123071428D02*
X99977914Y-123166666D01*
X99977914Y-123166666D02*
X100025533Y-123261904D01*
X100739819Y-121738095D02*
X100739819Y-122309523D01*
X100739819Y-122023809D02*
X99739819Y-122023809D01*
X99739819Y-122023809D02*
X99882676Y-122119047D01*
X99882676Y-122119047D02*
X99977914Y-122214285D01*
X99977914Y-122214285D02*
X100025533Y-122309523D01*
X247464819Y-136080238D02*
X246988628Y-136413571D01*
X247464819Y-136651666D02*
X246464819Y-136651666D01*
X246464819Y-136651666D02*
X246464819Y-136270714D01*
X246464819Y-136270714D02*
X246512438Y-136175476D01*
X246512438Y-136175476D02*
X246560057Y-136127857D01*
X246560057Y-136127857D02*
X246655295Y-136080238D01*
X246655295Y-136080238D02*
X246798152Y-136080238D01*
X246798152Y-136080238D02*
X246893390Y-136127857D01*
X246893390Y-136127857D02*
X246941009Y-136175476D01*
X246941009Y-136175476D02*
X246988628Y-136270714D01*
X246988628Y-136270714D02*
X246988628Y-136651666D01*
X246464819Y-135794523D02*
X247464819Y-135461190D01*
X247464819Y-135461190D02*
X246464819Y-135127857D01*
X246560057Y-134842142D02*
X246512438Y-134794523D01*
X246512438Y-134794523D02*
X246464819Y-134699285D01*
X246464819Y-134699285D02*
X246464819Y-134461190D01*
X246464819Y-134461190D02*
X246512438Y-134365952D01*
X246512438Y-134365952D02*
X246560057Y-134318333D01*
X246560057Y-134318333D02*
X246655295Y-134270714D01*
X246655295Y-134270714D02*
X246750533Y-134270714D01*
X246750533Y-134270714D02*
X246893390Y-134318333D01*
X246893390Y-134318333D02*
X247464819Y-134889761D01*
X247464819Y-134889761D02*
X247464819Y-134270714D01*
X242359819Y-87562857D02*
X241883628Y-87896190D01*
X242359819Y-88134285D02*
X241359819Y-88134285D01*
X241359819Y-88134285D02*
X241359819Y-87753333D01*
X241359819Y-87753333D02*
X241407438Y-87658095D01*
X241407438Y-87658095D02*
X241455057Y-87610476D01*
X241455057Y-87610476D02*
X241550295Y-87562857D01*
X241550295Y-87562857D02*
X241693152Y-87562857D01*
X241693152Y-87562857D02*
X241788390Y-87610476D01*
X241788390Y-87610476D02*
X241836009Y-87658095D01*
X241836009Y-87658095D02*
X241883628Y-87753333D01*
X241883628Y-87753333D02*
X241883628Y-88134285D01*
X241359819Y-87229523D02*
X241359819Y-86610476D01*
X241359819Y-86610476D02*
X241740771Y-86943809D01*
X241740771Y-86943809D02*
X241740771Y-86800952D01*
X241740771Y-86800952D02*
X241788390Y-86705714D01*
X241788390Y-86705714D02*
X241836009Y-86658095D01*
X241836009Y-86658095D02*
X241931247Y-86610476D01*
X241931247Y-86610476D02*
X242169342Y-86610476D01*
X242169342Y-86610476D02*
X242264580Y-86658095D01*
X242264580Y-86658095D02*
X242312200Y-86705714D01*
X242312200Y-86705714D02*
X242359819Y-86800952D01*
X242359819Y-86800952D02*
X242359819Y-87086666D01*
X242359819Y-87086666D02*
X242312200Y-87181904D01*
X242312200Y-87181904D02*
X242264580Y-87229523D01*
X241359819Y-85753333D02*
X241359819Y-85943809D01*
X241359819Y-85943809D02*
X241407438Y-86039047D01*
X241407438Y-86039047D02*
X241455057Y-86086666D01*
X241455057Y-86086666D02*
X241597914Y-86181904D01*
X241597914Y-86181904D02*
X241788390Y-86229523D01*
X241788390Y-86229523D02*
X242169342Y-86229523D01*
X242169342Y-86229523D02*
X242264580Y-86181904D01*
X242264580Y-86181904D02*
X242312200Y-86134285D01*
X242312200Y-86134285D02*
X242359819Y-86039047D01*
X242359819Y-86039047D02*
X242359819Y-85848571D01*
X242359819Y-85848571D02*
X242312200Y-85753333D01*
X242312200Y-85753333D02*
X242264580Y-85705714D01*
X242264580Y-85705714D02*
X242169342Y-85658095D01*
X242169342Y-85658095D02*
X241931247Y-85658095D01*
X241931247Y-85658095D02*
X241836009Y-85705714D01*
X241836009Y-85705714D02*
X241788390Y-85753333D01*
X241788390Y-85753333D02*
X241740771Y-85848571D01*
X241740771Y-85848571D02*
X241740771Y-86039047D01*
X241740771Y-86039047D02*
X241788390Y-86134285D01*
X241788390Y-86134285D02*
X241836009Y-86181904D01*
X241836009Y-86181904D02*
X241931247Y-86229523D01*
X85144580Y-84086666D02*
X85192200Y-84134285D01*
X85192200Y-84134285D02*
X85239819Y-84277142D01*
X85239819Y-84277142D02*
X85239819Y-84372380D01*
X85239819Y-84372380D02*
X85192200Y-84515237D01*
X85192200Y-84515237D02*
X85096961Y-84610475D01*
X85096961Y-84610475D02*
X85001723Y-84658094D01*
X85001723Y-84658094D02*
X84811247Y-84705713D01*
X84811247Y-84705713D02*
X84668390Y-84705713D01*
X84668390Y-84705713D02*
X84477914Y-84658094D01*
X84477914Y-84658094D02*
X84382676Y-84610475D01*
X84382676Y-84610475D02*
X84287438Y-84515237D01*
X84287438Y-84515237D02*
X84239819Y-84372380D01*
X84239819Y-84372380D02*
X84239819Y-84277142D01*
X84239819Y-84277142D02*
X84287438Y-84134285D01*
X84287438Y-84134285D02*
X84335057Y-84086666D01*
X84239819Y-83753332D02*
X84239819Y-83086666D01*
X84239819Y-83086666D02*
X85239819Y-83515237D01*
X115701667Y-94107200D02*
X115844524Y-94154819D01*
X115844524Y-94154819D02*
X116082619Y-94154819D01*
X116082619Y-94154819D02*
X116177857Y-94107200D01*
X116177857Y-94107200D02*
X116225476Y-94059580D01*
X116225476Y-94059580D02*
X116273095Y-93964342D01*
X116273095Y-93964342D02*
X116273095Y-93869104D01*
X116273095Y-93869104D02*
X116225476Y-93773866D01*
X116225476Y-93773866D02*
X116177857Y-93726247D01*
X116177857Y-93726247D02*
X116082619Y-93678628D01*
X116082619Y-93678628D02*
X115892143Y-93631009D01*
X115892143Y-93631009D02*
X115796905Y-93583390D01*
X115796905Y-93583390D02*
X115749286Y-93535771D01*
X115749286Y-93535771D02*
X115701667Y-93440533D01*
X115701667Y-93440533D02*
X115701667Y-93345295D01*
X115701667Y-93345295D02*
X115749286Y-93250057D01*
X115749286Y-93250057D02*
X115796905Y-93202438D01*
X115796905Y-93202438D02*
X115892143Y-93154819D01*
X115892143Y-93154819D02*
X116130238Y-93154819D01*
X116130238Y-93154819D02*
X116273095Y-93202438D01*
X116606429Y-93154819D02*
X116844524Y-94154819D01*
X116844524Y-94154819D02*
X117035000Y-93440533D01*
X117035000Y-93440533D02*
X117225476Y-94154819D01*
X117225476Y-94154819D02*
X117463572Y-93154819D01*
X117749286Y-93154819D02*
X118415952Y-93154819D01*
X118415952Y-93154819D02*
X117987381Y-94154819D01*
X241642142Y-112859580D02*
X241594523Y-112907200D01*
X241594523Y-112907200D02*
X241451666Y-112954819D01*
X241451666Y-112954819D02*
X241356428Y-112954819D01*
X241356428Y-112954819D02*
X241213571Y-112907200D01*
X241213571Y-112907200D02*
X241118333Y-112811961D01*
X241118333Y-112811961D02*
X241070714Y-112716723D01*
X241070714Y-112716723D02*
X241023095Y-112526247D01*
X241023095Y-112526247D02*
X241023095Y-112383390D01*
X241023095Y-112383390D02*
X241070714Y-112192914D01*
X241070714Y-112192914D02*
X241118333Y-112097676D01*
X241118333Y-112097676D02*
X241213571Y-112002438D01*
X241213571Y-112002438D02*
X241356428Y-111954819D01*
X241356428Y-111954819D02*
X241451666Y-111954819D01*
X241451666Y-111954819D02*
X241594523Y-112002438D01*
X241594523Y-112002438D02*
X241642142Y-112050057D01*
X242594523Y-112954819D02*
X242023095Y-112954819D01*
X242308809Y-112954819D02*
X242308809Y-111954819D01*
X242308809Y-111954819D02*
X242213571Y-112097676D01*
X242213571Y-112097676D02*
X242118333Y-112192914D01*
X242118333Y-112192914D02*
X242023095Y-112240533D01*
X243165952Y-112383390D02*
X243070714Y-112335771D01*
X243070714Y-112335771D02*
X243023095Y-112288152D01*
X243023095Y-112288152D02*
X242975476Y-112192914D01*
X242975476Y-112192914D02*
X242975476Y-112145295D01*
X242975476Y-112145295D02*
X243023095Y-112050057D01*
X243023095Y-112050057D02*
X243070714Y-112002438D01*
X243070714Y-112002438D02*
X243165952Y-111954819D01*
X243165952Y-111954819D02*
X243356428Y-111954819D01*
X243356428Y-111954819D02*
X243451666Y-112002438D01*
X243451666Y-112002438D02*
X243499285Y-112050057D01*
X243499285Y-112050057D02*
X243546904Y-112145295D01*
X243546904Y-112145295D02*
X243546904Y-112192914D01*
X243546904Y-112192914D02*
X243499285Y-112288152D01*
X243499285Y-112288152D02*
X243451666Y-112335771D01*
X243451666Y-112335771D02*
X243356428Y-112383390D01*
X243356428Y-112383390D02*
X243165952Y-112383390D01*
X243165952Y-112383390D02*
X243070714Y-112431009D01*
X243070714Y-112431009D02*
X243023095Y-112478628D01*
X243023095Y-112478628D02*
X242975476Y-112573866D01*
X242975476Y-112573866D02*
X242975476Y-112764342D01*
X242975476Y-112764342D02*
X243023095Y-112859580D01*
X243023095Y-112859580D02*
X243070714Y-112907200D01*
X243070714Y-112907200D02*
X243165952Y-112954819D01*
X243165952Y-112954819D02*
X243356428Y-112954819D01*
X243356428Y-112954819D02*
X243451666Y-112907200D01*
X243451666Y-112907200D02*
X243499285Y-112859580D01*
X243499285Y-112859580D02*
X243546904Y-112764342D01*
X243546904Y-112764342D02*
X243546904Y-112573866D01*
X243546904Y-112573866D02*
X243499285Y-112478628D01*
X243499285Y-112478628D02*
X243451666Y-112431009D01*
X243451666Y-112431009D02*
X243356428Y-112383390D01*
X165522142Y-128374819D02*
X165188809Y-127898628D01*
X164950714Y-128374819D02*
X164950714Y-127374819D01*
X164950714Y-127374819D02*
X165331666Y-127374819D01*
X165331666Y-127374819D02*
X165426904Y-127422438D01*
X165426904Y-127422438D02*
X165474523Y-127470057D01*
X165474523Y-127470057D02*
X165522142Y-127565295D01*
X165522142Y-127565295D02*
X165522142Y-127708152D01*
X165522142Y-127708152D02*
X165474523Y-127803390D01*
X165474523Y-127803390D02*
X165426904Y-127851009D01*
X165426904Y-127851009D02*
X165331666Y-127898628D01*
X165331666Y-127898628D02*
X164950714Y-127898628D01*
X165903095Y-127470057D02*
X165950714Y-127422438D01*
X165950714Y-127422438D02*
X166045952Y-127374819D01*
X166045952Y-127374819D02*
X166284047Y-127374819D01*
X166284047Y-127374819D02*
X166379285Y-127422438D01*
X166379285Y-127422438D02*
X166426904Y-127470057D01*
X166426904Y-127470057D02*
X166474523Y-127565295D01*
X166474523Y-127565295D02*
X166474523Y-127660533D01*
X166474523Y-127660533D02*
X166426904Y-127803390D01*
X166426904Y-127803390D02*
X165855476Y-128374819D01*
X165855476Y-128374819D02*
X166474523Y-128374819D01*
X166950714Y-128374819D02*
X167141190Y-128374819D01*
X167141190Y-128374819D02*
X167236428Y-128327200D01*
X167236428Y-128327200D02*
X167284047Y-128279580D01*
X167284047Y-128279580D02*
X167379285Y-128136723D01*
X167379285Y-128136723D02*
X167426904Y-127946247D01*
X167426904Y-127946247D02*
X167426904Y-127565295D01*
X167426904Y-127565295D02*
X167379285Y-127470057D01*
X167379285Y-127470057D02*
X167331666Y-127422438D01*
X167331666Y-127422438D02*
X167236428Y-127374819D01*
X167236428Y-127374819D02*
X167045952Y-127374819D01*
X167045952Y-127374819D02*
X166950714Y-127422438D01*
X166950714Y-127422438D02*
X166903095Y-127470057D01*
X166903095Y-127470057D02*
X166855476Y-127565295D01*
X166855476Y-127565295D02*
X166855476Y-127803390D01*
X166855476Y-127803390D02*
X166903095Y-127898628D01*
X166903095Y-127898628D02*
X166950714Y-127946247D01*
X166950714Y-127946247D02*
X167045952Y-127993866D01*
X167045952Y-127993866D02*
X167236428Y-127993866D01*
X167236428Y-127993866D02*
X167331666Y-127946247D01*
X167331666Y-127946247D02*
X167379285Y-127898628D01*
X167379285Y-127898628D02*
X167426904Y-127803390D01*
X184489819Y-62833333D02*
X185204104Y-62833333D01*
X185204104Y-62833333D02*
X185346961Y-62880952D01*
X185346961Y-62880952D02*
X185442200Y-62976190D01*
X185442200Y-62976190D02*
X185489819Y-63119047D01*
X185489819Y-63119047D02*
X185489819Y-63214285D01*
X185489819Y-61833333D02*
X185489819Y-62404761D01*
X185489819Y-62119047D02*
X184489819Y-62119047D01*
X184489819Y-62119047D02*
X184632676Y-62214285D01*
X184632676Y-62214285D02*
X184727914Y-62309523D01*
X184727914Y-62309523D02*
X184775533Y-62404761D01*
%TO.C,J3*%
D11*
X213695000Y-51920000D02*
X213695000Y-54680000D01*
X218885000Y-51920000D02*
X213695000Y-51920000D01*
X218885000Y-51920000D02*
X218885000Y-54680000D01*
X218885000Y-54680000D02*
X213695000Y-54680000D01*
X220155000Y-51920000D02*
X221535000Y-51920000D01*
X221535000Y-51920000D02*
X221535000Y-53300000D01*
%TO.C,R38*%
X147495000Y-111500000D02*
X148265000Y-111500000D01*
X155575000Y-111500000D02*
X154805000Y-111500000D01*
X148265000Y-110130000D02*
X154805000Y-110130000D01*
X154805000Y-112870000D01*
X148265000Y-112870000D01*
X148265000Y-110130000D01*
%TO.C,R9*%
X122785000Y-84630000D02*
X122785000Y-85400000D01*
X122785000Y-92710000D02*
X122785000Y-91940000D01*
X121415000Y-85400000D02*
X124155000Y-85400000D01*
X124155000Y-91940000D01*
X121415000Y-91940000D01*
X121415000Y-85400000D01*
%TO.C,C8*%
X70415000Y-81380000D02*
X73155000Y-81380000D01*
X70415000Y-86620000D02*
X70415000Y-81380000D01*
X73155000Y-81380000D02*
X73155000Y-86620000D01*
X73155000Y-86620000D02*
X70415000Y-86620000D01*
%TO.C,J2*%
X130125000Y-51870000D02*
X130125000Y-54630000D01*
X148015000Y-51870000D02*
X130125000Y-51870000D01*
X148015000Y-51870000D02*
X148015000Y-54630000D01*
X148015000Y-54630000D02*
X130125000Y-54630000D01*
X149285000Y-51870000D02*
X150665000Y-51870000D01*
X150665000Y-51870000D02*
X150665000Y-53250000D01*
%TO.C,C25*%
X223205000Y-74930000D02*
X225945000Y-74930000D01*
X223205000Y-80170000D02*
X223205000Y-74930000D01*
X225945000Y-74930000D02*
X225945000Y-80170000D01*
X225945000Y-80170000D02*
X223205000Y-80170000D01*
%TO.C,R32*%
X186785000Y-124210000D02*
X186785000Y-124980000D01*
X186785000Y-132290000D02*
X186785000Y-131520000D01*
X185415000Y-124980000D02*
X188155000Y-124980000D01*
X188155000Y-131520000D01*
X185415000Y-131520000D01*
X185415000Y-124980000D01*
%TO.C,C14*%
X146915000Y-120880000D02*
X149655000Y-120880000D01*
X146915000Y-126120000D02*
X146915000Y-120880000D01*
X149655000Y-120880000D02*
X149655000Y-126120000D01*
X149655000Y-126120000D02*
X146915000Y-126120000D01*
%TO.C,R25*%
X138285000Y-123290000D02*
X138285000Y-124060000D01*
X138285000Y-131370000D02*
X138285000Y-130600000D01*
X136915000Y-124060000D02*
X139655000Y-124060000D01*
X139655000Y-130600000D01*
X136915000Y-130600000D01*
X136915000Y-124060000D01*
%TO.C,R4*%
X171285000Y-85130000D02*
X171285000Y-85900000D01*
X171285000Y-93210000D02*
X171285000Y-92440000D01*
X169915000Y-85900000D02*
X172655000Y-85900000D01*
X172655000Y-92440000D01*
X169915000Y-92440000D01*
X169915000Y-85900000D01*
%TO.C,R2*%
X183285000Y-85130000D02*
X183285000Y-85900000D01*
X183285000Y-93210000D02*
X183285000Y-92440000D01*
X181915000Y-85900000D02*
X184655000Y-85900000D01*
X184655000Y-92440000D01*
X181915000Y-92440000D01*
X181915000Y-85900000D01*
%TO.C,R1*%
X186285000Y-85130000D02*
X186285000Y-85900000D01*
X186285000Y-93210000D02*
X186285000Y-92440000D01*
X184915000Y-85900000D02*
X187655000Y-85900000D01*
X187655000Y-92440000D01*
X184915000Y-92440000D01*
X184915000Y-85900000D01*
%TO.C,SW13*%
X99165000Y-137350000D02*
X99165000Y-135150000D01*
X99785000Y-133130000D02*
X104785000Y-133130000D01*
X99785000Y-139370000D02*
X104785000Y-139370000D01*
X105405000Y-135150000D02*
X105405000Y-137350000D01*
X104035000Y-136250000D02*
G75*
G02*
X100535000Y-136250000I-1750000J0D01*
G01*
X100535000Y-136250000D02*
G75*
G02*
X104035000Y-136250000I1750000J0D01*
G01*
%TO.C,R13*%
X92285000Y-84130000D02*
X92285000Y-84900000D01*
X92285000Y-92210000D02*
X92285000Y-91440000D01*
X90915000Y-84900000D02*
X93655000Y-84900000D01*
X93655000Y-91440000D01*
X90915000Y-91440000D01*
X90915000Y-84900000D01*
%TO.C,R12*%
X110535000Y-84380000D02*
X110535000Y-85150000D01*
X110535000Y-92460000D02*
X110535000Y-91690000D01*
X109165000Y-85150000D02*
X111905000Y-85150000D01*
X111905000Y-91690000D01*
X109165000Y-91690000D01*
X109165000Y-85150000D01*
%TO.C,R22*%
X111035000Y-122880000D02*
X111035000Y-123650000D01*
X111035000Y-130960000D02*
X111035000Y-130190000D01*
X109665000Y-123650000D02*
X112405000Y-123650000D01*
X112405000Y-130190000D01*
X109665000Y-130190000D01*
X109665000Y-123650000D01*
%TO.C,Y1*%
X227600000Y-113200000D02*
X227600000Y-106800000D01*
X232470000Y-106800000D02*
X232470000Y-113200000D01*
X227600000Y-106800000D02*
G75*
G02*
X232470000Y-106800000I2435000J0D01*
G01*
X232470000Y-113200000D02*
G75*
G02*
X227600000Y-113200000I-2435000J0D01*
G01*
%TO.C,R33*%
X115535000Y-59040000D02*
X115535000Y-59810000D01*
X115535000Y-67120000D02*
X115535000Y-66350000D01*
X114165000Y-59810000D02*
X116905000Y-59810000D01*
X116905000Y-66350000D01*
X114165000Y-66350000D01*
X114165000Y-59810000D01*
%TO.C,R27*%
X153285000Y-123710000D02*
X153285000Y-124480000D01*
X153285000Y-131790000D02*
X153285000Y-131020000D01*
X151915000Y-124480000D02*
X154655000Y-124480000D01*
X154655000Y-131020000D01*
X151915000Y-131020000D01*
X151915000Y-124480000D01*
%TO.C,C13*%
X131915000Y-120880000D02*
X134655000Y-120880000D01*
X131915000Y-126120000D02*
X131915000Y-120880000D01*
X134655000Y-120880000D02*
X134655000Y-126120000D01*
X134655000Y-126120000D02*
X131915000Y-126120000D01*
%TO.C,R34*%
X110535000Y-59040000D02*
X110535000Y-59810000D01*
X110535000Y-67120000D02*
X110535000Y-66350000D01*
X109165000Y-59810000D02*
X111905000Y-59810000D01*
X111905000Y-66350000D01*
X109165000Y-66350000D01*
X109165000Y-59810000D01*
%TO.C,R6*%
X156285000Y-85130000D02*
X156285000Y-85900000D01*
X156285000Y-93210000D02*
X156285000Y-92440000D01*
X154915000Y-85900000D02*
X157655000Y-85900000D01*
X157655000Y-92440000D01*
X154915000Y-92440000D01*
X154915000Y-85900000D01*
%TO.C,SW14*%
X114415000Y-137680000D02*
X114415000Y-135480000D01*
X115035000Y-133460000D02*
X120035000Y-133460000D01*
X115035000Y-139700000D02*
X120035000Y-139700000D01*
X120655000Y-135480000D02*
X120655000Y-137680000D01*
X119285000Y-136580000D02*
G75*
G02*
X115785000Y-136580000I-1750000J0D01*
G01*
X115785000Y-136580000D02*
G75*
G02*
X119285000Y-136580000I1750000J0D01*
G01*
%TO.C,SW10*%
X67915000Y-98600000D02*
X67915000Y-96400000D01*
X68535000Y-94380000D02*
X73535000Y-94380000D01*
X68535000Y-100620000D02*
X73535000Y-100620000D01*
X74155000Y-96400000D02*
X74155000Y-98600000D01*
X72785000Y-97500000D02*
G75*
G02*
X69285000Y-97500000I-1750000J0D01*
G01*
X69285000Y-97500000D02*
G75*
G02*
X72785000Y-97500000I1750000J0D01*
G01*
%TO.C,C24*%
X201705000Y-64430000D02*
X204445000Y-64430000D01*
X201705000Y-69670000D02*
X201705000Y-64430000D01*
X204445000Y-64430000D02*
X204445000Y-69670000D01*
X204445000Y-69670000D02*
X201705000Y-69670000D01*
%TO.C,R14*%
X95285000Y-84130000D02*
X95285000Y-84900000D01*
X95285000Y-92210000D02*
X95285000Y-91440000D01*
X93915000Y-84900000D02*
X96655000Y-84900000D01*
X96655000Y-91440000D01*
X93915000Y-91440000D01*
X93915000Y-84900000D01*
%TO.C,C9*%
X70915000Y-119880000D02*
X73655000Y-119880000D01*
X70915000Y-125120000D02*
X70915000Y-119880000D01*
X73655000Y-119880000D02*
X73655000Y-125120000D01*
X73655000Y-125120000D02*
X70915000Y-125120000D01*
%TO.C,R26*%
X141285000Y-123290000D02*
X141285000Y-124060000D01*
X141285000Y-131370000D02*
X141285000Y-130600000D01*
X139915000Y-124060000D02*
X142655000Y-124060000D01*
X142655000Y-130600000D01*
X139915000Y-130600000D01*
X139915000Y-124060000D01*
%TO.C,C6*%
X101165000Y-81550000D02*
X103905000Y-81550000D01*
X101165000Y-86790000D02*
X101165000Y-81550000D01*
X103905000Y-81550000D02*
X103905000Y-86790000D01*
X103905000Y-86790000D02*
X101165000Y-86790000D01*
%TO.C,SW9*%
X83415000Y-98600000D02*
X83415000Y-96400000D01*
X84035000Y-94380000D02*
X89035000Y-94380000D01*
X84035000Y-100620000D02*
X89035000Y-100620000D01*
X89655000Y-96400000D02*
X89655000Y-98600000D01*
X88285000Y-97500000D02*
G75*
G02*
X84785000Y-97500000I-1750000J0D01*
G01*
X84785000Y-97500000D02*
G75*
G02*
X88285000Y-97500000I1750000J0D01*
G01*
%TO.C,R28*%
X156285000Y-123710000D02*
X156285000Y-124480000D01*
X156285000Y-131790000D02*
X156285000Y-131020000D01*
X154915000Y-124480000D02*
X157655000Y-124480000D01*
X157655000Y-131020000D01*
X154915000Y-131020000D01*
X154915000Y-124480000D01*
%TO.C,R31*%
X183785000Y-124210000D02*
X183785000Y-124980000D01*
X183785000Y-132290000D02*
X183785000Y-131520000D01*
X182415000Y-124980000D02*
X185155000Y-124980000D01*
X185155000Y-131520000D01*
X182415000Y-131520000D01*
X182415000Y-124980000D01*
%TO.C,SW6*%
X129165000Y-99350000D02*
X129165000Y-97150000D01*
X129785000Y-95130000D02*
X134785000Y-95130000D01*
X129785000Y-101370000D02*
X134785000Y-101370000D01*
X135405000Y-97150000D02*
X135405000Y-99350000D01*
X134035000Y-98250000D02*
G75*
G02*
X130535000Y-98250000I-1750000J0D01*
G01*
X130535000Y-98250000D02*
G75*
G02*
X134035000Y-98250000I1750000J0D01*
G01*
%TO.C,C3*%
X146415000Y-82380000D02*
X149155000Y-82380000D01*
X146415000Y-87620000D02*
X146415000Y-82380000D01*
X149155000Y-82380000D02*
X149155000Y-87620000D01*
X149155000Y-87620000D02*
X146415000Y-87620000D01*
%TO.C,R37*%
X232535000Y-82960000D02*
X232535000Y-83730000D01*
X232535000Y-91040000D02*
X232535000Y-90270000D01*
X231165000Y-83730000D02*
X233905000Y-83730000D01*
X233905000Y-90270000D01*
X231165000Y-90270000D01*
X231165000Y-83730000D01*
%TO.C,SW16*%
X144415000Y-138180000D02*
X144415000Y-135980000D01*
X145035000Y-133960000D02*
X150035000Y-133960000D01*
X145035000Y-140200000D02*
X150035000Y-140200000D01*
X150655000Y-135980000D02*
X150655000Y-138180000D01*
X149285000Y-137080000D02*
G75*
G02*
X145785000Y-137080000I-1750000J0D01*
G01*
X145785000Y-137080000D02*
G75*
G02*
X149285000Y-137080000I1750000J0D01*
G01*
%TO.C,C23*%
X200165000Y-139630000D02*
X202905000Y-139630000D01*
X200165000Y-144870000D02*
X200165000Y-139630000D01*
X202905000Y-139630000D02*
X202905000Y-144870000D01*
X202905000Y-144870000D02*
X200165000Y-144870000D01*
%TO.C,R7*%
X138035000Y-84880000D02*
X138035000Y-85650000D01*
X138035000Y-92960000D02*
X138035000Y-92190000D01*
X136665000Y-85650000D02*
X139405000Y-85650000D01*
X139405000Y-92190000D01*
X136665000Y-92190000D01*
X136665000Y-85650000D01*
%TO.C,U1*%
X203635000Y-96910000D02*
X203635000Y-132590000D01*
X203635000Y-132590000D02*
X205285000Y-132590000D01*
X207285000Y-132590000D02*
X208935000Y-132590000D01*
X208935000Y-96910000D02*
X203635000Y-96910000D01*
X208935000Y-132590000D02*
X208935000Y-96910000D01*
X205285000Y-132590000D02*
G75*
G02*
X207285000Y-132590000I1000000J0D01*
G01*
%TO.C,SW12*%
X83915000Y-137180000D02*
X83915000Y-134980000D01*
X84535000Y-132960000D02*
X89535000Y-132960000D01*
X84535000Y-139200000D02*
X89535000Y-139200000D01*
X90155000Y-134980000D02*
X90155000Y-137180000D01*
X88785000Y-136080000D02*
G75*
G02*
X85285000Y-136080000I-1750000J0D01*
G01*
X85285000Y-136080000D02*
G75*
G02*
X88785000Y-136080000I1750000J0D01*
G01*
%TO.C,C10*%
X86415000Y-120380000D02*
X89155000Y-120380000D01*
X86415000Y-125620000D02*
X86415000Y-120380000D01*
X89155000Y-120380000D02*
X89155000Y-125620000D01*
X89155000Y-125620000D02*
X86415000Y-125620000D01*
%TO.C,C12*%
X116915000Y-120880000D02*
X119655000Y-120880000D01*
X116915000Y-126120000D02*
X116915000Y-120880000D01*
X119655000Y-120880000D02*
X119655000Y-126120000D01*
X119655000Y-126120000D02*
X116915000Y-126120000D01*
%TO.C,R19*%
X92785000Y-122710000D02*
X92785000Y-123480000D01*
X92785000Y-130790000D02*
X92785000Y-130020000D01*
X91415000Y-123480000D02*
X94155000Y-123480000D01*
X94155000Y-130020000D01*
X91415000Y-130020000D01*
X91415000Y-123480000D01*
%TO.C,C26*%
X216165000Y-70930000D02*
X221405000Y-70930000D01*
X216165000Y-73670000D02*
X216165000Y-70930000D01*
X221405000Y-70930000D02*
X221405000Y-73670000D01*
X221405000Y-73670000D02*
X216165000Y-73670000D01*
%TO.C,R10*%
X125785000Y-84630000D02*
X125785000Y-85400000D01*
X125785000Y-92710000D02*
X125785000Y-91940000D01*
X124415000Y-85400000D02*
X127155000Y-85400000D01*
X127155000Y-91940000D01*
X124415000Y-91940000D01*
X124415000Y-85400000D01*
%TO.C,C16*%
X177415000Y-121880000D02*
X180155000Y-121880000D01*
X177415000Y-127120000D02*
X177415000Y-121880000D01*
X180155000Y-121880000D02*
X180155000Y-127120000D01*
X180155000Y-127120000D02*
X177415000Y-127120000D01*
%TO.C,RV1*%
X220580000Y-130610000D02*
X230330000Y-130610000D01*
X220580000Y-140360000D02*
X220580000Y-130610000D01*
X230330000Y-130610000D02*
X230330000Y-140360000D01*
X230330000Y-140360000D02*
X220580000Y-140360000D01*
%TO.C,C27*%
X209705000Y-70930000D02*
X214945000Y-70930000D01*
X209705000Y-73670000D02*
X209705000Y-70930000D01*
X214945000Y-70930000D02*
X214945000Y-73670000D01*
X214945000Y-73670000D02*
X209705000Y-73670000D01*
%TO.C,SW3*%
X174415000Y-99600000D02*
X174415000Y-97400000D01*
X175035000Y-95380000D02*
X180035000Y-95380000D01*
X175035000Y-101620000D02*
X180035000Y-101620000D01*
X180655000Y-97400000D02*
X180655000Y-99600000D01*
X179285000Y-98500000D02*
G75*
G02*
X175785000Y-98500000I-1750000J0D01*
G01*
X175785000Y-98500000D02*
G75*
G02*
X179285000Y-98500000I1750000J0D01*
G01*
%TO.C,R35*%
X157665000Y-53250000D02*
X158435000Y-53250000D01*
X165745000Y-53250000D02*
X164975000Y-53250000D01*
X158435000Y-51880000D02*
X164975000Y-51880000D01*
X164975000Y-54620000D01*
X158435000Y-54620000D01*
X158435000Y-51880000D01*
%TO.C,R18*%
X80285000Y-122130000D02*
X80285000Y-122900000D01*
X80285000Y-130210000D02*
X80285000Y-129440000D01*
X78915000Y-122900000D02*
X81655000Y-122900000D01*
X81655000Y-129440000D01*
X78915000Y-129440000D01*
X78915000Y-122900000D01*
%TO.C,R17*%
X77285000Y-122130000D02*
X77285000Y-122900000D01*
X77285000Y-130210000D02*
X77285000Y-129440000D01*
X75915000Y-122900000D02*
X78655000Y-122900000D01*
X78655000Y-129440000D01*
X75915000Y-129440000D01*
X75915000Y-122900000D01*
%TO.C,SW11*%
X68415000Y-136600000D02*
X68415000Y-134400000D01*
X69035000Y-132380000D02*
X74035000Y-132380000D01*
X69035000Y-138620000D02*
X74035000Y-138620000D01*
X74655000Y-134400000D02*
X74655000Y-136600000D01*
X73285000Y-135500000D02*
G75*
G02*
X69785000Y-135500000I-1750000J0D01*
G01*
X69785000Y-135500000D02*
G75*
G02*
X73285000Y-135500000I1750000J0D01*
G01*
%TO.C,SW15*%
X129415000Y-137760000D02*
X129415000Y-135560000D01*
X130035000Y-133540000D02*
X135035000Y-133540000D01*
X130035000Y-139780000D02*
X135035000Y-139780000D01*
X135655000Y-135560000D02*
X135655000Y-137760000D01*
X134285000Y-136660000D02*
G75*
G02*
X130785000Y-136660000I-1750000J0D01*
G01*
X130785000Y-136660000D02*
G75*
G02*
X134285000Y-136660000I1750000J0D01*
G01*
%TO.C,SW5*%
X144415000Y-99600000D02*
X144415000Y-97400000D01*
X145035000Y-95380000D02*
X150035000Y-95380000D01*
X145035000Y-101620000D02*
X150035000Y-101620000D01*
X150655000Y-97400000D02*
X150655000Y-99600000D01*
X149285000Y-98500000D02*
G75*
G02*
X145785000Y-98500000I-1750000J0D01*
G01*
X145785000Y-98500000D02*
G75*
G02*
X149285000Y-98500000I1750000J0D01*
G01*
%TO.C,R3*%
X168285000Y-85130000D02*
X168285000Y-85900000D01*
X168285000Y-93210000D02*
X168285000Y-92440000D01*
X166915000Y-85900000D02*
X169655000Y-85900000D01*
X169655000Y-92440000D01*
X166915000Y-92440000D01*
X166915000Y-85900000D01*
%TO.C,C2*%
X161665000Y-82630000D02*
X164405000Y-82630000D01*
X161665000Y-87870000D02*
X161665000Y-82630000D01*
X164405000Y-82630000D02*
X164405000Y-87870000D01*
X164405000Y-87870000D02*
X161665000Y-87870000D01*
%TO.C,C4*%
X131415000Y-82380000D02*
X134155000Y-82380000D01*
X131415000Y-87620000D02*
X131415000Y-82380000D01*
X134155000Y-82380000D02*
X134155000Y-87620000D01*
X134155000Y-87620000D02*
X131415000Y-87620000D01*
%TO.C,U3*%
X106975000Y-108910000D02*
X106975000Y-110560000D01*
X106975000Y-112560000D02*
X106975000Y-114210000D01*
X106975000Y-114210000D02*
X142655000Y-114210000D01*
X142655000Y-108910000D02*
X106975000Y-108910000D01*
X142655000Y-114210000D02*
X142655000Y-108910000D01*
X106975000Y-110560000D02*
G75*
G02*
X106975000Y-112560000I0J-1000000D01*
G01*
%TO.C,U2*%
X208465000Y-61960000D02*
X208465000Y-63610000D01*
X208465000Y-65610000D02*
X208465000Y-67260000D01*
X208465000Y-67260000D02*
X228905000Y-67260000D01*
X228905000Y-61960000D02*
X208465000Y-61960000D01*
X228905000Y-67260000D02*
X228905000Y-61960000D01*
X208465000Y-63610000D02*
G75*
G02*
X208465000Y-65610000I0J-1000000D01*
G01*
%TO.C,C20*%
X195165000Y-139630000D02*
X197905000Y-139630000D01*
X195165000Y-144870000D02*
X195165000Y-139630000D01*
X197905000Y-139630000D02*
X197905000Y-144870000D01*
X197905000Y-144870000D02*
X195165000Y-144870000D01*
%TO.C,C5*%
X116415000Y-81880000D02*
X119155000Y-81880000D01*
X116415000Y-87120000D02*
X116415000Y-81880000D01*
X119155000Y-81880000D02*
X119155000Y-87120000D01*
X119155000Y-87120000D02*
X116415000Y-87120000D01*
%TO.C,C22*%
X205165000Y-139630000D02*
X207905000Y-139630000D01*
X205165000Y-144870000D02*
X205165000Y-139630000D01*
X207905000Y-139630000D02*
X207905000Y-144870000D01*
X207905000Y-144870000D02*
X205165000Y-144870000D01*
%TO.C,C17*%
X235415000Y-106130000D02*
X240655000Y-106130000D01*
X235415000Y-108870000D02*
X235415000Y-106130000D01*
X240655000Y-106130000D02*
X240655000Y-108870000D01*
X240655000Y-108870000D02*
X235415000Y-108870000D01*
%TO.C,R16*%
X79785000Y-84130000D02*
X79785000Y-84900000D01*
X79785000Y-92210000D02*
X79785000Y-91440000D01*
X78415000Y-84900000D02*
X81155000Y-84900000D01*
X81155000Y-91440000D01*
X78415000Y-91440000D01*
X78415000Y-84900000D01*
%TO.C,C15*%
X162415000Y-121380000D02*
X165155000Y-121380000D01*
X162415000Y-126620000D02*
X162415000Y-121380000D01*
X165155000Y-121380000D02*
X165155000Y-126620000D01*
X165155000Y-126620000D02*
X162415000Y-126620000D01*
%TO.C,R5*%
X153285000Y-85130000D02*
X153285000Y-85900000D01*
X153285000Y-93210000D02*
X153285000Y-92440000D01*
X151915000Y-85900000D02*
X154655000Y-85900000D01*
X154655000Y-92440000D01*
X151915000Y-92440000D01*
X151915000Y-85900000D01*
%TO.C,R11*%
X107535000Y-84380000D02*
X107535000Y-85150000D01*
X107535000Y-92460000D02*
X107535000Y-91690000D01*
X106165000Y-85150000D02*
X108905000Y-85150000D01*
X108905000Y-91690000D01*
X106165000Y-91690000D01*
X106165000Y-85150000D01*
%TO.C,R8*%
X141035000Y-84880000D02*
X141035000Y-85650000D01*
X141035000Y-92960000D02*
X141035000Y-92190000D01*
X139665000Y-85650000D02*
X142405000Y-85650000D01*
X142405000Y-92190000D01*
X139665000Y-92190000D01*
X139665000Y-85650000D01*
%TO.C,R30*%
X171535000Y-123880000D02*
X171535000Y-124650000D01*
X171535000Y-131960000D02*
X171535000Y-131190000D01*
X170165000Y-124650000D02*
X172905000Y-124650000D01*
X172905000Y-131190000D01*
X170165000Y-131190000D01*
X170165000Y-124650000D01*
%TO.C,SW17*%
X159665000Y-138350000D02*
X159665000Y-136150000D01*
X160285000Y-134130000D02*
X165285000Y-134130000D01*
X160285000Y-140370000D02*
X165285000Y-140370000D01*
X165905000Y-136150000D02*
X165905000Y-138350000D01*
X164535000Y-137250000D02*
G75*
G02*
X161035000Y-137250000I-1750000J0D01*
G01*
X161035000Y-137250000D02*
G75*
G02*
X164535000Y-137250000I1750000J0D01*
G01*
%TO.C,C1*%
X176415000Y-82630000D02*
X179155000Y-82630000D01*
X176415000Y-87870000D02*
X176415000Y-82630000D01*
X179155000Y-82630000D02*
X179155000Y-87870000D01*
X179155000Y-87870000D02*
X176415000Y-87870000D01*
%TO.C,D2*%
X111435000Y-51264000D02*
X111435000Y-51420000D01*
X111435000Y-53580000D02*
X111435000Y-53736000D01*
X111435000Y-51264484D02*
G75*
G02*
X114666437Y-51420000I1560000J-1235516D01*
G01*
X111954039Y-51420000D02*
G75*
G02*
X114035961Y-51420000I1040961J-1080000D01*
G01*
X114035961Y-53580000D02*
G75*
G02*
X111954039Y-53580000I-1040961J1080000D01*
G01*
X114666437Y-53580000D02*
G75*
G02*
X111435000Y-53735516I-1671437J1080000D01*
G01*
%TO.C,R23*%
X123285000Y-123210000D02*
X123285000Y-123980000D01*
X123285000Y-131290000D02*
X123285000Y-130520000D01*
X121915000Y-123980000D02*
X124655000Y-123980000D01*
X124655000Y-130520000D01*
X121915000Y-130520000D01*
X121915000Y-123980000D01*
%TO.C,R21*%
X108035000Y-122880000D02*
X108035000Y-123650000D01*
X108035000Y-130960000D02*
X108035000Y-130190000D01*
X106665000Y-123650000D02*
X109405000Y-123650000D01*
X109405000Y-130190000D01*
X106665000Y-130190000D01*
X106665000Y-123650000D01*
%TO.C,R20*%
X95785000Y-122710000D02*
X95785000Y-123480000D01*
X95785000Y-130790000D02*
X95785000Y-130020000D01*
X94415000Y-123480000D02*
X97155000Y-123480000D01*
X97155000Y-130020000D01*
X94415000Y-130020000D01*
X94415000Y-123480000D01*
%TO.C,SW4*%
X159415000Y-99600000D02*
X159415000Y-97400000D01*
X160035000Y-95380000D02*
X165035000Y-95380000D01*
X160035000Y-101620000D02*
X165035000Y-101620000D01*
X165655000Y-97400000D02*
X165655000Y-99600000D01*
X164285000Y-98500000D02*
G75*
G02*
X160785000Y-98500000I-1750000J0D01*
G01*
X160785000Y-98500000D02*
G75*
G02*
X164285000Y-98500000I1750000J0D01*
G01*
%TO.C,C19*%
X195165000Y-107130000D02*
X197905000Y-107130000D01*
X195165000Y-112370000D02*
X195165000Y-107130000D01*
X197905000Y-107130000D02*
X197905000Y-112370000D01*
X197905000Y-112370000D02*
X195165000Y-112370000D01*
%TO.C,R15*%
X76785000Y-84130000D02*
X76785000Y-84900000D01*
X76785000Y-92210000D02*
X76785000Y-91440000D01*
X75415000Y-84900000D02*
X78155000Y-84900000D01*
X78155000Y-91440000D01*
X75415000Y-91440000D01*
X75415000Y-84900000D01*
%TO.C,SW8*%
X98665000Y-98850000D02*
X98665000Y-96650000D01*
X99285000Y-94630000D02*
X104285000Y-94630000D01*
X99285000Y-100870000D02*
X104285000Y-100870000D01*
X104905000Y-96650000D02*
X104905000Y-98850000D01*
X103535000Y-97750000D02*
G75*
G02*
X100035000Y-97750000I-1750000J0D01*
G01*
X100035000Y-97750000D02*
G75*
G02*
X103535000Y-97750000I1750000J0D01*
G01*
%TO.C,R24*%
X126285000Y-123210000D02*
X126285000Y-123980000D01*
X126285000Y-131290000D02*
X126285000Y-130520000D01*
X124915000Y-123980000D02*
X127655000Y-123980000D01*
X127655000Y-130520000D01*
X124915000Y-130520000D01*
X124915000Y-123980000D01*
%TO.C,SW1*%
X67665000Y-69350000D02*
X67665000Y-67150000D01*
X68285000Y-65130000D02*
X73285000Y-65130000D01*
X68285000Y-71370000D02*
X73285000Y-71370000D01*
X73905000Y-67150000D02*
X73905000Y-69350000D01*
X72535000Y-68250000D02*
G75*
G02*
X69035000Y-68250000I-1750000J0D01*
G01*
X69035000Y-68250000D02*
G75*
G02*
X72535000Y-68250000I1750000J0D01*
G01*
%TO.C,C21*%
X190165000Y-139630000D02*
X192905000Y-139630000D01*
X190165000Y-144870000D02*
X190165000Y-139630000D01*
X192905000Y-139630000D02*
X192905000Y-144870000D01*
X192905000Y-144870000D02*
X190165000Y-144870000D01*
%TO.C,SW2*%
X83415000Y-69600000D02*
X83415000Y-67400000D01*
X84035000Y-65380000D02*
X89035000Y-65380000D01*
X84035000Y-71620000D02*
X89035000Y-71620000D01*
X89655000Y-67400000D02*
X89655000Y-69600000D01*
X88285000Y-68500000D02*
G75*
G02*
X84785000Y-68500000I-1750000J0D01*
G01*
X84785000Y-68500000D02*
G75*
G02*
X88285000Y-68500000I1750000J0D01*
G01*
%TO.C,SW18*%
X174915000Y-138680000D02*
X174915000Y-136480000D01*
X175535000Y-134460000D02*
X180535000Y-134460000D01*
X175535000Y-140700000D02*
X180535000Y-140700000D01*
X181155000Y-136480000D02*
X181155000Y-138680000D01*
X179785000Y-137580000D02*
G75*
G02*
X176285000Y-137580000I-1750000J0D01*
G01*
X176285000Y-137580000D02*
G75*
G02*
X179785000Y-137580000I1750000J0D01*
G01*
%TO.C,C11*%
X101415000Y-120380000D02*
X104155000Y-120380000D01*
X101415000Y-125620000D02*
X101415000Y-120380000D01*
X104155000Y-120380000D02*
X104155000Y-125620000D01*
X104155000Y-125620000D02*
X101415000Y-125620000D01*
%TO.C,RV2*%
X236120000Y-130610000D02*
X245870000Y-130610000D01*
X236120000Y-140360000D02*
X236120000Y-130610000D01*
X245870000Y-130610000D02*
X245870000Y-140360000D01*
X245870000Y-140360000D02*
X236120000Y-140360000D01*
%TO.C,R36*%
X239535000Y-82880000D02*
X239535000Y-83650000D01*
X239535000Y-90960000D02*
X239535000Y-90190000D01*
X238165000Y-83650000D02*
X240905000Y-83650000D01*
X240905000Y-90190000D01*
X238165000Y-90190000D01*
X238165000Y-83650000D01*
%TO.C,C7*%
X85915000Y-81300000D02*
X88655000Y-81300000D01*
X85915000Y-86540000D02*
X85915000Y-81300000D01*
X88655000Y-81300000D02*
X88655000Y-86540000D01*
X88655000Y-86540000D02*
X85915000Y-86540000D01*
%TO.C,SW7*%
X113915000Y-99100000D02*
X113915000Y-96900000D01*
X114535000Y-94880000D02*
X119535000Y-94880000D01*
X114535000Y-101120000D02*
X119535000Y-101120000D01*
X120155000Y-96900000D02*
X120155000Y-99100000D01*
X118785000Y-98000000D02*
G75*
G02*
X115285000Y-98000000I-1750000J0D01*
G01*
X115285000Y-98000000D02*
G75*
G02*
X118785000Y-98000000I1750000J0D01*
G01*
%TO.C,C18*%
X235415000Y-111130000D02*
X240655000Y-111130000D01*
X235415000Y-113870000D02*
X235415000Y-111130000D01*
X240655000Y-111130000D02*
X240655000Y-113870000D01*
X240655000Y-113870000D02*
X235415000Y-113870000D01*
%TO.C,R29*%
X168535000Y-123880000D02*
X168535000Y-124650000D01*
X168535000Y-131960000D02*
X168535000Y-131190000D01*
X167165000Y-124650000D02*
X169905000Y-124650000D01*
X169905000Y-131190000D01*
X167165000Y-131190000D01*
X167165000Y-124650000D01*
%TO.C,J1*%
X178835000Y-65600000D02*
X178835000Y-68400000D01*
X178835000Y-65600000D02*
X179955000Y-65600000D01*
X178835000Y-68400000D02*
X179955000Y-68400000D01*
X177535000Y-52000000D02*
X192535000Y-52000000D01*
X192535000Y-70000000D01*
X177535000Y-70000000D01*
X177535000Y-52000000D01*
X181035000Y-52000000D02*
X189035000Y-52000000D01*
X189035000Y-55000000D01*
X181035000Y-55000000D01*
X181035000Y-52000000D01*
%TD*%
M02*
