M48
; DRILL file KiCad 10.0.0 date 2026-04-13T09:53:23
; FORMAT={-:-/ absolute / metric / decimal}
; #@! TF.CreationDate,2026-04-13T09:53:23-04:00
; #@! TF.GenerationSoftware,Kicad,Pcbnew,10.0.0
; #@! TF.FileFunction,Plated,1,2,PTH
FMAT,2
METRIC
; #@! TA.AperFunction,Plated,PTH,ViaDrill
T1C0.200
; #@! TA.AperFunction,Plated,PTH,ViaDrill
T2C0.300
; #@! TA.AperFunction,Plated,PTH,ComponentDrill
T3C0.800
; #@! TA.AperFunction,Plated,PTH,ComponentDrill
T4C0.900
; #@! TA.AperFunction,Plated,PTH,ComponentDrill
T5C1.000
%
G90
G05
T1
X66.2Y-47.7
X66.2Y-48.7
X66.2Y-49.7
X66.2Y-50.6
X66.2Y-51.6
X66.2Y-52.6
X66.2Y-53.6
X66.2Y-54.6
X66.2Y-55.6
X66.2Y-56.7
X66.2Y-57.7
X66.2Y-58.7
X66.2Y-59.7
X66.2Y-60.7
X66.2Y-61.7
X66.5Y-87.2
X66.5Y-88.2
X66.5Y-89.2
X66.5Y-90.1
X66.5Y-91.1
X66.5Y-92.1
X66.7Y-104.0
X66.7Y-105.0
X66.7Y-106.0
X66.7Y-106.9
X66.7Y-107.9
X66.7Y-108.9
X66.7Y-109.9
X66.7Y-110.9
X66.7Y-111.9
X66.7Y-112.8
X66.7Y-113.8
X66.7Y-114.8
X66.8Y-77.9
X66.8Y-78.9
X66.8Y-79.9
X67.1Y-47.7
X67.1Y-48.7
X67.1Y-49.7
X67.1Y-50.6
X67.1Y-51.6
X67.1Y-52.6
X67.1Y-53.6
X67.1Y-54.6
X67.1Y-55.6
X67.1Y-56.7
X67.1Y-57.7
X67.1Y-58.7
X67.1Y-59.7
X67.1Y-60.7
X67.1Y-61.7
X67.3Y-143.4
X67.3Y-144.4
X67.3Y-145.4
X67.4Y-87.2
X67.4Y-88.2
X67.4Y-89.2
X67.4Y-90.1
X67.4Y-91.1
X67.4Y-92.1
X67.6Y-104.0
X67.6Y-105.0
X67.6Y-106.0
X67.6Y-106.9
X67.6Y-107.9
X67.6Y-108.9
X67.6Y-109.9
X67.6Y-110.9
X67.6Y-111.9
X67.6Y-112.8
X67.6Y-113.8
X67.6Y-114.8
X67.7Y-77.9
X67.7Y-78.9
X67.7Y-79.9
X68.0Y-47.7
X68.0Y-48.7
X68.0Y-49.7
X68.0Y-50.6
X68.0Y-51.6
X68.0Y-52.6
X68.0Y-53.6
X68.0Y-54.6
X68.0Y-55.6
X68.0Y-56.7
X68.0Y-57.7
X68.0Y-58.7
X68.0Y-59.7
X68.0Y-60.7
X68.0Y-61.7
X68.2Y-143.4
X68.2Y-144.4
X68.2Y-145.4
X68.3Y-87.2
X68.3Y-88.2
X68.3Y-89.2
X68.3Y-90.1
X68.3Y-91.1
X68.3Y-92.1
X68.5Y-104.0
X68.5Y-105.0
X68.5Y-106.0
X68.5Y-106.9
X68.5Y-107.9
X68.5Y-108.9
X68.5Y-109.9
X68.5Y-110.9
X68.5Y-111.9
X68.5Y-112.8
X68.5Y-113.8
X68.5Y-114.8
X68.6Y-77.9
X68.6Y-78.9
X68.6Y-79.9
X68.7Y-126.7
X68.7Y-127.7
X68.7Y-128.7
X68.9Y-47.7
X68.9Y-48.7
X68.9Y-49.7
X68.9Y-50.6
X68.9Y-51.6
X68.9Y-52.6
X68.9Y-53.6
X68.9Y-54.6
X68.9Y-55.6
X68.9Y-56.7
X68.9Y-57.7
X68.9Y-58.7
X68.9Y-59.7
X68.9Y-60.7
X68.9Y-61.7
X69.1Y-143.4
X69.1Y-144.4
X69.1Y-145.4
X69.2Y-87.2
X69.2Y-88.2
X69.2Y-89.2
X69.2Y-90.1
X69.2Y-91.1
X69.2Y-92.1
X69.4Y-104.0
X69.4Y-105.0
X69.4Y-106.0
X69.4Y-106.9
X69.4Y-107.9
X69.4Y-108.9
X69.4Y-109.9
X69.4Y-110.9
X69.4Y-111.9
X69.4Y-112.8
X69.4Y-113.8
X69.4Y-114.8
X69.5Y-77.9
X69.5Y-78.9
X69.5Y-79.9
X69.6Y-126.7
X69.6Y-127.7
X69.6Y-128.7
X69.9Y-47.7
X69.9Y-48.7
X69.9Y-49.7
X69.9Y-50.6
X69.9Y-51.6
X69.9Y-52.6
X69.9Y-53.6
X69.9Y-54.6
X69.9Y-55.6
X69.9Y-56.7
X69.9Y-57.7
X69.9Y-58.7
X69.9Y-59.7
X69.9Y-60.7
X69.9Y-61.7
X70.0Y-143.4
X70.0Y-144.4
X70.0Y-145.4
X70.2Y-87.2
X70.2Y-88.2
X70.2Y-89.2
X70.2Y-90.1
X70.2Y-91.1
X70.2Y-92.1
X70.4Y-104.0
X70.4Y-105.0
X70.4Y-106.0
X70.4Y-106.9
X70.4Y-107.9
X70.4Y-108.9
X70.4Y-109.9
X70.4Y-110.9
X70.4Y-111.9
X70.4Y-112.8
X70.4Y-113.8
X70.4Y-114.8
X70.5Y-77.9
X70.5Y-78.9
X70.5Y-79.9
X70.7Y-126.7
X70.7Y-127.7
X70.7Y-128.7
X71.0Y-47.7
X71.0Y-48.7
X71.0Y-49.7
X71.0Y-50.6
X71.0Y-51.6
X71.0Y-52.6
X71.0Y-53.6
X71.0Y-54.6
X71.0Y-55.6
X71.0Y-56.7
X71.0Y-57.7
X71.0Y-58.7
X71.0Y-59.7
X71.0Y-60.7
X71.0Y-61.7
X71.0Y-143.4
X71.0Y-144.4
X71.0Y-145.4
X71.5Y-104.0
X71.5Y-105.0
X71.5Y-106.0
X71.5Y-106.9
X71.5Y-107.9
X71.5Y-108.9
X71.5Y-109.9
X71.5Y-110.9
X71.5Y-111.9
X71.5Y-112.8
X71.5Y-113.8
X71.5Y-114.8
X71.6Y-77.9
X71.6Y-78.9
X71.6Y-79.9
X71.9Y-47.7
X71.9Y-48.7
X71.9Y-49.7
X71.9Y-50.6
X71.9Y-51.6
X71.9Y-52.6
X71.9Y-53.6
X71.9Y-54.6
X71.9Y-55.6
X71.9Y-56.7
X71.9Y-57.7
X71.9Y-58.7
X71.9Y-59.7
X71.9Y-60.7
X71.9Y-61.7
X72.1Y-143.4
X72.1Y-144.4
X72.1Y-145.4
X72.4Y-104.0
X72.4Y-105.0
X72.4Y-106.0
X72.4Y-106.9
X72.4Y-107.9
X72.4Y-108.9
X72.4Y-109.9
X72.4Y-110.9
X72.4Y-111.9
X72.4Y-112.8
X72.4Y-113.8
X72.4Y-114.8
X72.5Y-77.9
X72.5Y-78.9
X72.5Y-79.9
X72.8Y-47.7
X72.8Y-48.7
X72.8Y-49.7
X72.8Y-50.6
X72.8Y-51.6
X72.8Y-52.6
X72.8Y-53.6
X72.8Y-54.6
X72.8Y-55.6
X72.8Y-56.7
X72.8Y-57.7
X72.8Y-58.7
X72.8Y-59.7
X72.8Y-60.7
X72.8Y-61.7
X73.0Y-143.4
X73.0Y-144.4
X73.0Y-145.4
X73.3Y-104.0
X73.3Y-105.0
X73.3Y-106.0
X73.3Y-106.9
X73.3Y-107.9
X73.3Y-108.9
X73.3Y-109.9
X73.3Y-110.9
X73.3Y-111.9
X73.3Y-112.8
X73.3Y-113.8
X73.3Y-114.8
X73.4Y-77.9
X73.4Y-78.9
X73.4Y-79.9
X73.7Y-47.7
X73.7Y-48.7
X73.7Y-49.7
X73.7Y-50.6
X73.7Y-51.6
X73.7Y-52.6
X73.7Y-53.6
X73.7Y-54.6
X73.7Y-55.6
X73.7Y-56.7
X73.7Y-57.7
X73.7Y-58.7
X73.7Y-59.7
X73.7Y-60.7
X73.7Y-61.7
X73.9Y-143.4
X73.9Y-144.4
X73.9Y-145.4
X74.2Y-104.0
X74.2Y-105.0
X74.2Y-106.0
X74.2Y-106.9
X74.2Y-107.9
X74.2Y-108.9
X74.2Y-109.9
X74.2Y-110.9
X74.2Y-111.9
X74.2Y-112.8
X74.2Y-113.8
X74.2Y-114.8
X74.3Y-77.9
X74.3Y-78.9
X74.3Y-79.9
X74.7Y-47.7
X74.7Y-48.7
X74.7Y-49.7
X74.7Y-50.6
X74.7Y-51.6
X74.7Y-52.6
X74.7Y-53.6
X74.7Y-54.6
X74.7Y-55.6
X74.7Y-56.7
X74.7Y-57.7
X74.7Y-58.7
X74.7Y-59.7
X74.7Y-60.7
X74.7Y-61.7
X74.8Y-143.4
X74.8Y-144.4
X74.8Y-145.4
X75.2Y-104.0
X75.2Y-105.0
X75.2Y-106.0
X75.2Y-106.9
X75.2Y-107.9
X75.2Y-108.9
X75.2Y-109.9
X75.2Y-110.9
X75.2Y-111.9
X75.2Y-112.8
X75.2Y-113.8
X75.2Y-114.8
X75.3Y-77.9
X75.3Y-78.9
X75.3Y-79.9
X75.6Y-47.7
X75.6Y-48.7
X75.6Y-49.7
X75.6Y-50.6
X75.6Y-51.6
X75.6Y-52.6
X75.6Y-53.6
X75.6Y-54.6
X75.6Y-55.6
X75.6Y-56.7
X75.6Y-57.7
X75.6Y-58.7
X75.6Y-59.7
X75.6Y-60.7
X75.6Y-61.7
X75.8Y-143.4
X75.8Y-144.4
X75.8Y-145.4
X76.1Y-104.0
X76.1Y-105.0
X76.1Y-106.0
X76.1Y-106.9
X76.1Y-107.9
X76.1Y-108.9
X76.1Y-109.9
X76.1Y-110.9
X76.1Y-111.9
X76.1Y-112.8
X76.1Y-113.8
X76.1Y-114.8
X76.2Y-77.9
X76.2Y-78.9
X76.2Y-79.9
X76.5Y-47.7
X76.5Y-48.7
X76.5Y-49.7
X76.5Y-50.6
X76.5Y-51.6
X76.5Y-52.6
X76.5Y-53.6
X76.5Y-54.6
X76.5Y-55.6
X76.5Y-56.7
X76.5Y-57.7
X76.5Y-58.7
X76.5Y-59.7
X76.5Y-60.7
X76.5Y-61.7
X76.7Y-143.4
X76.7Y-144.4
X76.7Y-145.4
X77.0Y-104.0
X77.0Y-105.0
X77.0Y-106.0
X77.0Y-106.9
X77.0Y-107.9
X77.0Y-108.9
X77.0Y-109.9
X77.0Y-110.9
X77.0Y-111.9
X77.0Y-112.8
X77.0Y-113.8
X77.0Y-114.8
X77.1Y-77.9
X77.1Y-78.9
X77.1Y-79.9
X77.3Y-135.2
X77.3Y-136.2
X77.3Y-137.2
X77.4Y-47.7
X77.4Y-48.7
X77.4Y-49.7
X77.4Y-50.6
X77.4Y-51.6
X77.4Y-52.6
X77.4Y-53.6
X77.4Y-54.6
X77.4Y-55.6
X77.4Y-56.7
X77.4Y-57.7
X77.4Y-58.7
X77.4Y-59.7
X77.4Y-60.7
X77.4Y-61.7
X77.6Y-143.4
X77.6Y-144.4
X77.6Y-145.4
X77.9Y-104.0
X77.9Y-105.0
X77.9Y-106.0
X77.9Y-106.9
X77.9Y-107.9
X77.9Y-108.9
X77.9Y-109.9
X77.9Y-110.9
X77.9Y-111.9
X77.9Y-112.8
X77.9Y-113.8
X77.9Y-114.8
X78.0Y-77.9
X78.0Y-78.9
X78.0Y-79.9
X78.2Y-135.2
X78.2Y-136.2
X78.2Y-137.2
X78.3Y-47.7
X78.3Y-48.7
X78.3Y-49.7
X78.3Y-50.6
X78.3Y-51.6
X78.3Y-52.6
X78.3Y-53.6
X78.3Y-54.6
X78.3Y-55.6
X78.3Y-56.7
X78.3Y-57.7
X78.3Y-58.7
X78.3Y-59.7
X78.3Y-60.7
X78.3Y-61.7
X78.5Y-143.4
X78.5Y-144.4
X78.5Y-145.4
X78.8Y-104.0
X78.8Y-105.0
X78.8Y-106.0
X78.8Y-106.9
X78.8Y-107.9
X78.8Y-108.9
X78.8Y-109.9
X78.8Y-110.9
X78.8Y-111.9
X78.8Y-112.8
X78.8Y-113.8
X78.8Y-114.8
X78.9Y-77.9
X78.9Y-78.9
X78.9Y-79.9
X78.9Y-95.3
X78.9Y-96.3
X78.9Y-97.3
X78.9Y-98.2
X79.3Y-47.7
X79.3Y-48.7
X79.3Y-49.7
X79.3Y-50.6
X79.3Y-51.6
X79.3Y-52.6
X79.3Y-53.6
X79.3Y-54.6
X79.3Y-55.6
X79.3Y-56.7
X79.3Y-57.7
X79.3Y-58.7
X79.3Y-59.7
X79.3Y-60.7
X79.3Y-61.7
X79.3Y-135.2
X79.3Y-136.2
X79.3Y-137.2
X79.4Y-143.4
X79.4Y-144.4
X79.4Y-145.4
X79.8Y-95.3
X79.8Y-96.3
X79.8Y-97.3
X79.8Y-98.2
X79.8Y-104.0
X79.8Y-105.0
X79.8Y-106.0
X79.8Y-106.9
X79.8Y-107.9
X79.8Y-108.9
X79.8Y-109.9
X79.8Y-110.9
X79.8Y-111.9
X79.8Y-112.8
X79.8Y-113.8
X79.8Y-114.8
X79.9Y-77.9
X79.9Y-78.9
X79.9Y-79.9
X80.2Y-47.7
X80.2Y-48.7
X80.2Y-49.7
X80.2Y-50.6
X80.2Y-51.6
X80.2Y-52.6
X80.2Y-53.6
X80.2Y-54.6
X80.2Y-55.6
X80.2Y-56.7
X80.2Y-57.7
X80.2Y-58.7
X80.2Y-59.7
X80.2Y-60.7
X80.2Y-61.7
X80.4Y-143.4
X80.4Y-144.4
X80.4Y-145.4
X80.7Y-95.3
X80.7Y-96.3
X80.7Y-97.3
X80.7Y-98.2
X80.7Y-105.0
X80.7Y-106.0
X80.7Y-106.9
X80.7Y-107.9
X80.7Y-108.9
X80.7Y-109.9
X80.7Y-110.9
X80.7Y-111.9
X80.7Y-112.8
X80.7Y-113.8
X80.7Y-114.8
X80.8Y-77.9
X80.8Y-78.9
X80.8Y-79.9
X81.1Y-47.7
X81.1Y-48.7
X81.1Y-49.7
X81.1Y-50.6
X81.1Y-51.6
X81.1Y-52.6
X81.1Y-53.6
X81.1Y-54.6
X81.1Y-55.6
X81.1Y-56.7
X81.1Y-57.7
X81.1Y-58.7
X81.1Y-59.7
X81.1Y-60.7
X81.1Y-61.7
X81.3Y-143.4
X81.3Y-144.4
X81.3Y-145.4
X81.6Y-109.9
X81.6Y-110.9
X81.6Y-111.9
X81.6Y-112.8
X81.6Y-113.8
X81.6Y-114.8
X81.7Y-77.9
X81.7Y-78.9
X81.7Y-79.9
X82.0Y-47.7
X82.0Y-48.7
X82.0Y-49.7
X82.0Y-50.6
X82.0Y-51.6
X82.0Y-52.6
X82.0Y-53.6
X82.0Y-54.6
X82.0Y-55.6
X82.0Y-56.7
X82.0Y-57.7
X82.0Y-58.7
X82.0Y-59.7
X82.0Y-60.7
X82.0Y-61.7
X82.2Y-143.4
X82.2Y-144.4
X82.2Y-145.4
X82.5Y-109.9
X82.5Y-110.9
X82.5Y-111.9
X82.5Y-112.8
X82.5Y-113.8
X82.5Y-114.8
X82.6Y-77.9
X82.6Y-78.9
X82.6Y-79.9
X83.0Y-47.7
X83.0Y-48.7
X83.0Y-49.7
X83.0Y-50.6
X83.0Y-51.6
X83.0Y-52.6
X83.0Y-53.6
X83.0Y-54.6
X83.0Y-55.6
X83.0Y-56.7
X83.0Y-57.7
X83.0Y-58.7
X83.0Y-59.7
X83.0Y-60.7
X83.0Y-61.7
X83.1Y-143.4
X83.1Y-144.4
X83.1Y-145.4
X83.5Y-109.9
X83.5Y-110.9
X83.5Y-111.9
X83.5Y-112.8
X83.5Y-113.8
X83.5Y-114.8
X83.5Y-127.9
X83.5Y-128.9
X83.5Y-129.9
X83.6Y-77.9
X83.6Y-78.9
X83.6Y-79.9
X83.9Y-47.7
X83.9Y-48.7
X83.9Y-49.7
X83.9Y-50.6
X83.9Y-51.6
X83.9Y-52.6
X83.9Y-53.6
X83.9Y-54.6
X83.9Y-55.6
X83.9Y-56.7
X83.9Y-57.7
X83.9Y-58.7
X83.9Y-59.7
X83.9Y-60.7
X83.9Y-61.7
X84.1Y-143.4
X84.1Y-144.4
X84.1Y-145.4
X84.4Y-109.9
X84.4Y-110.9
X84.4Y-111.9
X84.4Y-112.8
X84.4Y-113.8
X84.4Y-114.8
X84.4Y-127.9
X84.4Y-128.9
X84.4Y-129.9
X84.5Y-77.9
X84.5Y-78.9
X84.5Y-79.9
X84.6Y-87.8
X84.6Y-88.8
X84.6Y-89.8
X84.8Y-47.7
X84.8Y-48.7
X84.8Y-49.7
X84.8Y-50.6
X84.8Y-51.6
X84.8Y-52.6
X84.8Y-53.6
X84.8Y-54.6
X84.8Y-55.6
X84.8Y-56.7
X84.8Y-57.7
X84.8Y-58.7
X84.8Y-59.7
X84.8Y-60.7
X84.8Y-61.7
X85.0Y-143.4
X85.0Y-144.4
X85.0Y-145.4
X85.3Y-109.9
X85.3Y-110.9
X85.3Y-111.9
X85.3Y-112.8
X85.3Y-113.8
X85.3Y-114.8
X85.4Y-77.9
X85.4Y-78.9
X85.4Y-79.9
X85.5Y-87.8
X85.5Y-88.8
X85.5Y-89.8
X85.5Y-127.9
X85.5Y-128.9
X85.5Y-129.9
X85.9Y-47.7
X85.9Y-48.7
X85.9Y-49.7
X85.9Y-50.6
X85.9Y-51.6
X85.9Y-52.6
X85.9Y-53.6
X85.9Y-54.6
X85.9Y-55.6
X85.9Y-56.7
X85.9Y-57.7
X85.9Y-58.7
X85.9Y-59.7
X85.9Y-60.7
X85.9Y-61.7
X85.9Y-143.4
X85.9Y-144.4
X85.9Y-145.4
X86.4Y-109.9
X86.4Y-110.9
X86.4Y-111.9
X86.4Y-112.8
X86.4Y-113.8
X86.4Y-114.8
X86.5Y-77.9
X86.5Y-78.9
X86.5Y-79.9
X86.6Y-87.8
X86.6Y-88.8
X86.6Y-89.8
X86.7Y-103.2
X86.7Y-104.2
X86.7Y-105.2
X86.7Y-106.1
X86.8Y-47.7
X86.8Y-48.7
X86.8Y-49.7
X86.8Y-50.6
X86.8Y-51.6
X86.8Y-52.6
X86.8Y-53.6
X86.8Y-54.6
X86.8Y-55.6
X86.8Y-56.7
X86.8Y-57.7
X86.8Y-58.7
X86.8Y-59.7
X86.8Y-60.7
X86.8Y-61.7
X87.0Y-143.4
X87.0Y-144.4
X87.0Y-145.4
X87.3Y-109.9
X87.3Y-110.9
X87.3Y-111.9
X87.3Y-112.8
X87.3Y-113.8
X87.3Y-114.8
X87.4Y-77.9
X87.4Y-78.9
X87.4Y-79.9
X87.6Y-103.2
X87.6Y-104.2
X87.6Y-105.2
X87.6Y-106.1
X87.7Y-47.7
X87.7Y-48.7
X87.7Y-49.7
X87.7Y-50.6
X87.7Y-51.6
X87.7Y-52.6
X87.7Y-53.6
X87.7Y-54.6
X87.7Y-55.6
X87.7Y-56.7
X87.7Y-57.7
X87.7Y-58.7
X87.7Y-59.7
X87.7Y-60.7
X87.7Y-61.7
X87.9Y-143.4
X87.9Y-144.4
X87.9Y-145.4
X88.2Y-109.9
X88.2Y-110.9
X88.2Y-111.9
X88.2Y-112.8
X88.2Y-113.8
X88.2Y-114.8
X88.3Y-77.9
X88.3Y-78.9
X88.3Y-79.9
X88.5Y-103.2
X88.5Y-104.2
X88.5Y-105.2
X88.5Y-106.1
X88.6Y-47.7
X88.6Y-48.7
X88.6Y-49.7
X88.6Y-50.6
X88.6Y-51.6
X88.6Y-52.6
X88.6Y-53.6
X88.6Y-54.6
X88.6Y-55.6
X88.6Y-56.7
X88.6Y-57.7
X88.6Y-58.7
X88.6Y-59.7
X88.6Y-60.7
X88.6Y-61.7
X88.8Y-143.4
X88.8Y-144.4
X88.8Y-145.4
X89.1Y-109.9
X89.1Y-110.9
X89.1Y-111.9
X89.1Y-112.8
X89.1Y-113.8
X89.1Y-114.8
X89.2Y-77.9
X89.2Y-78.9
X89.2Y-79.9
X89.5Y-103.2
X89.5Y-104.2
X89.5Y-105.2
X89.5Y-106.1
X89.6Y-47.7
X89.6Y-48.7
X89.6Y-49.7
X89.6Y-50.6
X89.6Y-51.6
X89.6Y-52.6
X89.6Y-53.6
X89.6Y-54.6
X89.6Y-55.6
X89.6Y-56.7
X89.6Y-57.7
X89.6Y-58.7
X89.6Y-59.7
X89.6Y-60.7
X89.6Y-61.7
X89.7Y-143.4
X89.7Y-144.4
X89.7Y-145.4
X90.1Y-109.9
X90.1Y-110.9
X90.1Y-111.9
X90.1Y-112.8
X90.1Y-113.8
X90.1Y-114.8
X90.2Y-77.9
X90.2Y-78.9
X90.2Y-79.9
X90.4Y-103.2
X90.4Y-104.2
X90.4Y-105.2
X90.4Y-106.1
X90.5Y-47.7
X90.5Y-48.7
X90.5Y-49.7
X90.5Y-50.6
X90.5Y-51.6
X90.5Y-52.6
X90.5Y-53.6
X90.5Y-54.6
X90.5Y-55.6
X90.5Y-56.7
X90.5Y-57.7
X90.5Y-58.7
X90.5Y-59.7
X90.5Y-60.7
X90.5Y-61.7
X90.7Y-143.4
X90.7Y-144.4
X90.7Y-145.4
X91.0Y-109.9
X91.0Y-110.9
X91.0Y-111.9
X91.1Y-77.9
X91.1Y-78.9
X91.1Y-79.9
X91.3Y-103.2
X91.3Y-104.2
X91.3Y-105.2
X91.3Y-106.1
X91.4Y-47.7
X91.4Y-48.7
X91.4Y-49.7
X91.4Y-50.6
X91.4Y-51.6
X91.4Y-52.6
X91.4Y-53.6
X91.4Y-54.6
X91.4Y-55.6
X91.4Y-56.7
X91.4Y-57.7
X91.4Y-58.7
X91.4Y-59.7
X91.4Y-60.7
X91.4Y-61.7
X91.6Y-143.4
X91.6Y-144.4
X91.6Y-145.4
X91.9Y-109.9
X91.9Y-110.9
X91.9Y-111.9
X92.0Y-77.9
X92.0Y-78.9
X92.0Y-79.9
X92.3Y-47.7
X92.3Y-48.7
X92.3Y-49.7
X92.3Y-50.6
X92.3Y-51.6
X92.3Y-52.6
X92.3Y-53.6
X92.3Y-54.6
X92.3Y-55.6
X92.3Y-56.7
X92.3Y-57.7
X92.3Y-58.7
X92.3Y-59.7
X92.3Y-60.7
X92.3Y-61.7
X92.5Y-143.4
X92.5Y-144.4
X92.5Y-145.4
X92.8Y-109.9
X92.8Y-110.9
X92.8Y-111.9
X92.9Y-77.9
X92.9Y-78.9
X92.9Y-79.9
X93.2Y-47.7
X93.2Y-48.7
X93.2Y-49.7
X93.2Y-50.6
X93.2Y-51.6
X93.2Y-52.6
X93.2Y-53.6
X93.2Y-54.6
X93.2Y-55.6
X93.2Y-56.7
X93.2Y-57.7
X93.2Y-58.7
X93.2Y-59.7
X93.2Y-60.7
X93.2Y-61.7
X93.2Y-62.7
X93.2Y-63.7
X93.2Y-64.7
X93.2Y-65.7
X93.2Y-66.7
X93.2Y-67.7
X93.4Y-143.4
X93.4Y-144.4
X93.4Y-145.4
X93.7Y-109.9
X93.7Y-110.9
X93.7Y-111.9
X93.8Y-77.9
X93.8Y-78.9
X93.8Y-79.9
X93.8Y-137.3
X93.8Y-138.3
X93.8Y-139.3
X94.1Y-96.4
X94.1Y-97.4
X94.1Y-98.4
X94.2Y-47.7
X94.2Y-48.7
X94.2Y-49.7
X94.2Y-50.6
X94.2Y-51.6
X94.2Y-52.6
X94.2Y-53.6
X94.2Y-54.6
X94.2Y-55.6
X94.2Y-56.7
X94.2Y-57.7
X94.2Y-58.7
X94.2Y-59.7
X94.2Y-60.7
X94.2Y-61.7
X94.2Y-62.7
X94.2Y-63.7
X94.2Y-64.7
X94.2Y-65.7
X94.2Y-66.7
X94.2Y-67.7
X94.3Y-143.4
X94.3Y-144.4
X94.3Y-145.4
X94.7Y-109.9
X94.7Y-110.9
X94.7Y-111.9
X94.7Y-137.3
X94.7Y-138.3
X94.7Y-139.3
X94.8Y-77.9
X94.8Y-78.9
X94.8Y-79.9
X95.0Y-96.4
X95.0Y-97.4
X95.0Y-98.4
X95.1Y-47.7
X95.1Y-48.7
X95.1Y-49.7
X95.1Y-50.6
X95.1Y-51.6
X95.1Y-52.6
X95.1Y-53.6
X95.1Y-54.6
X95.1Y-55.6
X95.1Y-56.7
X95.1Y-57.7
X95.1Y-58.7
X95.1Y-59.7
X95.1Y-60.7
X95.1Y-61.7
X95.1Y-62.7
X95.1Y-63.7
X95.1Y-64.7
X95.1Y-65.7
X95.1Y-66.7
X95.1Y-67.7
X95.3Y-143.4
X95.3Y-144.4
X95.3Y-145.4
X95.6Y-109.9
X95.6Y-110.9
X95.6Y-111.9
X95.7Y-77.9
X95.7Y-78.9
X95.7Y-79.9
X95.8Y-137.3
X95.8Y-138.3
X95.8Y-139.3
X96.0Y-47.7
X96.0Y-48.7
X96.0Y-49.7
X96.0Y-50.6
X96.0Y-51.6
X96.0Y-52.6
X96.0Y-53.6
X96.0Y-54.6
X96.0Y-55.6
X96.0Y-56.7
X96.0Y-57.7
X96.0Y-58.7
X96.0Y-59.7
X96.0Y-60.7
X96.0Y-61.7
X96.0Y-62.7
X96.0Y-63.7
X96.0Y-64.7
X96.0Y-65.7
X96.0Y-66.7
X96.0Y-67.7
X96.1Y-96.4
X96.1Y-97.4
X96.1Y-98.4
X96.2Y-143.4
X96.2Y-144.4
X96.2Y-145.4
X96.5Y-109.9
X96.5Y-110.9
X96.5Y-111.9
X96.6Y-77.9
X96.6Y-78.9
X96.6Y-79.9
X96.9Y-47.7
X96.9Y-48.7
X96.9Y-49.7
X96.9Y-50.6
X96.9Y-51.6
X96.9Y-52.6
X96.9Y-53.6
X96.9Y-54.6
X96.9Y-55.6
X96.9Y-56.7
X96.9Y-57.7
X96.9Y-58.7
X96.9Y-59.7
X96.9Y-60.7
X96.9Y-61.7
X96.9Y-62.7
X96.9Y-63.7
X96.9Y-64.7
X96.9Y-65.7
X96.9Y-66.7
X96.9Y-67.7
X97.1Y-143.4
X97.1Y-144.4
X97.1Y-145.4
X97.4Y-109.9
X97.4Y-110.9
X97.4Y-111.9
X97.5Y-77.9
X97.5Y-78.9
X97.5Y-79.9
X97.9Y-47.7
X97.9Y-48.7
X97.9Y-49.7
X97.9Y-50.6
X97.9Y-51.6
X97.9Y-52.6
X97.9Y-53.6
X97.9Y-54.6
X97.9Y-55.6
X97.9Y-56.7
X97.9Y-57.7
X97.9Y-58.7
X97.9Y-59.7
X97.9Y-60.7
X97.9Y-61.7
X97.9Y-62.7
X97.9Y-63.7
X97.9Y-64.7
X97.9Y-65.7
X97.9Y-66.7
X97.9Y-67.7
X98.0Y-143.4
X98.0Y-144.4
X98.0Y-145.4
X98.4Y-103.5
X98.4Y-104.5
X98.4Y-109.9
X98.4Y-110.9
X98.4Y-111.9
X98.5Y-77.9
X98.5Y-78.9
X98.5Y-79.9
X98.8Y-47.7
X98.8Y-48.7
X98.8Y-49.7
X98.8Y-50.6
X98.8Y-51.6
X98.8Y-52.6
X98.8Y-53.6
X98.8Y-54.6
X98.8Y-55.6
X98.8Y-56.7
X98.8Y-57.7
X98.8Y-58.7
X98.8Y-59.7
X98.8Y-60.7
X98.8Y-61.7
X98.8Y-62.7
X98.8Y-63.7
X98.8Y-64.7
X98.8Y-65.7
X98.8Y-66.7
X98.8Y-67.7
X99.0Y-127.9
X99.0Y-128.9
X99.0Y-129.9
X99.0Y-143.4
X99.0Y-144.4
X99.0Y-145.4
X99.3Y-103.5
X99.3Y-104.5
X99.3Y-109.9
X99.3Y-110.9
X99.3Y-111.9
X99.4Y-77.9
X99.4Y-78.9
X99.4Y-79.9
X99.7Y-47.7
X99.7Y-48.7
X99.7Y-49.7
X99.7Y-50.6
X99.7Y-51.6
X99.7Y-52.6
X99.7Y-53.6
X99.7Y-54.6
X99.7Y-55.6
X99.7Y-56.7
X99.7Y-57.7
X99.7Y-58.7
X99.7Y-59.7
X99.7Y-60.7
X99.7Y-61.7
X99.7Y-62.7
X99.7Y-63.7
X99.7Y-64.7
X99.7Y-65.7
X99.7Y-66.7
X99.7Y-67.7
X99.9Y-127.9
X99.9Y-128.9
X99.9Y-129.9
X99.9Y-143.4
X99.9Y-144.4
X99.9Y-145.4
X100.0Y-87.6
X100.0Y-88.6
X100.0Y-89.6
X100.2Y-109.9
X100.2Y-110.9
X100.2Y-111.9
X100.3Y-77.9
X100.3Y-78.9
X100.3Y-79.9
X100.425Y-103.474
X100.425Y-104.474
X100.6Y-47.7
X100.6Y-48.7
X100.6Y-49.7
X100.6Y-50.6
X100.6Y-51.6
X100.6Y-52.6
X100.6Y-53.6
X100.6Y-54.6
X100.6Y-55.6
X100.6Y-56.7
X100.6Y-57.7
X100.6Y-58.7
X100.6Y-59.7
X100.6Y-60.7
X100.6Y-61.7
X100.6Y-62.7
X100.6Y-63.7
X100.6Y-64.7
X100.6Y-65.7
X100.6Y-66.7
X100.6Y-67.7
X100.8Y-143.4
X100.8Y-144.4
X100.8Y-145.4
X100.9Y-87.6
X100.9Y-88.6
X100.9Y-89.6
X101.0Y-127.9
X101.0Y-128.9
X101.0Y-129.9
X101.1Y-109.9
X101.1Y-110.9
X101.1Y-111.9
X101.2Y-77.9
X101.2Y-78.9
X101.2Y-79.9
X101.325Y-103.474
X101.325Y-104.474
X101.5Y-47.7
X101.5Y-48.7
X101.5Y-49.7
X101.5Y-50.6
X101.5Y-51.6
X101.5Y-52.6
X101.5Y-53.6
X101.5Y-54.6
X101.5Y-55.6
X101.5Y-56.7
X101.5Y-57.7
X101.5Y-58.7
X101.5Y-59.7
X101.5Y-60.7
X101.5Y-61.7
X101.5Y-62.7
X101.5Y-63.7
X101.5Y-64.7
X101.5Y-65.7
X101.5Y-66.7
X101.5Y-67.7
X101.7Y-143.4
X101.7Y-144.4
X101.7Y-145.4
X102.0Y-87.6
X102.0Y-88.6
X102.0Y-89.6
X102.0Y-109.9
X102.0Y-110.9
X102.0Y-111.9
X102.1Y-77.9
X102.1Y-78.9
X102.1Y-79.9
X102.4Y-103.5
X102.4Y-104.5
X102.6Y-47.7
X102.6Y-48.7
X102.6Y-49.7
X102.6Y-50.6
X102.6Y-51.6
X102.6Y-52.6
X102.6Y-53.6
X102.6Y-54.6
X102.6Y-55.6
X102.6Y-56.7
X102.6Y-57.7
X102.6Y-58.7
X102.6Y-59.7
X102.6Y-60.7
X102.6Y-61.7
X102.6Y-62.7
X102.6Y-63.7
X102.6Y-64.7
X102.6Y-65.7
X102.6Y-66.7
X102.6Y-67.7
X102.6Y-143.4
X102.6Y-144.4
X102.6Y-145.4
X103.1Y-109.9
X103.1Y-110.9
X103.1Y-111.9
X103.2Y-77.9
X103.2Y-78.9
X103.2Y-79.9
X103.3Y-103.5
X103.3Y-104.5
X103.5Y-47.7
X103.5Y-48.7
X103.5Y-49.7
X103.5Y-50.6
X103.5Y-51.6
X103.5Y-52.6
X103.5Y-53.6
X103.5Y-54.6
X103.5Y-55.6
X103.5Y-56.7
X103.5Y-57.7
X103.5Y-58.7
X103.5Y-59.7
X103.5Y-60.7
X103.5Y-61.7
X103.5Y-62.7
X103.5Y-63.7
X103.5Y-64.7
X103.5Y-65.7
X103.5Y-66.7
X103.5Y-67.7
X103.7Y-143.4
X103.7Y-144.4
X103.7Y-145.4
X104.1Y-77.9
X104.1Y-78.9
X104.1Y-79.9
X104.4Y-47.7
X104.4Y-48.7
X104.4Y-49.7
X104.4Y-50.6
X104.4Y-51.6
X104.4Y-52.6
X104.4Y-53.6
X104.4Y-54.6
X104.4Y-55.6
X104.4Y-56.7
X104.4Y-57.7
X104.4Y-58.7
X104.4Y-59.7
X104.4Y-60.7
X104.4Y-61.7
X104.4Y-62.7
X104.4Y-63.7
X104.4Y-64.7
X104.4Y-65.7
X104.4Y-66.7
X104.4Y-67.7
X104.6Y-103.6
X104.6Y-104.6
X104.6Y-143.4
X104.6Y-144.4
X104.6Y-145.4
X105.0Y-77.9
X105.0Y-78.9
X105.0Y-79.9
X105.3Y-47.7
X105.3Y-48.7
X105.3Y-49.7
X105.3Y-50.6
X105.3Y-51.6
X105.3Y-52.6
X105.3Y-53.6
X105.3Y-54.6
X105.3Y-55.6
X105.3Y-56.7
X105.3Y-57.7
X105.3Y-58.7
X105.3Y-59.7
X105.3Y-60.7
X105.3Y-61.7
X105.3Y-62.7
X105.3Y-63.7
X105.3Y-64.7
X105.3Y-65.7
X105.3Y-66.7
X105.3Y-67.7
X105.5Y-103.6
X105.5Y-104.6
X105.5Y-143.4
X105.5Y-144.4
X105.5Y-145.4
X105.9Y-77.9
X105.9Y-78.9
X105.9Y-79.9
X106.3Y-47.7
X106.3Y-48.7
X106.3Y-49.7
X106.4Y-143.4
X106.4Y-144.4
X106.4Y-145.4
X106.9Y-77.9
X106.9Y-78.9
X106.9Y-79.9
X106.9Y-118.0
X107.2Y-47.7
X107.2Y-48.7
X107.2Y-49.7
X107.4Y-143.4
X107.4Y-144.4
X107.4Y-145.4
X107.8Y-77.9
X107.8Y-78.9
X107.8Y-79.9
X107.8Y-117.2
X108.1Y-47.7
X108.1Y-48.7
X108.1Y-49.7
X108.3Y-143.4
X108.3Y-144.4
X108.3Y-145.4
X108.7Y-77.9
X108.7Y-78.9
X108.7Y-79.9
X108.8Y-137.7
X108.8Y-138.7
X108.8Y-139.7
X109.0Y-47.7
X109.0Y-48.7
X109.0Y-49.7
X109.2Y-95.9
X109.2Y-96.9
X109.2Y-97.9
X109.2Y-99.0
X109.2Y-100.0
X109.2Y-101.0
X109.2Y-143.4
X109.2Y-144.4
X109.2Y-145.4
X109.6Y-77.9
X109.6Y-78.9
X109.6Y-79.9
X109.7Y-137.7
X109.7Y-138.7
X109.7Y-139.7
X109.9Y-47.7
X109.9Y-48.7
X109.9Y-49.7
X110.0Y-118.4
X110.1Y-95.9
X110.1Y-96.9
X110.1Y-97.9
X110.1Y-99.0
X110.1Y-100.0
X110.1Y-101.0
X110.1Y-143.4
X110.1Y-144.4
X110.1Y-145.4
X110.5Y-77.9
X110.5Y-78.9
X110.5Y-79.9
X110.8Y-137.7
X110.8Y-138.7
X110.8Y-139.7
X110.9Y-47.7
X110.9Y-48.7
X110.9Y-49.7
X110.9Y-117.4
X111.0Y-143.4
X111.0Y-144.4
X111.0Y-145.4
X111.2Y-95.9
X111.2Y-96.9
X111.2Y-97.9
X111.2Y-99.0
X111.2Y-100.0
X111.2Y-101.0
X111.5Y-77.9
X111.5Y-78.9
X111.5Y-79.9
X111.8Y-47.7
X111.8Y-48.7
X111.8Y-49.7
X112.0Y-143.4
X112.0Y-144.4
X112.0Y-145.4
X112.4Y-77.9
X112.4Y-78.9
X112.4Y-79.9
X112.7Y-47.7
X112.7Y-48.7
X112.7Y-49.7
X112.9Y-143.4
X112.9Y-144.4
X112.9Y-145.4
X113.2Y-119.5
X113.2Y-120.5
X113.3Y-77.9
X113.3Y-78.9
X113.3Y-79.9
X113.5Y-103.6
X113.5Y-104.6
X113.5Y-105.6
X113.6Y-47.7
X113.6Y-48.7
X113.6Y-49.7
X113.8Y-143.4
X113.8Y-144.4
X113.8Y-145.4
X114.1Y-119.5
X114.1Y-120.5
X114.2Y-77.9
X114.2Y-78.9
X114.2Y-79.9
X114.2Y-129.7
X114.2Y-130.7
X114.4Y-103.6
X114.4Y-104.6
X114.4Y-105.6
X114.6Y-47.7
X114.6Y-48.7
X114.6Y-49.7
X114.7Y-143.4
X114.7Y-144.4
X114.7Y-145.4
X115.1Y-129.7
X115.1Y-130.7
X115.2Y-77.9
X115.2Y-78.9
X115.2Y-79.9
X115.5Y-47.7
X115.5Y-48.7
X115.5Y-49.7
X115.5Y-88.0
X115.5Y-89.0
X115.5Y-90.0
X115.5Y-103.6
X115.5Y-104.6
X115.5Y-105.6
X115.7Y-143.4
X115.7Y-144.4
X115.7Y-145.4
X116.1Y-77.9
X116.1Y-78.9
X116.1Y-79.9
X116.4Y-47.7
X116.4Y-48.7
X116.4Y-49.7
X116.4Y-88.0
X116.4Y-89.0
X116.4Y-90.0
X116.6Y-143.4
X116.6Y-144.4
X116.6Y-145.4
X116.9Y-127.1
X116.9Y-128.1
X117.0Y-77.9
X117.0Y-78.9
X117.0Y-79.9
X117.3Y-47.7
X117.3Y-48.7
X117.3Y-49.7
X117.5Y-88.0
X117.5Y-89.0
X117.5Y-90.0
X117.5Y-143.4
X117.5Y-144.4
X117.5Y-145.4
X117.8Y-127.1
X117.8Y-128.1
X117.9Y-77.9
X117.9Y-78.9
X117.9Y-79.9
X118.0Y-118.2
X118.0Y-119.2
X118.2Y-47.7
X118.2Y-48.7
X118.2Y-49.7
X118.4Y-143.4
X118.4Y-144.4
X118.4Y-145.4
X118.8Y-77.9
X118.8Y-78.9
X118.8Y-79.9
X118.8Y-106.1
X118.9Y-118.2
X118.9Y-119.2
X119.2Y-47.7
X119.2Y-48.7
X119.2Y-49.7
X119.3Y-143.4
X119.3Y-144.4
X119.3Y-145.4
X119.8Y-77.9
X119.8Y-78.9
X119.8Y-79.9
X119.9Y-105.0
X120.1Y-47.7
X120.1Y-48.7
X120.1Y-49.7
X120.1Y-50.7
X120.1Y-51.7
X120.1Y-52.7
X120.1Y-53.6
X120.1Y-54.6
X120.1Y-55.6
X120.1Y-56.6
X120.1Y-57.6
X120.1Y-58.6
X120.1Y-59.7
X120.1Y-60.7
X120.1Y-61.7
X120.1Y-62.7
X120.1Y-63.7
X120.1Y-64.7
X120.3Y-130.2
X120.3Y-131.2
X120.3Y-143.4
X120.3Y-144.4
X120.3Y-145.4
X120.7Y-77.9
X120.7Y-78.9
X120.7Y-79.9
X121.0Y-47.7
X121.0Y-48.7
X121.0Y-49.7
X121.0Y-50.7
X121.0Y-51.7
X121.0Y-52.7
X121.0Y-53.6
X121.0Y-54.6
X121.0Y-55.6
X121.0Y-56.6
X121.0Y-57.6
X121.0Y-58.6
X121.0Y-59.7
X121.0Y-60.7
X121.0Y-61.7
X121.0Y-62.7
X121.0Y-63.7
X121.0Y-64.7
X121.0Y-103.9
X121.2Y-130.2
X121.2Y-131.2
X121.2Y-143.4
X121.2Y-144.4
X121.2Y-145.4
X121.3Y-106.1
X121.5Y-117.2
X121.6Y-77.9
X121.6Y-78.9
X121.6Y-79.9
X121.9Y-47.7
X121.9Y-48.7
X121.9Y-49.7
X121.9Y-50.7
X121.9Y-51.7
X121.9Y-52.7
X121.9Y-53.6
X121.9Y-54.6
X121.9Y-55.6
X121.9Y-56.6
X121.9Y-57.6
X121.9Y-58.6
X121.9Y-59.7
X121.9Y-60.7
X121.9Y-61.7
X121.9Y-62.7
X121.9Y-63.7
X121.9Y-64.7
X121.9Y-103.0
X122.1Y-143.4
X122.1Y-144.4
X122.1Y-145.4
X122.4Y-105.0
X122.5Y-77.9
X122.5Y-78.9
X122.5Y-79.9
X122.7Y-118.3
X122.8Y-50.7
X122.8Y-51.7
X122.8Y-52.7
X122.8Y-53.6
X122.8Y-54.6
X122.8Y-55.6
X122.8Y-56.6
X122.8Y-57.6
X122.8Y-58.6
X122.8Y-59.7
X122.8Y-60.7
X122.8Y-61.7
X122.8Y-62.7
X122.8Y-63.7
X122.8Y-64.7
X122.9Y-47.7
X122.9Y-48.7
X122.9Y-49.7
X123.0Y-101.9
X123.0Y-143.4
X123.0Y-144.4
X123.0Y-145.4
X123.4Y-104.0
X123.5Y-77.9
X123.5Y-78.9
X123.5Y-79.9
X123.8Y-47.7
X123.8Y-48.7
X123.8Y-49.7
X123.8Y-50.7
X123.8Y-51.7
X123.8Y-52.7
X123.8Y-53.6
X123.8Y-54.6
X123.8Y-55.6
X123.8Y-56.6
X123.8Y-57.6
X123.8Y-58.6
X123.8Y-59.7
X123.8Y-60.7
X123.8Y-61.7
X123.8Y-62.7
X123.8Y-63.7
X123.8Y-64.7
X123.9Y-106.1
X124.0Y-100.9
X124.0Y-143.4
X124.0Y-144.4
X124.0Y-145.4
X124.1Y-95.7
X124.1Y-96.7
X124.1Y-97.7
X124.2Y-137.7
X124.2Y-138.7
X124.2Y-139.7
X124.4Y-77.9
X124.4Y-78.9
X124.4Y-79.9
X124.4Y-117.5
X124.5Y-102.9
X124.7Y-47.7
X124.7Y-48.7
X124.7Y-49.7
X124.8Y-105.2
X124.9Y-50.7
X124.9Y-51.7
X124.9Y-52.7
X124.9Y-53.6
X124.9Y-54.6
X124.9Y-55.6
X124.9Y-56.6
X124.9Y-57.6
X124.9Y-58.6
X124.9Y-59.7
X124.9Y-60.7
X124.9Y-61.7
X124.9Y-62.7
X124.9Y-63.7
X124.9Y-64.7
X124.9Y-100.0
X124.9Y-143.4
X124.9Y-144.4
X124.9Y-145.4
X125.0Y-95.7
X125.0Y-96.7
X125.0Y-97.7
X125.1Y-137.7
X125.1Y-138.7
X125.1Y-139.7
X125.3Y-77.9
X125.3Y-78.9
X125.3Y-79.9
X125.6Y-47.7
X125.6Y-48.7
X125.6Y-49.7
X125.6Y-101.8
X125.8Y-50.7
X125.8Y-51.7
X125.8Y-52.7
X125.8Y-53.6
X125.8Y-54.6
X125.8Y-55.6
X125.8Y-56.6
X125.8Y-57.6
X125.8Y-58.6
X125.8Y-59.7
X125.8Y-60.7
X125.8Y-61.7
X125.8Y-62.7
X125.8Y-63.7
X125.8Y-64.7
X125.8Y-143.4
X125.8Y-144.4
X125.8Y-145.4
X125.9Y-104.2
X126.0Y-98.9
X126.1Y-95.7
X126.1Y-96.7
X126.1Y-97.7
X126.2Y-77.9
X126.2Y-78.9
X126.2Y-79.9
X126.2Y-137.7
X126.2Y-138.7
X126.2Y-139.7
X126.5Y-47.7
X126.5Y-48.7
X126.5Y-49.7
X126.5Y-106.1
X126.5Y-117.0
X126.7Y-50.7
X126.7Y-51.7
X126.7Y-52.7
X126.7Y-53.6
X126.7Y-54.6
X126.7Y-55.6
X126.7Y-56.6
X126.7Y-57.6
X126.7Y-58.6
X126.7Y-59.7
X126.7Y-60.7
X126.7Y-61.7
X126.7Y-62.7
X126.7Y-63.7
X126.7Y-64.7
X126.7Y-143.4
X126.7Y-144.4
X126.7Y-145.4
X127.1Y-77.9
X127.1Y-78.9
X127.1Y-79.9
X127.3Y-105.3
X127.6Y-47.7
X127.6Y-48.7
X127.6Y-49.7
X127.6Y-50.7
X127.6Y-51.7
X127.6Y-52.7
X127.6Y-53.6
X127.6Y-54.6
X127.6Y-55.6
X127.6Y-56.6
X127.6Y-57.6
X127.6Y-58.6
X127.6Y-59.7
X127.6Y-60.7
X127.6Y-61.7
X127.6Y-62.7
X127.6Y-63.7
X127.6Y-64.7
X127.6Y-143.4
X127.6Y-144.4
X127.6Y-145.4
X128.2Y-77.9
X128.2Y-78.9
X128.2Y-79.9
X128.5Y-47.7
X128.5Y-48.7
X128.5Y-49.7
X128.7Y-56.6
X128.7Y-57.6
X128.7Y-58.6
X128.7Y-59.7
X128.7Y-60.7
X128.7Y-61.7
X128.7Y-62.7
X128.7Y-63.7
X128.7Y-64.7
X128.7Y-143.4
X128.7Y-144.4
X128.7Y-145.4
X129.1Y-77.9
X129.1Y-78.9
X129.1Y-79.9
X129.4Y-47.7
X129.4Y-48.7
X129.4Y-49.7
X129.6Y-56.6
X129.6Y-57.6
X129.6Y-58.6
X129.6Y-59.7
X129.6Y-60.7
X129.6Y-61.7
X129.6Y-62.7
X129.6Y-63.7
X129.6Y-64.7
X129.6Y-143.4
X129.6Y-144.4
X129.6Y-145.4
X129.9Y-106.0
X129.9Y-116.5
X130.0Y-77.9
X130.0Y-78.9
X130.0Y-79.9
X130.3Y-47.7
X130.3Y-48.7
X130.3Y-49.7
X130.5Y-56.6
X130.5Y-57.6
X130.5Y-58.6
X130.5Y-59.7
X130.5Y-60.7
X130.5Y-61.7
X130.5Y-62.7
X130.5Y-63.7
X130.5Y-64.7
X130.5Y-129.8
X130.5Y-130.8
X130.5Y-143.4
X130.5Y-144.4
X130.5Y-145.4
X130.7Y-88.4
X130.7Y-89.4
X130.7Y-90.4
X130.8Y-106.0
X130.9Y-77.9
X130.9Y-78.9
X130.9Y-79.9
X131.3Y-47.7
X131.3Y-48.7
X131.3Y-49.7
X131.4Y-56.6
X131.4Y-57.6
X131.4Y-58.6
X131.4Y-59.7
X131.4Y-60.7
X131.4Y-61.7
X131.4Y-62.7
X131.4Y-63.7
X131.4Y-64.7
X131.4Y-129.8
X131.4Y-130.8
X131.4Y-143.4
X131.4Y-144.4
X131.4Y-145.4
X131.5Y-127.3
X131.5Y-128.3
X131.6Y-88.4
X131.6Y-89.4
X131.6Y-90.4
X131.7Y-106.0
X131.8Y-109.7
X131.9Y-77.9
X131.9Y-78.9
X131.9Y-79.9
X132.2Y-47.7
X132.2Y-48.7
X132.2Y-49.7
X132.4Y-56.6
X132.4Y-57.6
X132.4Y-58.6
X132.4Y-59.7
X132.4Y-60.7
X132.4Y-61.7
X132.4Y-62.7
X132.4Y-63.7
X132.4Y-64.7
X132.4Y-127.3
X132.4Y-128.3
X132.4Y-143.4
X132.4Y-144.4
X132.4Y-145.4
X132.5Y-116.4
X132.6Y-106.0
X132.7Y-88.4
X132.7Y-89.4
X132.7Y-90.4
X132.7Y-110.5
X132.8Y-77.9
X132.8Y-78.9
X132.8Y-79.9
X133.1Y-47.7
X133.1Y-48.7
X133.1Y-49.7
X133.3Y-143.4
X133.3Y-144.4
X133.3Y-145.4
X133.5Y-56.6
X133.5Y-57.6
X133.5Y-58.6
X133.5Y-59.7
X133.5Y-60.7
X133.5Y-61.7
X133.5Y-62.7
X133.5Y-63.7
X133.5Y-64.7
X133.5Y-106.0
X133.6Y-111.4
X133.7Y-77.9
X133.7Y-78.9
X133.7Y-79.9
X134.0Y-47.7
X134.0Y-48.7
X134.0Y-49.7
X134.2Y-143.4
X134.2Y-144.4
X134.2Y-145.4
X134.4Y-56.6
X134.4Y-57.6
X134.4Y-58.6
X134.4Y-59.7
X134.4Y-60.7
X134.4Y-61.7
X134.4Y-62.7
X134.4Y-63.7
X134.4Y-64.7
X134.5Y-106.0
X134.5Y-109.8
X134.6Y-77.9
X134.6Y-78.9
X134.6Y-79.9
X134.9Y-47.7
X134.9Y-48.7
X134.9Y-49.7
X135.0Y-116.5
X135.1Y-143.4
X135.1Y-144.4
X135.1Y-145.4
X135.3Y-56.6
X135.3Y-57.6
X135.3Y-58.6
X135.3Y-59.7
X135.3Y-60.7
X135.3Y-61.7
X135.3Y-62.7
X135.3Y-63.7
X135.3Y-64.7
X135.4Y-106.0
X135.4Y-130.5
X135.4Y-131.5
X135.5Y-77.9
X135.5Y-78.9
X135.5Y-79.9
X135.7Y-111.0
X136.0Y-143.4
X136.0Y-144.4
X136.0Y-145.4
X136.2Y-47.7
X136.2Y-48.7
X136.2Y-49.7
X136.2Y-56.6
X136.2Y-57.6
X136.2Y-58.6
X136.2Y-59.7
X136.2Y-60.7
X136.2Y-61.7
X136.2Y-62.7
X136.2Y-63.7
X136.2Y-64.7
X136.3Y-106.0
X136.3Y-130.5
X136.3Y-131.5
X136.8Y-77.9
X136.8Y-78.9
X136.8Y-79.9
X137.1Y-47.7
X137.1Y-48.7
X137.1Y-49.7
X137.2Y-106.0
X137.3Y-143.4
X137.3Y-144.4
X137.3Y-145.4
X137.5Y-114.0
X137.5Y-116.4
X137.6Y-109.7
X137.7Y-77.9
X137.7Y-78.9
X137.7Y-79.9
X138.0Y-47.7
X138.0Y-48.7
X138.0Y-49.7
X138.0Y-98.5
X138.0Y-99.5
X138.0Y-113.3
X138.2Y-106.0
X138.2Y-143.4
X138.2Y-144.4
X138.2Y-145.4
X138.5Y-109.7
X138.6Y-77.9
X138.6Y-78.9
X138.6Y-79.9
X138.9Y-47.7
X138.9Y-48.7
X138.9Y-49.7
X138.9Y-98.5
X138.9Y-99.5
X139.0Y-137.8
X139.0Y-138.8
X139.0Y-139.8
X139.1Y-106.0
X139.1Y-143.4
X139.1Y-144.4
X139.1Y-145.4
X139.5Y-77.9
X139.5Y-78.9
X139.5Y-79.9
X139.5Y-109.7
X139.5Y-113.3
X139.9Y-47.7
X139.9Y-48.7
X139.9Y-49.7
X139.9Y-137.8
X139.9Y-138.8
X139.9Y-139.8
X140.0Y-106.0
X140.0Y-143.4
X140.0Y-144.4
X140.0Y-145.4
X140.1Y-116.5
X140.4Y-109.7
X140.5Y-77.9
X140.5Y-78.9
X140.5Y-79.9
X140.8Y-47.7
X140.8Y-48.7
X140.8Y-49.7
X140.8Y-101.8
X140.8Y-102.8
X140.9Y-106.0
X141.0Y-137.8
X141.0Y-138.8
X141.0Y-139.8
X141.0Y-143.4
X141.0Y-144.4
X141.0Y-145.4
X141.4Y-77.9
X141.4Y-78.9
X141.4Y-79.9
X141.7Y-47.7
X141.7Y-48.7
X141.7Y-49.7
X141.7Y-101.8
X141.7Y-102.8
X141.8Y-106.0
X141.9Y-55.6
X141.9Y-143.4
X141.9Y-144.4
X141.9Y-145.4
X142.1Y-113.7
X142.3Y-77.9
X142.3Y-78.9
X142.3Y-79.9
X142.6Y-47.7
X142.6Y-48.7
X142.6Y-49.7
X142.8Y-143.4
X142.8Y-144.4
X142.8Y-145.4
X142.9Y-106.0
X143.0Y-56.6
X143.2Y-77.9
X143.2Y-78.9
X143.2Y-79.9
X143.5Y-47.7
X143.5Y-48.7
X143.5Y-49.7
X143.7Y-120.5
X143.7Y-121.5
X143.7Y-143.4
X143.7Y-144.4
X143.7Y-145.4
X144.1Y-77.9
X144.1Y-78.9
X144.1Y-79.9
X144.1Y-129.9
X144.1Y-130.9
X144.2Y-57.8
X144.5Y-47.7
X144.5Y-48.7
X144.5Y-49.7
X144.6Y-120.5
X144.6Y-121.5
X144.6Y-143.4
X144.6Y-144.4
X144.6Y-145.4
X145.0Y-129.9
X145.0Y-130.9
X145.1Y-77.9
X145.1Y-78.9
X145.1Y-79.9
X145.4Y-47.7
X145.4Y-48.7
X145.4Y-49.7
X145.4Y-55.1
X145.5Y-59.1
X145.6Y-143.4
X145.6Y-144.4
X145.6Y-145.4
X146.0Y-77.9
X146.0Y-78.9
X146.0Y-79.9
X146.1Y-88.4
X146.1Y-89.4
X146.1Y-90.4
X146.3Y-47.7
X146.3Y-48.7
X146.3Y-49.7
X146.5Y-56.8
X146.5Y-143.4
X146.5Y-144.4
X146.5Y-145.4
X146.6Y-127.3
X146.6Y-128.3
X146.9Y-77.9
X146.9Y-78.9
X146.9Y-79.9
X146.9Y-109.3
X147.0Y-88.4
X147.0Y-89.4
X147.0Y-90.4
X147.2Y-47.7
X147.2Y-48.7
X147.2Y-49.7
X147.4Y-143.4
X147.4Y-144.4
X147.4Y-145.4
X147.5Y-127.3
X147.5Y-128.3
X147.8Y-77.9
X147.8Y-78.9
X147.8Y-79.9
X147.8Y-109.3
X148.1Y-88.4
X148.1Y-89.4
X148.1Y-90.4
X148.1Y-115.7
X148.2Y-47.7
X148.2Y-48.7
X148.2Y-49.7
X148.3Y-143.4
X148.3Y-144.4
X148.3Y-145.4
X148.6Y-58.8
X148.7Y-109.3
X148.8Y-77.9
X148.8Y-78.9
X148.8Y-79.9
X149.0Y-115.7
X149.1Y-47.7
X149.1Y-48.7
X149.1Y-49.7
X149.3Y-143.4
X149.3Y-144.4
X149.3Y-145.4
X149.6Y-109.3
X149.7Y-77.9
X149.7Y-78.9
X149.7Y-79.9
X150.0Y-47.7
X150.0Y-48.7
X150.0Y-49.7
X150.0Y-115.7
X150.2Y-143.4
X150.2Y-144.4
X150.2Y-145.4
X150.6Y-77.9
X150.6Y-78.9
X150.6Y-79.9
X150.9Y-47.7
X150.9Y-48.7
X150.9Y-49.7
X150.9Y-115.7
X150.9Y-119.2
X150.9Y-120.2
X151.1Y-143.4
X151.1Y-144.4
X151.1Y-145.4
X151.5Y-55.4
X151.5Y-56.4
X151.5Y-77.9
X151.5Y-78.9
X151.5Y-79.9
X151.8Y-47.7
X151.8Y-48.7
X151.8Y-49.7
X151.8Y-115.7
X151.8Y-119.2
X151.8Y-120.2
X152.0Y-143.4
X152.0Y-144.4
X152.0Y-145.4
X152.2Y-59.0
X152.2Y-60.0
X152.4Y-55.4
X152.4Y-56.4
X152.4Y-77.9
X152.4Y-78.9
X152.4Y-79.9
X152.7Y-115.7
X152.8Y-119.2
X152.8Y-120.2
X152.9Y-47.7
X152.9Y-48.7
X152.9Y-49.7
X152.9Y-143.4
X152.9Y-144.4
X152.9Y-145.4
X153.0Y-96.8
X153.0Y-97.8
X153.0Y-98.8
X153.1Y-59.0
X153.1Y-60.0
X153.3Y-55.4
X153.3Y-56.4
X153.5Y-77.9
X153.5Y-78.9
X153.5Y-79.9
X153.6Y-115.7
X153.7Y-119.2
X153.7Y-120.2
X153.8Y-47.7
X153.8Y-48.7
X153.8Y-49.7
X153.9Y-96.8
X153.9Y-97.8
X153.9Y-98.8
X154.0Y-59.0
X154.0Y-60.0
X154.0Y-143.4
X154.0Y-144.4
X154.0Y-145.4
X154.1Y-138.3
X154.1Y-139.3
X154.1Y-140.3
X154.4Y-55.4
X154.4Y-56.4
X154.4Y-77.9
X154.4Y-78.9
X154.4Y-79.9
X154.5Y-115.7
X154.7Y-47.7
X154.7Y-48.7
X154.7Y-49.7
X154.8Y-119.2
X154.8Y-120.2
X154.9Y-143.4
X154.9Y-144.4
X154.9Y-145.4
X155.0Y-96.8
X155.0Y-97.8
X155.0Y-98.8
X155.0Y-138.3
X155.0Y-139.3
X155.0Y-140.3
X155.1Y-59.0
X155.1Y-60.0
X155.3Y-77.9
X155.3Y-78.9
X155.3Y-79.9
X155.3Y-106.0
X155.5Y-115.7
X155.6Y-47.7
X155.6Y-48.7
X155.6Y-49.7
X155.7Y-101.8
X155.7Y-102.8
X155.7Y-103.8
X155.7Y-119.2
X155.7Y-120.2
X155.8Y-143.4
X155.8Y-144.4
X155.8Y-145.4
X156.1Y-138.3
X156.1Y-139.3
X156.1Y-140.3
X156.2Y-77.9
X156.2Y-78.9
X156.2Y-79.9
X156.2Y-106.0
X156.6Y-47.7
X156.6Y-48.7
X156.6Y-49.7
X156.6Y-101.8
X156.6Y-102.8
X156.6Y-103.8
X156.7Y-143.4
X156.7Y-144.4
X156.7Y-145.4
X157.1Y-106.0
X157.2Y-77.9
X157.2Y-78.9
X157.2Y-79.9
X157.6Y-47.7
X157.6Y-48.7
X157.6Y-49.7
X157.7Y-63.9
X157.7Y-101.8
X157.7Y-102.8
X157.7Y-103.8
X157.7Y-143.4
X157.7Y-144.4
X157.7Y-145.4
X158.0Y-106.0
X158.2Y-109.6
X158.5Y-47.7
X158.5Y-48.7
X158.5Y-49.7
X158.6Y-63.9
X158.6Y-65.0
X158.6Y-143.4
X158.6Y-144.4
X158.6Y-145.4
X159.1Y-109.6
X159.4Y-47.7
X159.4Y-48.7
X159.4Y-49.7
X159.5Y-65.0
X159.5Y-66.0
X159.5Y-143.4
X159.5Y-144.4
X159.5Y-145.4
X159.6Y-63.9
X160.0Y-109.6
X160.3Y-47.7
X160.3Y-48.7
X160.3Y-49.7
X160.4Y-66.0
X160.4Y-67.0
X160.4Y-143.4
X160.4Y-144.4
X160.4Y-145.4
X160.5Y-63.9
X160.5Y-65.0
X160.9Y-109.6
X161.0Y-88.7
X161.0Y-89.7
X161.0Y-90.7
X161.3Y-47.7
X161.3Y-48.7
X161.3Y-49.7
X161.3Y-67.0
X161.3Y-68.0
X161.3Y-143.4
X161.3Y-144.4
X161.3Y-145.4
X161.4Y-63.9
X161.4Y-65.0
X161.4Y-66.0
X161.9Y-88.7
X161.9Y-89.7
X161.9Y-90.7
X162.2Y-68.0
X162.2Y-127.7
X162.2Y-128.7
X162.3Y-65.0
X162.3Y-66.0
X162.3Y-67.0
X162.3Y-68.9
X162.3Y-143.4
X162.3Y-144.4
X162.3Y-145.4
X162.4Y-47.7
X162.4Y-48.7
X162.4Y-49.7
X163.0Y-88.7
X163.0Y-89.7
X163.0Y-90.7
X163.1Y-127.7
X163.1Y-128.7
X163.2Y-66.0
X163.2Y-67.0
X163.2Y-68.0
X163.2Y-68.9
X163.2Y-69.9
X163.2Y-143.4
X163.2Y-144.4
X163.2Y-145.4
X163.3Y-47.7
X163.3Y-48.7
X163.3Y-49.7
X163.6Y-115.8
X164.0Y-118.4
X164.0Y-119.4
X164.0Y-120.4
X164.1Y-67.0
X164.1Y-68.0
X164.1Y-69.9
X164.1Y-70.9
X164.1Y-143.4
X164.1Y-144.4
X164.1Y-145.4
X164.2Y-47.7
X164.2Y-48.7
X164.2Y-49.7
X164.2Y-68.9
X164.4Y-112.5
X164.5Y-115.8
X164.9Y-118.4
X164.9Y-119.4
X164.9Y-120.4
X165.0Y-68.0
X165.0Y-70.9
X165.0Y-71.9
X165.0Y-143.4
X165.0Y-144.4
X165.0Y-145.4
X165.1Y-47.7
X165.1Y-48.7
X165.1Y-49.7
X165.1Y-68.9
X165.1Y-69.9
X165.3Y-111.5
X165.3Y-112.5
X165.4Y-131.2
X165.4Y-132.2
X165.5Y-115.8
X165.8Y-118.4
X165.8Y-119.4
X165.8Y-120.4
X165.9Y-71.9
X166.0Y-68.9
X166.0Y-69.9
X166.0Y-70.9
X166.0Y-143.4
X166.0Y-144.4
X166.0Y-145.4
X166.1Y-47.7
X166.1Y-48.7
X166.1Y-49.7
X166.3Y-73.7
X166.3Y-110.5
X166.3Y-111.5
X166.3Y-112.5
X166.3Y-131.2
X166.3Y-132.2
X166.4Y-115.8
X166.7Y-118.4
X166.7Y-119.4
X166.7Y-120.4
X166.9Y-69.9
X166.9Y-70.9
X166.9Y-71.9
X166.9Y-143.4
X166.9Y-144.4
X166.9Y-145.4
X167.0Y-47.7
X167.0Y-48.7
X167.0Y-49.7
X167.2Y-73.7
X167.2Y-74.7
X167.2Y-109.5
X167.2Y-110.5
X167.2Y-111.5
X167.2Y-112.5
X167.3Y-115.8
X167.7Y-118.4
X167.7Y-119.4
X167.7Y-120.4
X167.8Y-70.9
X167.8Y-71.9
X167.8Y-96.9
X167.8Y-97.9
X167.8Y-98.9
X167.8Y-143.4
X167.8Y-144.4
X167.8Y-145.4
X167.9Y-47.7
X167.9Y-48.7
X167.9Y-49.7
X168.1Y-74.7
X168.1Y-75.7
X168.1Y-109.5
X168.1Y-110.5
X168.1Y-111.5
X168.1Y-112.5
X168.2Y-73.7
X168.2Y-115.8
X168.5Y-135.0
X168.5Y-136.0
X168.6Y-118.4
X168.6Y-119.4
X168.6Y-120.4
X168.7Y-71.9
X168.7Y-96.9
X168.7Y-97.9
X168.7Y-98.9
X168.7Y-143.4
X168.7Y-144.4
X168.7Y-145.4
X168.8Y-47.7
X168.8Y-48.7
X168.8Y-49.7
X169.0Y-75.7
X169.0Y-76.7
X169.0Y-109.5
X169.0Y-110.5
X169.0Y-111.5
X169.0Y-112.5
X169.1Y-73.7
X169.1Y-74.7
X169.1Y-115.8
X169.2Y-55.4
X169.2Y-56.4
X169.2Y-57.4
X169.2Y-61.2
X169.2Y-62.2
X169.2Y-63.2
X169.4Y-135.0
X169.4Y-136.0
X169.5Y-118.4
X169.5Y-119.4
X169.5Y-120.4
X169.5Y-139.1
X169.5Y-140.1
X169.5Y-141.1
X169.6Y-143.4
X169.6Y-144.4
X169.6Y-145.4
X169.7Y-47.7
X169.7Y-48.7
X169.7Y-49.7
X169.8Y-96.9
X169.8Y-97.9
X169.8Y-98.9
X169.9Y-76.7
X169.9Y-109.5
X169.9Y-110.5
X169.9Y-111.5
X169.9Y-112.5
X170.0Y-73.7
X170.0Y-74.7
X170.0Y-75.7
X170.0Y-115.8
X170.1Y-55.4
X170.1Y-56.4
X170.1Y-57.4
X170.1Y-61.2
X170.1Y-62.2
X170.1Y-63.2
X170.4Y-118.4
X170.4Y-119.4
X170.4Y-120.4
X170.4Y-139.1
X170.4Y-140.1
X170.4Y-141.1
X170.6Y-143.4
X170.6Y-144.4
X170.6Y-145.4
X170.7Y-47.7
X170.7Y-48.7
X170.7Y-49.7
X170.8Y-109.5
X170.8Y-110.5
X170.8Y-111.5
X170.8Y-112.5
X170.9Y-74.7
X170.9Y-75.7
X170.9Y-76.7
X171.0Y-55.4
X171.0Y-56.4
X171.0Y-57.4
X171.0Y-61.2
X171.0Y-62.2
X171.0Y-63.2
X171.0Y-115.8
X171.3Y-118.4
X171.3Y-119.4
X171.3Y-120.4
X171.5Y-139.1
X171.5Y-140.1
X171.5Y-141.1
X171.5Y-143.4
X171.5Y-144.4
X171.5Y-145.4
X171.6Y-47.7
X171.6Y-48.7
X171.6Y-49.7
X171.8Y-75.7
X171.8Y-76.7
X171.8Y-109.5
X171.8Y-110.5
X171.8Y-111.5
X171.8Y-112.5
X172.1Y-55.4
X172.1Y-56.4
X172.1Y-57.4
X172.1Y-61.2
X172.1Y-62.2
X172.1Y-63.2
X172.4Y-143.4
X172.4Y-144.4
X172.4Y-145.4
X172.5Y-47.7
X172.5Y-48.7
X172.5Y-49.7
X172.7Y-76.7
X172.7Y-103.6
X172.7Y-104.6
X172.7Y-105.6
X172.7Y-109.5
X172.7Y-110.5
X172.7Y-111.5
X173.0Y-55.4
X173.0Y-56.4
X173.0Y-57.4
X173.0Y-61.2
X173.0Y-62.2
X173.0Y-63.2
X173.3Y-143.4
X173.3Y-144.4
X173.3Y-145.4
X173.4Y-47.7
X173.4Y-48.7
X173.4Y-49.7
X173.6Y-103.6
X173.6Y-104.6
X173.6Y-105.6
X173.9Y-55.4
X173.9Y-56.4
X173.9Y-57.4
X173.9Y-61.2
X173.9Y-62.2
X173.9Y-63.2
X174.3Y-123.7
X174.3Y-124.6
X174.3Y-125.5
X174.3Y-126.4
X174.3Y-127.3
X174.3Y-128.3
X174.3Y-129.2
X174.3Y-130.1
X174.3Y-131.0
X174.3Y-143.4
X174.3Y-144.4
X174.3Y-145.4
X174.4Y-47.7
X174.4Y-48.7
X174.4Y-49.7
X174.7Y-103.6
X174.7Y-104.6
X174.7Y-105.6
X174.8Y-55.4
X174.8Y-56.4
X174.8Y-57.4
X174.8Y-61.2
X174.8Y-62.2
X174.8Y-63.2
X175.2Y-143.4
X175.2Y-144.4
X175.2Y-145.4
X175.3Y-47.7
X175.3Y-48.7
X175.3Y-49.7
X175.3Y-123.7
X175.3Y-124.6
X175.3Y-125.5
X175.3Y-126.4
X175.3Y-127.3
X175.3Y-128.3
X175.3Y-129.2
X175.3Y-130.1
X175.3Y-131.0
X175.8Y-55.4
X175.8Y-56.4
X175.8Y-57.4
X175.8Y-61.2
X175.8Y-62.2
X175.8Y-63.2
X175.8Y-103.6
X175.8Y-104.6
X175.8Y-105.6
X175.9Y-88.9
X175.9Y-89.9
X175.9Y-90.9
X176.1Y-143.4
X176.1Y-144.4
X176.1Y-145.4
X176.2Y-47.7
X176.2Y-48.7
X176.2Y-49.7
X176.3Y-114.7
X176.3Y-115.7
X176.3Y-116.7
X176.3Y-117.7
X176.3Y-123.7
X176.3Y-124.6
X176.3Y-125.5
X176.3Y-126.4
X176.3Y-127.3
X176.3Y-128.3
X176.3Y-129.2
X176.3Y-130.1
X176.3Y-131.0
X176.7Y-103.6
X176.7Y-104.6
X176.7Y-105.6
X176.8Y-88.9
X176.8Y-89.9
X176.8Y-90.9
X177.0Y-143.4
X177.0Y-144.4
X177.0Y-145.4
X177.2Y-114.7
X177.2Y-115.7
X177.2Y-116.7
X177.2Y-117.7
X177.3Y-47.7
X177.3Y-48.7
X177.3Y-49.7
X177.8Y-103.6
X177.8Y-104.6
X177.8Y-105.6
X177.9Y-88.9
X177.9Y-89.9
X177.9Y-90.9
X177.9Y-143.4
X177.9Y-144.4
X177.9Y-145.4
X178.1Y-112.7
X178.1Y-113.7
X178.1Y-114.7
X178.1Y-115.7
X178.1Y-116.7
X178.1Y-117.7
X178.1Y-118.7
X178.2Y-47.7
X178.2Y-48.7
X178.2Y-49.7
X178.3Y-71.8
X178.3Y-72.8
X178.3Y-73.8
X179.0Y-112.7
X179.0Y-113.7
X179.0Y-114.7
X179.0Y-115.7
X179.0Y-116.7
X179.0Y-117.7
X179.0Y-118.7
X179.0Y-143.4
X179.0Y-144.4
X179.0Y-145.4
X179.1Y-47.7
X179.1Y-48.7
X179.1Y-49.7
X179.2Y-71.8
X179.2Y-72.8
X179.2Y-73.8
X179.9Y-143.4
X179.9Y-144.4
X179.9Y-145.4
X180.0Y-47.7
X180.0Y-48.7
X180.0Y-49.7
X180.0Y-109.7
X180.0Y-110.7
X180.0Y-111.7
X180.0Y-112.7
X180.0Y-113.7
X180.0Y-114.7
X180.0Y-115.7
X180.0Y-116.7
X180.0Y-117.7
X180.0Y-118.7
X180.0Y-119.7
X180.0Y-120.7
X180.1Y-71.8
X180.1Y-72.8
X180.1Y-73.8
X180.1Y-130.9
X180.1Y-131.9
X180.1Y-132.9
X180.8Y-136.8
X180.8Y-143.4
X180.8Y-144.4
X180.8Y-145.4
X180.9Y-109.7
X180.9Y-110.7
X180.9Y-111.7
X180.9Y-112.7
X180.9Y-113.7
X180.9Y-114.7
X180.9Y-115.7
X180.9Y-116.7
X180.9Y-117.7
X180.9Y-118.7
X180.9Y-119.7
X180.9Y-120.7
X181.0Y-47.7
X181.0Y-48.7
X181.0Y-49.7
X181.0Y-130.9
X181.0Y-131.9
X181.0Y-132.9
X181.2Y-71.8
X181.2Y-72.8
X181.2Y-73.8
X181.7Y-143.4
X181.7Y-144.4
X181.7Y-145.4
X181.8Y-109.7
X181.8Y-110.7
X181.8Y-111.7
X181.8Y-112.7
X181.8Y-113.7
X181.8Y-114.7
X181.8Y-115.7
X181.8Y-116.7
X181.8Y-117.7
X181.8Y-118.7
X181.8Y-119.7
X181.8Y-120.7
X181.9Y-47.7
X181.9Y-48.7
X181.9Y-49.7
X182.1Y-71.8
X182.1Y-72.8
X182.1Y-73.8
X182.1Y-130.9
X182.1Y-131.9
X182.1Y-132.9
X182.7Y-109.7
X182.7Y-110.7
X182.7Y-111.7
X182.7Y-112.7
X182.7Y-113.7
X182.7Y-114.7
X182.7Y-115.7
X182.7Y-116.7
X182.7Y-117.7
X182.7Y-118.7
X182.7Y-119.7
X182.7Y-120.7
X182.7Y-143.4
X182.7Y-144.4
X182.7Y-145.4
X182.8Y-47.7
X182.8Y-48.7
X182.8Y-49.7
X183.0Y-71.8
X183.0Y-72.8
X183.0Y-73.8
X183.4Y-96.9
X183.4Y-97.9
X183.4Y-98.9
X183.6Y-109.7
X183.6Y-110.7
X183.6Y-111.7
X183.6Y-112.7
X183.6Y-113.7
X183.6Y-114.7
X183.6Y-115.7
X183.6Y-116.7
X183.6Y-117.7
X183.6Y-118.7
X183.6Y-119.7
X183.6Y-120.7
X183.6Y-143.4
X183.6Y-144.4
X183.6Y-145.4
X183.7Y-47.7
X183.7Y-48.7
X183.7Y-49.7
X183.9Y-71.8
X183.9Y-72.8
X183.9Y-73.8
X183.9Y-105.7
X184.3Y-96.9
X184.3Y-97.9
X184.3Y-98.9
X184.5Y-109.7
X184.5Y-110.7
X184.5Y-111.7
X184.5Y-112.7
X184.5Y-113.7
X184.5Y-114.7
X184.5Y-115.7
X184.5Y-116.7
X184.5Y-117.7
X184.5Y-118.7
X184.5Y-119.7
X184.5Y-120.7
X184.5Y-143.4
X184.5Y-144.4
X184.5Y-145.4
X184.6Y-47.7
X184.6Y-48.7
X184.6Y-49.7
X184.9Y-71.8
X184.9Y-72.8
X184.9Y-73.8
X184.9Y-104.8
X185.4Y-96.9
X185.4Y-97.9
X185.4Y-98.9
X185.4Y-143.4
X185.4Y-144.4
X185.4Y-145.4
X185.5Y-109.7
X185.5Y-110.7
X185.5Y-111.7
X185.5Y-112.7
X185.5Y-113.7
X185.5Y-114.7
X185.5Y-115.7
X185.5Y-116.7
X185.5Y-117.7
X185.5Y-118.7
X185.5Y-119.7
X185.5Y-120.7
X185.6Y-47.7
X185.6Y-48.7
X185.6Y-49.7
X185.9Y-103.8
X186.3Y-143.4
X186.3Y-144.4
X186.3Y-145.4
X186.4Y-109.7
X186.4Y-110.7
X186.4Y-111.7
X186.4Y-112.7
X186.4Y-113.7
X186.4Y-114.7
X186.4Y-115.7
X186.4Y-116.7
X186.4Y-117.7
X186.4Y-118.7
X186.4Y-119.7
X186.4Y-120.7
X186.5Y-47.7
X186.5Y-48.7
X186.5Y-49.7
X186.8Y-102.9
X187.1Y-95.9
X187.1Y-96.9
X187.1Y-97.9
X187.3Y-117.7
X187.3Y-118.7
X187.3Y-119.7
X187.3Y-120.7
X187.4Y-47.7
X187.4Y-48.7
X187.4Y-49.7
X187.5Y-136.6
X187.5Y-137.6
X187.5Y-138.6
X188.0Y-95.9
X188.0Y-96.9
X188.0Y-97.9
X188.2Y-117.7
X188.2Y-118.7
X188.2Y-119.7
X188.2Y-120.7
X188.3Y-47.7
X188.3Y-48.7
X188.3Y-49.7
X188.4Y-136.6
X188.4Y-137.6
X188.4Y-138.6
X189.1Y-95.9
X189.1Y-96.9
X189.1Y-97.9
X189.1Y-117.7
X189.1Y-118.7
X189.1Y-119.7
X189.1Y-120.7
X189.3Y-47.7
X189.3Y-48.7
X189.3Y-49.7
X189.3Y-136.6
X189.3Y-137.6
X189.3Y-138.6
X190.0Y-117.7
X190.0Y-118.7
X190.0Y-119.7
X190.0Y-120.7
X190.1Y-113.2
X190.2Y-47.7
X190.2Y-48.7
X190.2Y-49.7
X190.3Y-126.8
X190.3Y-127.8
X190.3Y-128.8
X190.3Y-129.8
X190.3Y-132.7
X190.3Y-133.7
X190.3Y-134.7
X190.3Y-135.7
X190.3Y-136.6
X190.3Y-137.6
X190.3Y-138.6
X190.6Y-106.8
X190.6Y-107.8
X190.6Y-108.8
X190.6Y-109.7
X190.9Y-78.0
X190.9Y-100.0
X190.9Y-102.5
X191.1Y-47.7
X191.1Y-48.7
X191.1Y-49.7
X191.1Y-114.2
X191.2Y-126.8
X191.2Y-127.8
X191.2Y-128.8
X191.2Y-129.8
X191.2Y-132.7
X191.2Y-133.7
X191.2Y-134.7
X191.2Y-135.7
X191.2Y-136.6
X191.2Y-137.6
X191.2Y-138.6
X191.5Y-106.8
X191.5Y-107.8
X191.5Y-108.8
X191.5Y-109.7
X191.8Y-78.0
X191.8Y-79.0
X192.0Y-47.7
X192.0Y-48.7
X192.0Y-49.7
X192.1Y-126.8
X192.1Y-127.8
X192.1Y-128.8
X192.1Y-129.8
X192.1Y-132.7
X192.1Y-133.7
X192.1Y-134.7
X192.1Y-135.7
X192.1Y-136.6
X192.1Y-137.6
X192.1Y-138.6
X192.7Y-79.0
X192.7Y-80.0
X192.8Y-78.0
X192.9Y-47.7
X192.9Y-48.7
X192.9Y-49.7
X193.0Y-126.8
X193.0Y-127.8
X193.0Y-128.8
X193.0Y-129.8
X193.0Y-132.7
X193.0Y-133.7
X193.0Y-134.7
X193.0Y-135.7
X193.0Y-136.6
X193.0Y-137.6
X193.0Y-138.6
X193.6Y-80.0
X193.6Y-81.0
X193.7Y-78.0
X193.7Y-79.0
X193.9Y-126.8
X193.9Y-127.8
X193.9Y-128.8
X193.9Y-129.8
X193.9Y-132.7
X193.9Y-133.7
X193.9Y-134.7
X193.9Y-135.7
X193.9Y-136.6
X193.9Y-137.6
X193.9Y-138.6
X194.0Y-47.7
X194.0Y-48.7
X194.0Y-49.7
X194.2Y-102.0
X194.2Y-103.0
X194.2Y-117.2
X194.5Y-81.0
X194.5Y-82.0
X194.5Y-83.0
X194.5Y-83.9
X194.5Y-84.9
X194.5Y-85.9
X194.5Y-86.9
X194.5Y-87.9
X194.5Y-88.9
X194.5Y-89.9
X194.5Y-90.9
X194.5Y-91.9
X194.5Y-92.9
X194.5Y-93.8
X194.5Y-98.3
X194.5Y-99.3
X194.5Y-121.2
X194.6Y-78.0
X194.6Y-79.0
X194.6Y-80.0
X194.8Y-126.8
X194.8Y-127.8
X194.8Y-128.8
X194.8Y-129.8
X194.8Y-132.7
X194.8Y-133.7
X194.8Y-134.7
X194.8Y-135.7
X194.8Y-136.6
X194.8Y-137.6
X194.8Y-138.6
X194.9Y-47.7
X194.9Y-48.7
X194.9Y-49.7
X194.9Y-50.8
X194.9Y-51.8
X194.9Y-52.8
X194.9Y-53.9
X194.9Y-54.9
X194.9Y-55.9
X194.9Y-56.9
X194.9Y-57.9
X194.9Y-58.9
X194.9Y-113.8
X195.1Y-102.0
X195.1Y-103.0
X195.2Y-66.3
X195.2Y-67.6
X195.2Y-68.8
X195.2Y-69.9
X195.2Y-71.1
X195.2Y-72.3
X195.2Y-73.4
X195.2Y-118.2
X195.371Y-122.049
X195.4Y-82.0
X195.4Y-83.0
X195.4Y-83.9
X195.4Y-84.9
X195.4Y-85.9
X195.4Y-86.9
X195.4Y-87.9
X195.4Y-88.9
X195.4Y-89.9
X195.4Y-90.9
X195.4Y-91.9
X195.4Y-92.9
X195.4Y-97.3
X195.4Y-98.3
X195.4Y-99.3
X195.5Y-79.0
X195.5Y-80.0
X195.5Y-81.0
X195.7Y-136.6
X195.7Y-137.6
X195.7Y-138.6
X195.8Y-47.7
X195.8Y-48.7
X195.8Y-49.7
X195.8Y-50.8
X195.8Y-51.8
X195.8Y-52.8
X195.8Y-53.9
X195.8Y-54.9
X195.8Y-55.9
X195.8Y-56.9
X195.8Y-57.9
X195.8Y-58.9
X195.8Y-113.8
X195.8Y-114.8
X196.0Y-102.0
X196.0Y-103.0
X196.2Y-122.8
X196.3Y-71.1
X196.3Y-72.3
X196.3Y-73.4
X196.3Y-74.5
X196.3Y-96.3
X196.3Y-97.3
X196.3Y-98.3
X196.3Y-99.3
X196.4Y-80.0
X196.4Y-81.0
X196.4Y-82.0
X196.4Y-83.0
X196.4Y-83.9
X196.4Y-84.9
X196.4Y-85.9
X196.4Y-86.9
X196.4Y-87.9
X196.4Y-88.9
X196.4Y-89.9
X196.4Y-90.9
X196.4Y-91.9
X196.6Y-136.6
X196.6Y-137.6
X196.6Y-138.6
X196.7Y-47.7
X196.7Y-48.7
X196.7Y-49.7
X196.7Y-50.8
X196.7Y-51.8
X196.7Y-52.8
X196.7Y-53.9
X196.7Y-54.9
X196.7Y-55.9
X196.7Y-56.9
X196.7Y-57.9
X196.7Y-58.9
X196.7Y-104.9
X196.7Y-113.8
X196.7Y-114.8
X196.7Y-115.8
X196.9Y-102.0
X196.9Y-103.0
X197.2Y-95.3
X197.2Y-96.3
X197.2Y-97.3
X197.2Y-98.3
X197.2Y-99.3
X197.3Y-81.0
X197.3Y-82.0
X197.3Y-83.0
X197.3Y-83.9
X197.3Y-84.9
X197.3Y-85.9
X197.3Y-86.9
X197.3Y-87.9
X197.3Y-88.9
X197.3Y-89.9
X197.3Y-90.9
X197.5Y-72.3
X197.5Y-73.4
X197.5Y-74.5
X197.5Y-136.6
X197.5Y-137.6
X197.5Y-138.6
X197.6Y-50.8
X197.6Y-51.8
X197.6Y-52.8
X197.6Y-53.9
X197.6Y-54.9
X197.6Y-55.9
X197.6Y-56.9
X197.6Y-57.9
X197.6Y-58.9
X197.6Y-104.9
X197.6Y-113.8
X197.6Y-114.8
X197.6Y-115.8
X197.7Y-47.7
X197.7Y-48.7
X197.7Y-49.7
X197.8Y-102.0
X197.8Y-103.0
X198.2Y-82.0
X198.2Y-83.0
X198.2Y-83.9
X198.2Y-84.9
X198.2Y-85.9
X198.2Y-86.9
X198.2Y-87.9
X198.2Y-88.9
X198.2Y-89.9
X198.2Y-94.3
X198.2Y-95.3
X198.2Y-96.3
X198.2Y-97.3
X198.2Y-98.3
X198.2Y-99.3
X198.3Y-65.5
X198.3Y-66.5
X198.3Y-67.5
X198.3Y-68.5
X198.5Y-106.9
X198.5Y-107.9
X198.5Y-108.9
X198.5Y-109.8
X198.5Y-113.8
X198.5Y-114.8
X198.5Y-115.8
X198.5Y-116.7
X198.6Y-47.7
X198.6Y-48.7
X198.6Y-49.7
X198.6Y-50.8
X198.6Y-51.8
X198.6Y-52.8
X198.6Y-53.9
X198.6Y-54.9
X198.6Y-55.9
X198.6Y-56.9
X198.6Y-57.9
X198.6Y-58.9
X198.7Y-73.4
X198.7Y-74.5
X199.1Y-83.0
X199.1Y-83.9
X199.1Y-84.9
X199.1Y-85.9
X199.1Y-86.9
X199.1Y-87.9
X199.1Y-88.9
X199.1Y-93.3
X199.1Y-94.3
X199.1Y-95.3
X199.1Y-96.3
X199.1Y-97.3
X199.1Y-98.3
X199.1Y-99.3
X199.1Y-132.5
X199.1Y-133.5
X199.2Y-65.5
X199.2Y-66.5
X199.2Y-67.5
X199.2Y-68.5
X199.2Y-127.7
X199.2Y-128.7
X199.2Y-129.7
X199.4Y-104.9
X199.4Y-106.9
X199.4Y-107.9
X199.4Y-108.9
X199.4Y-109.8
X199.4Y-113.8
X199.4Y-114.8
X199.4Y-115.8
X199.4Y-116.7
X199.4Y-117.7
X199.4Y-118.7
X199.4Y-119.6
X199.4Y-120.6
X199.4Y-121.6
X199.5Y-47.7
X199.5Y-48.7
X199.5Y-49.7
X199.5Y-50.8
X199.5Y-51.8
X199.5Y-52.8
X199.5Y-53.9
X199.5Y-54.9
X199.5Y-55.9
X199.5Y-56.9
X199.5Y-57.9
X199.5Y-58.9
X199.7Y-78.0
X199.9Y-74.5
X200.0Y-132.5
X200.0Y-133.5
X200.0Y-134.5
X200.1Y-124.9
X200.1Y-127.7
X200.1Y-128.7
X200.1Y-129.7
X200.3Y-116.7
X200.3Y-117.7
X200.3Y-118.7
X200.3Y-119.6
X200.3Y-120.6
X200.3Y-121.6
X200.4Y-47.7
X200.4Y-48.7
X200.4Y-49.7
X200.4Y-50.8
X200.4Y-51.8
X200.4Y-52.8
X200.4Y-53.9
X200.4Y-54.9
X200.4Y-55.9
X200.4Y-56.9
X200.4Y-57.9
X200.4Y-58.9
X200.9Y-78.0
X200.9Y-79.1
X200.9Y-132.5
X200.9Y-133.5
X200.9Y-134.5
X201.0Y-124.9
X201.3Y-47.7
X201.3Y-48.7
X201.3Y-49.7
X201.3Y-50.8
X201.3Y-51.8
X201.3Y-52.8
X201.3Y-53.9
X201.3Y-54.9
X201.3Y-55.9
X201.3Y-56.9
X201.3Y-57.9
X201.3Y-58.9
X201.4Y-99.5
X201.4Y-102.0
X201.4Y-104.6
X201.4Y-107.1
X201.4Y-109.6
X201.4Y-112.2
X201.5Y-84.0
X201.5Y-85.3
X201.5Y-86.5
X201.5Y-87.7
X201.5Y-89.1
X201.5Y-90.7
X201.5Y-93.8
X201.5Y-95.0
X201.5Y-96.2
X201.5Y-114.7
X202.1Y-78.0
X202.1Y-79.1
X202.1Y-80.2
X202.2Y-50.8
X202.2Y-51.8
X202.2Y-52.8
X202.2Y-53.9
X202.2Y-54.9
X202.2Y-55.9
X202.2Y-56.9
X202.2Y-57.9
X202.2Y-58.9
X202.3Y-47.7
X202.3Y-48.7
X202.3Y-49.7
X202.4Y-84.0
X202.4Y-85.3
X202.4Y-86.5
X202.4Y-87.7
X203.2Y-47.7
X203.2Y-48.7
X203.2Y-49.7
X203.2Y-50.8
X203.2Y-51.8
X203.2Y-52.8
X203.2Y-53.9
X203.2Y-54.9
X203.2Y-55.9
X203.2Y-56.9
X203.2Y-57.9
X203.2Y-58.9
X203.3Y-78.0
X203.3Y-79.1
X203.3Y-80.2
X203.3Y-81.4
X203.3Y-85.3
X203.3Y-86.5
X203.3Y-87.7
X203.7Y-93.0
X203.7Y-94.1
X203.7Y-95.3
X203.7Y-96.5
X203.8Y-90.7
X203.8Y-99.5
X203.8Y-102.1
X203.8Y-104.4
X203.9Y-114.7
X203.9Y-117.2
X204.0Y-72.2
X204.0Y-73.2
X204.0Y-74.2
X204.0Y-107.0
X204.0Y-109.7
X204.0Y-111.7
X204.1Y-47.7
X204.1Y-48.7
X204.1Y-49.7
X204.1Y-50.8
X204.1Y-51.8
X204.1Y-52.8
X204.1Y-53.9
X204.1Y-54.9
X204.1Y-55.9
X204.1Y-56.9
X204.1Y-57.9
X204.1Y-58.9
X204.3Y-123.0
X204.3Y-124.0
X204.3Y-125.0
X204.3Y-125.9
X204.3Y-126.9
X204.3Y-127.9
X204.3Y-128.9
X204.3Y-129.9
X204.3Y-130.9
X204.3Y-131.9
X204.3Y-132.9
X204.3Y-133.9
X204.4Y-79.1
X204.4Y-80.2
X204.4Y-81.4
X204.4Y-82.6
X204.8Y-114.7
X204.9Y-72.2
X204.9Y-73.2
X204.9Y-74.2
X204.9Y-115.9
X204.9Y-117.2
X204.9Y-118.3
X205.0Y-47.7
X205.0Y-48.7
X205.0Y-49.7
X205.0Y-50.8
X205.0Y-51.8
X205.0Y-52.8
X205.0Y-53.9
X205.0Y-54.9
X205.0Y-55.9
X205.0Y-56.9
X205.0Y-57.9
X205.0Y-58.9
X205.5Y-80.2
X205.5Y-81.4
X205.5Y-82.6
X205.5Y-83.6
X205.7Y-102.0
X205.9Y-50.8
X205.9Y-51.8
X205.9Y-52.8
X205.9Y-53.9
X205.9Y-54.9
X205.9Y-55.9
X205.9Y-56.9
X205.9Y-57.9
X205.9Y-58.9
X205.9Y-72.2
X205.9Y-73.2
X205.9Y-74.2
X206.0Y-47.7
X206.0Y-48.7
X206.0Y-49.7
X206.4Y-128.8
X206.8Y-72.2
X206.8Y-73.2
X206.8Y-74.2
X206.9Y-47.7
X206.9Y-48.7
X206.9Y-49.7
X206.9Y-50.8
X206.9Y-51.8
X206.9Y-52.8
X206.9Y-53.9
X206.9Y-54.9
X206.9Y-55.9
X206.9Y-56.9
X206.9Y-57.9
X206.9Y-58.9
X207.5Y-93.3
X207.5Y-97.2
X207.5Y-98.2
X207.5Y-99.2
X207.5Y-100.2
X207.5Y-101.2
X207.5Y-102.2
X207.5Y-103.4
X207.5Y-104.4
X207.5Y-105.6
X207.5Y-106.6
X207.5Y-107.6
X207.5Y-108.6
X207.5Y-109.6
X207.5Y-110.6
X207.5Y-111.6
X207.5Y-112.6
X207.5Y-113.6
X207.5Y-114.6
X207.5Y-115.6
X207.5Y-116.6
X207.5Y-117.6
X207.5Y-118.6
X207.5Y-119.6
X207.5Y-120.6
X207.5Y-121.5
X207.5Y-122.5
X207.5Y-123.5
X207.5Y-124.5
X207.5Y-125.5
X207.5Y-126.5
X207.5Y-127.4
X207.5Y-131.0
X207.5Y-132.0
X207.8Y-47.7
X207.8Y-48.7
X207.8Y-49.7
X207.8Y-50.8
X207.8Y-51.8
X207.8Y-52.8
X207.8Y-53.9
X207.8Y-54.9
X207.8Y-55.9
X207.8Y-56.9
X207.8Y-57.9
X207.8Y-58.9
X207.9Y-72.2
X207.9Y-73.2
X207.9Y-74.2
X208.0Y-90.7
X208.1Y-79.3
X208.1Y-80.3
X208.1Y-81.3
X208.1Y-82.3
X208.1Y-83.3
X208.1Y-84.3
X208.1Y-85.3
X208.1Y-86.5
X208.4Y-96.1
X208.4Y-97.2
X208.4Y-98.2
X208.4Y-99.2
X208.4Y-100.2
X208.4Y-101.2
X208.4Y-102.2
X208.4Y-103.4
X208.4Y-104.4
X208.4Y-105.6
X208.4Y-106.6
X208.4Y-107.6
X208.4Y-108.6
X208.4Y-109.6
X208.4Y-110.6
X208.4Y-111.6
X208.4Y-112.6
X208.4Y-113.6
X208.4Y-114.6
X208.4Y-115.6
X208.4Y-116.6
X208.4Y-117.6
X208.4Y-118.6
X208.4Y-119.6
X208.4Y-120.6
X208.4Y-121.5
X208.4Y-122.5
X208.4Y-123.5
X208.4Y-124.5
X208.4Y-125.5
X208.4Y-126.5
X208.4Y-131.0
X208.4Y-132.0
X208.7Y-47.7
X208.7Y-48.7
X208.7Y-49.7
X208.7Y-50.8
X208.7Y-51.8
X208.7Y-52.8
X208.7Y-53.9
X208.7Y-54.9
X208.7Y-55.9
X208.7Y-56.9
X208.7Y-57.9
X208.7Y-58.9
X208.9Y-91.5
X209.0Y-79.3
X209.0Y-80.3
X209.0Y-81.3
X209.0Y-82.3
X209.0Y-83.3
X209.0Y-84.3
X209.0Y-85.3
X209.0Y-86.5
X209.2Y-139.0
X209.2Y-139.9
X209.2Y-140.9
X209.2Y-141.9
X209.2Y-142.8
X209.2Y-143.7
X209.2Y-144.7
X209.2Y-145.7
X209.3Y-133.8
X209.3Y-134.8
X209.3Y-135.8
X209.6Y-47.7
X209.6Y-48.7
X209.6Y-49.7
X209.6Y-50.8
X209.6Y-51.8
X209.6Y-52.8
X209.6Y-53.9
X209.6Y-54.9
X209.6Y-55.9
X209.6Y-56.9
X209.6Y-57.9
X209.6Y-58.9
X209.8Y-92.4
X210.0Y-81.3
X210.0Y-82.3
X210.0Y-83.3
X210.0Y-84.3
X210.0Y-85.3
X210.0Y-86.5
X210.1Y-139.0
X210.1Y-139.9
X210.1Y-140.9
X210.1Y-141.9
X210.1Y-142.8
X210.1Y-143.7
X210.1Y-144.7
X210.1Y-145.7
X210.2Y-133.8
X210.2Y-134.8
X210.2Y-135.8
X210.5Y-50.8
X210.5Y-51.8
X210.5Y-52.8
X210.5Y-53.9
X210.5Y-54.9
X210.5Y-55.9
X210.5Y-56.9
X210.5Y-57.9
X210.5Y-58.9
X210.6Y-47.7
X210.6Y-48.7
X210.6Y-49.7
X210.9Y-81.3
X210.9Y-82.3
X210.9Y-83.3
X210.9Y-84.3
X210.9Y-85.3
X210.9Y-86.5
X211.0Y-95.5
X211.0Y-96.6
X211.1Y-139.0
X211.1Y-139.9
X211.1Y-140.9
X211.1Y-141.9
X211.1Y-142.8
X211.1Y-143.7
X211.1Y-144.7
X211.1Y-145.7
X211.2Y-133.8
X211.2Y-134.8
X211.2Y-135.8
X211.3Y-102.0
X211.3Y-104.4
X211.3Y-119.8
X211.4Y-70.2
X211.5Y-47.7
X211.5Y-48.7
X211.5Y-49.7
X211.5Y-50.8
X211.5Y-51.8
X211.5Y-52.8
X211.5Y-53.9
X211.5Y-54.9
X211.5Y-55.9
X211.5Y-56.9
X211.5Y-57.9
X211.5Y-58.9
X211.5Y-122.4
X211.7Y-107.2
X211.7Y-117.3
X211.9Y-102.0
X212.0Y-82.3
X212.0Y-83.3
X212.0Y-84.3
X212.0Y-85.3
X212.0Y-86.3
X212.0Y-87.5
X212.0Y-139.0
X212.0Y-139.9
X212.0Y-140.9
X212.0Y-141.9
X212.0Y-142.8
X212.0Y-143.7
X212.0Y-144.7
X212.0Y-145.7
X212.2Y-113.1
X212.2Y-114.0
X212.2Y-124.9
X212.2Y-125.8
X212.2Y-126.8
X212.2Y-127.8
X212.2Y-128.8
X212.2Y-129.8
X212.2Y-130.8
X212.2Y-131.8
X212.2Y-132.8
X212.2Y-133.8
X212.2Y-134.8
X212.2Y-135.8
X212.3Y-71.1
X212.3Y-119.8
X212.4Y-47.7
X212.4Y-48.7
X212.4Y-49.7
X212.4Y-99.8
X212.4Y-109.7
X212.5Y-102.0
X212.5Y-122.4
X212.7Y-106.2
X212.7Y-107.2
X212.7Y-117.3
X212.9Y-82.3
X212.9Y-83.3
X212.9Y-84.3
X212.9Y-85.3
X212.9Y-86.3
X212.9Y-87.5
X212.9Y-99.3
X212.9Y-139.0
X212.9Y-139.9
X212.9Y-140.9
X212.9Y-141.9
X212.9Y-142.8
X212.9Y-143.7
X212.9Y-144.7
X212.9Y-145.7
X213.0Y-95.0
X213.0Y-96.7
X213.0Y-97.8
X213.1Y-124.9
X213.1Y-125.8
X213.1Y-126.8
X213.1Y-127.8
X213.1Y-128.8
X213.1Y-129.8
X213.1Y-130.8
X213.1Y-131.8
X213.1Y-132.8
X213.1Y-133.8
X213.1Y-134.8
X213.1Y-135.8
X213.2Y-113.1
X213.2Y-114.0
X213.3Y-47.7
X213.3Y-48.7
X213.3Y-49.7
X213.3Y-119.8
X213.4Y-70.2
X213.4Y-98.8
X213.4Y-109.7
X213.6Y-95.9
X213.6Y-97.3
X213.6Y-105.2
X213.6Y-106.2
X213.6Y-107.2
X213.7Y-66.5
X213.7Y-117.3
X213.9Y-84.3
X213.9Y-85.3
X213.9Y-86.3
X213.9Y-87.3
X213.9Y-88.3
X213.9Y-89.5
X213.9Y-98.3
X213.9Y-139.0
X213.9Y-139.9
X213.9Y-140.9
X213.9Y-141.9
X213.9Y-142.8
X213.9Y-143.7
X213.9Y-144.7
X213.9Y-145.7
X214.1Y-124.9
X214.1Y-125.8
X214.1Y-126.8
X214.1Y-127.8
X214.1Y-128.8
X214.1Y-129.8
X214.1Y-130.8
X214.1Y-131.8
X214.1Y-132.8
X214.1Y-133.8
X214.1Y-134.8
X214.1Y-135.8
X214.2Y-113.1
X214.2Y-114.0
X214.3Y-47.7
X214.3Y-48.7
X214.3Y-49.7
X214.4Y-95.0
X214.4Y-96.7
X214.4Y-97.8
X214.4Y-109.7
X214.5Y-77.5
X214.6Y-104.2
X214.6Y-105.2
X214.6Y-106.2
X214.6Y-107.2
X214.7Y-66.5
X214.7Y-117.3
X214.8Y-84.3
X214.8Y-85.3
X214.8Y-86.3
X214.8Y-87.3
X214.8Y-88.3
X214.8Y-89.5
X214.8Y-139.0
X214.8Y-139.9
X214.8Y-140.9
X214.8Y-141.9
X214.8Y-142.8
X214.8Y-143.7
X214.8Y-144.7
X214.8Y-145.7
X214.9Y-95.9
X214.9Y-97.3
X215.0Y-124.9
X215.0Y-125.8
X215.0Y-126.8
X215.0Y-127.8
X215.0Y-128.8
X215.0Y-129.8
X215.0Y-130.8
X215.0Y-131.8
X215.0Y-132.8
X215.0Y-133.8
X215.0Y-134.8
X215.0Y-135.8
X215.2Y-47.7
X215.2Y-48.7
X215.2Y-49.7
X215.2Y-113.1
X215.2Y-114.0
X215.4Y-109.7
X215.5Y-77.5
X215.5Y-78.4
X215.5Y-103.2
X215.5Y-104.2
X215.5Y-105.2
X215.5Y-106.2
X215.5Y-107.2
X215.7Y-66.5
X215.7Y-117.3
X215.8Y-139.0
X215.8Y-139.9
X215.8Y-140.9
X215.8Y-141.9
X215.8Y-142.8
X215.8Y-143.7
X215.8Y-144.7
X215.8Y-145.7
X215.9Y-124.9
X215.9Y-125.8
X215.9Y-126.8
X215.9Y-127.8
X215.9Y-128.8
X215.9Y-129.8
X215.9Y-130.8
X215.9Y-131.8
X215.9Y-132.8
X215.9Y-133.8
X215.9Y-134.8
X215.9Y-135.8
X216.1Y-47.7
X216.1Y-48.7
X216.1Y-49.7
X216.1Y-70.2
X216.2Y-113.1
X216.2Y-114.0
X216.3Y-54.9
X216.3Y-55.9
X216.3Y-56.9
X216.3Y-57.9
X216.3Y-58.9
X216.4Y-109.7
X216.5Y-77.5
X216.5Y-78.4
X216.5Y-79.4
X216.5Y-102.2
X216.5Y-103.2
X216.5Y-104.2
X216.5Y-105.2
X216.5Y-106.2
X216.5Y-107.2
X216.7Y-66.5
X216.7Y-139.0
X216.7Y-139.9
X216.7Y-140.9
X216.7Y-141.9
X216.7Y-142.8
X216.7Y-143.7
X216.7Y-144.7
X216.7Y-145.7
X216.8Y-121.9
X216.8Y-122.9
X216.8Y-123.9
X216.8Y-124.9
X216.8Y-125.8
X216.8Y-126.8
X216.8Y-127.8
X216.8Y-128.8
X216.8Y-129.8
X216.8Y-130.8
X216.8Y-131.8
X216.8Y-132.8
X216.8Y-133.8
X216.8Y-134.8
X216.8Y-135.8
X217.0Y-47.7
X217.0Y-48.7
X217.0Y-49.7
X217.2Y-113.1
X217.2Y-114.0
X217.4Y-102.2
X217.4Y-103.2
X217.4Y-104.2
X217.4Y-105.2
X217.4Y-106.2
X217.4Y-107.2
X217.5Y-77.5
X217.5Y-78.4
X217.5Y-79.4
X217.5Y-80.3
X217.6Y-139.0
X217.6Y-139.9
X217.6Y-140.9
X217.6Y-141.9
X217.6Y-142.8
X217.6Y-143.7
X217.6Y-144.7
X217.6Y-145.7
X217.7Y-66.5
X217.7Y-121.9
X217.7Y-122.9
X217.7Y-123.9
X217.8Y-124.8
X217.8Y-125.8
X217.8Y-126.8
X217.8Y-127.8
X217.8Y-128.8
X217.8Y-129.8
X217.8Y-130.8
X217.8Y-131.8
X217.8Y-132.8
X217.8Y-133.8
X217.8Y-134.8
X217.8Y-135.8
X217.9Y-47.7
X217.9Y-48.7
X217.9Y-49.7
X218.3Y-91.9
X218.3Y-95.4
X218.3Y-96.9
X218.5Y-77.5
X218.5Y-78.4
X218.5Y-79.4
X218.5Y-80.3
X218.5Y-81.3
X218.7Y-55.3
X218.7Y-56.3
X218.7Y-57.3
X218.7Y-58.3
X218.7Y-59.3
X218.7Y-66.5
X218.7Y-121.9
X218.7Y-122.9
X218.7Y-123.9
X218.7Y-124.8
X218.7Y-125.8
X218.7Y-126.8
X218.7Y-127.8
X218.7Y-128.8
X218.7Y-142.8
X218.7Y-143.7
X218.7Y-144.7
X218.7Y-145.7
X218.8Y-69.8
X218.8Y-70.7
X219.0Y-47.7
X219.0Y-48.7
X219.0Y-49.7
X219.5Y-77.5
X219.5Y-78.4
X219.5Y-79.4
X219.5Y-80.3
X219.5Y-81.3
X219.5Y-82.2
X219.6Y-142.8
X219.6Y-143.7
X219.6Y-144.7
X219.6Y-145.7
X219.7Y-124.8
X219.7Y-125.8
X219.7Y-126.8
X219.7Y-127.8
X219.7Y-128.8
X219.8Y-66.5
X219.9Y-47.7
X219.9Y-48.7
X219.9Y-49.7
X220.4Y-91.3
X220.4Y-92.2
X220.6Y-124.8
X220.6Y-125.8
X220.6Y-126.8
X220.6Y-127.8
X220.6Y-128.8
X220.6Y-142.8
X220.6Y-143.7
X220.6Y-144.7
X220.6Y-145.7
X220.8Y-47.7
X220.8Y-48.7
X220.8Y-49.7
X220.8Y-66.5
X220.8Y-95.6
X220.8Y-96.6
X220.8Y-97.6
X220.8Y-98.6
X220.8Y-99.6
X220.8Y-100.6
X221.3Y-55.3
X221.3Y-56.3
X221.3Y-57.3
X221.3Y-58.3
X221.3Y-59.3
X221.3Y-91.3
X221.3Y-92.2
X221.4Y-109.7
X221.5Y-124.8
X221.5Y-125.8
X221.5Y-126.8
X221.5Y-127.8
X221.5Y-128.8
X221.5Y-142.8
X221.5Y-143.7
X221.5Y-144.7
X221.5Y-145.7
X221.6Y-70.3
X221.7Y-47.7
X221.7Y-48.7
X221.7Y-49.7
X221.7Y-95.6
X221.7Y-96.6
X221.7Y-97.6
X221.7Y-98.6
X221.7Y-99.6
X221.7Y-100.6
X221.7Y-113.0
X221.7Y-114.0
X221.7Y-115.0
X221.7Y-116.0
X221.7Y-117.0
X221.7Y-118.0
X221.8Y-66.5
X222.0Y-105.9
X222.0Y-106.9
X222.3Y-91.3
X222.3Y-92.2
X222.4Y-109.7
X222.4Y-124.8
X222.4Y-125.8
X222.4Y-126.8
X222.4Y-127.8
X222.4Y-128.8
X222.4Y-142.8
X222.4Y-143.7
X222.4Y-144.7
X222.4Y-145.7
X222.6Y-113.0
X222.6Y-114.0
X222.6Y-115.0
X222.6Y-116.0
X222.6Y-117.0
X222.6Y-118.0
X222.7Y-47.7
X222.7Y-48.7
X222.7Y-49.7
X222.8Y-66.5
X222.9Y-105.9
X222.9Y-106.9
X223.4Y-109.7
X223.4Y-142.8
X223.4Y-143.7
X223.4Y-144.7
X223.4Y-145.7
X223.6Y-47.7
X223.6Y-48.7
X223.6Y-49.7
X223.6Y-50.6
X223.6Y-51.6
X223.6Y-52.6
X223.6Y-53.7
X223.6Y-54.7
X223.6Y-55.7
X223.6Y-56.7
X223.6Y-57.7
X223.6Y-58.7
X223.7Y-118.8
X223.7Y-119.8
X223.7Y-120.8
X223.8Y-66.5
X224.3Y-142.8
X224.3Y-143.7
X224.3Y-144.7
X224.3Y-145.7
X224.5Y-47.7
X224.5Y-48.7
X224.5Y-49.7
X224.5Y-50.6
X224.5Y-51.6
X224.5Y-52.6
X224.5Y-53.7
X224.5Y-54.7
X224.5Y-55.7
X224.5Y-56.7
X224.5Y-57.7
X224.5Y-58.7
X224.6Y-118.8
X224.6Y-119.8
X224.6Y-120.8
X224.8Y-66.5
X224.9Y-64.4
X225.2Y-86.8
X225.2Y-87.8
X225.2Y-88.8
X225.2Y-89.8
X225.3Y-142.8
X225.3Y-143.7
X225.3Y-144.7
X225.3Y-145.7
X225.4Y-47.7
X225.4Y-48.7
X225.4Y-49.7
X225.4Y-50.6
X225.4Y-51.6
X225.4Y-52.6
X225.4Y-53.7
X225.4Y-54.7
X225.4Y-55.7
X225.4Y-56.7
X225.4Y-57.7
X225.4Y-58.7
X225.6Y-119.8
X225.6Y-120.8
X225.9Y-64.4
X226.2Y-85.8
X226.2Y-86.8
X226.2Y-87.8
X226.2Y-88.8
X226.2Y-89.8
X226.2Y-90.8
X226.2Y-91.7
X226.2Y-95.3
X226.2Y-96.3
X226.2Y-97.3
X226.2Y-98.3
X226.2Y-99.3
X226.2Y-100.3
X226.2Y-142.8
X226.2Y-143.7
X226.2Y-144.7
X226.2Y-145.7
X226.3Y-47.7
X226.3Y-48.7
X226.3Y-49.7
X226.3Y-50.6
X226.3Y-51.6
X226.3Y-52.6
X226.3Y-53.7
X226.3Y-54.7
X226.3Y-55.7
X226.3Y-56.7
X226.3Y-57.7
X226.3Y-58.7
X226.4Y-70.2
X226.6Y-121.7
X226.6Y-122.7
X226.6Y-123.7
X226.9Y-128.6
X226.9Y-129.6
X226.9Y-130.6
X227.1Y-85.8
X227.1Y-86.8
X227.1Y-87.8
X227.1Y-88.8
X227.1Y-89.8
X227.1Y-90.8
X227.1Y-91.7
X227.1Y-95.3
X227.1Y-96.3
X227.1Y-97.3
X227.1Y-98.3
X227.1Y-99.3
X227.1Y-142.8
X227.1Y-143.7
X227.1Y-144.7
X227.1Y-145.7
X227.3Y-50.6
X227.3Y-51.6
X227.3Y-52.6
X227.3Y-53.7
X227.3Y-54.7
X227.3Y-55.7
X227.3Y-56.7
X227.3Y-57.7
X227.3Y-58.7
X227.5Y-121.7
X227.5Y-122.7
X227.5Y-123.7
X227.6Y-47.7
X227.6Y-48.7
X227.6Y-49.7
X227.8Y-128.6
X227.8Y-129.6
X227.8Y-130.6
X228.1Y-85.8
X228.1Y-86.8
X228.1Y-87.8
X228.1Y-88.8
X228.1Y-89.8
X228.1Y-90.8
X228.1Y-91.7
X228.1Y-95.3
X228.1Y-96.3
X228.1Y-97.3
X228.1Y-98.3
X228.1Y-142.8
X228.1Y-143.7
X228.1Y-144.7
X228.1Y-145.7
X228.2Y-50.6
X228.2Y-51.6
X228.2Y-52.6
X228.2Y-53.7
X228.2Y-54.7
X228.2Y-55.7
X228.2Y-56.7
X228.2Y-57.7
X228.2Y-58.7
X228.2Y-72.7
X228.2Y-73.6
X228.2Y-74.6
X228.2Y-75.5
X228.2Y-76.5
X228.5Y-47.7
X228.5Y-48.7
X228.5Y-49.7
X228.5Y-122.7
X228.5Y-123.7
X228.8Y-129.6
X228.8Y-130.6
X229.0Y-85.8
X229.0Y-86.8
X229.0Y-87.8
X229.0Y-88.8
X229.0Y-89.8
X229.0Y-90.8
X229.0Y-91.7
X229.0Y-95.3
X229.0Y-96.3
X229.0Y-97.3
X229.0Y-142.8
X229.0Y-143.7
X229.0Y-144.7
X229.0Y-145.7
X229.1Y-50.6
X229.1Y-51.6
X229.1Y-52.6
X229.1Y-53.7
X229.1Y-54.7
X229.1Y-55.7
X229.1Y-56.7
X229.1Y-57.7
X229.1Y-58.7
X229.2Y-124.3
X229.2Y-125.3
X229.2Y-126.3
X229.4Y-47.7
X229.4Y-48.7
X229.4Y-49.7
X229.4Y-118.2
X229.4Y-119.2
X229.9Y-88.7
X229.9Y-89.7
X229.9Y-90.7
X229.9Y-91.7
X230.0Y-50.6
X230.0Y-51.6
X230.0Y-52.6
X230.0Y-53.7
X230.0Y-54.7
X230.0Y-55.7
X230.0Y-56.7
X230.0Y-57.7
X230.0Y-58.7
X230.0Y-95.3
X230.0Y-96.3
X230.0Y-142.8
X230.0Y-143.7
X230.0Y-144.7
X230.0Y-145.7
X230.1Y-124.3
X230.1Y-125.3
X230.1Y-126.3
X230.3Y-47.7
X230.3Y-48.7
X230.3Y-49.7
X230.4Y-118.2
X230.4Y-119.2
X230.4Y-120.2
X230.9Y-50.6
X230.9Y-51.6
X230.9Y-52.6
X230.9Y-53.7
X230.9Y-54.7
X230.9Y-55.7
X230.9Y-56.7
X230.9Y-57.7
X230.9Y-58.7
X230.9Y-95.3
X230.9Y-142.8
X230.9Y-143.7
X230.9Y-144.7
X230.9Y-145.7
X231.1Y-125.3
X231.1Y-126.3
X231.2Y-100.4
X231.3Y-47.7
X231.3Y-48.7
X231.3Y-49.7
X231.3Y-118.2
X231.3Y-119.2
X231.3Y-120.2
X231.8Y-142.8
X231.8Y-143.7
X231.8Y-144.7
X231.8Y-145.7
X231.9Y-50.6
X231.9Y-51.6
X231.9Y-52.6
X231.9Y-53.7
X231.9Y-54.7
X231.9Y-55.7
X231.9Y-56.7
X231.9Y-57.7
X231.9Y-58.7
X231.9Y-127.0
X231.9Y-128.0
X231.9Y-129.0
X232.0Y-120.8
X232.0Y-121.8
X232.1Y-99.4
X232.1Y-100.4
X232.2Y-47.7
X232.2Y-48.7
X232.2Y-49.7
X232.8Y-50.6
X232.8Y-51.6
X232.8Y-52.6
X232.8Y-53.7
X232.8Y-54.7
X232.8Y-55.7
X232.8Y-56.7
X232.8Y-57.7
X232.8Y-58.7
X232.8Y-127.0
X232.8Y-128.0
X232.8Y-129.0
X232.8Y-142.8
X232.8Y-143.7
X232.8Y-144.7
X232.8Y-145.7
X232.9Y-68.9
X232.9Y-69.8
X232.9Y-70.8
X232.9Y-71.7
X232.9Y-72.7
X232.9Y-73.6
X233.0Y-74.6
X233.0Y-75.6
X233.0Y-76.6
X233.0Y-77.6
X233.0Y-78.5
X233.0Y-79.5
X233.0Y-120.8
X233.0Y-121.8
X233.0Y-122.8
X233.1Y-47.7
X233.1Y-48.7
X233.1Y-49.7
X233.1Y-98.4
X233.1Y-99.4
X233.1Y-100.4
X233.7Y-50.6
X233.7Y-51.6
X233.7Y-52.6
X233.7Y-53.7
X233.7Y-54.7
X233.7Y-55.7
X233.7Y-56.7
X233.7Y-57.7
X233.7Y-58.7
X233.7Y-142.8
X233.7Y-143.7
X233.7Y-144.7
X233.7Y-145.7
X233.8Y-128.0
X233.8Y-129.0
X233.9Y-69.8
X233.9Y-70.8
X233.9Y-71.7
X233.9Y-72.7
X233.9Y-73.6
X233.9Y-74.6
X233.9Y-75.6
X233.9Y-76.6
X233.9Y-77.6
X233.9Y-78.5
X233.9Y-79.5
X233.9Y-120.8
X233.9Y-121.8
X233.9Y-122.8
X234.0Y-47.7
X234.0Y-48.7
X234.0Y-49.7
X234.0Y-97.4
X234.0Y-98.4
X234.0Y-99.4
X234.0Y-100.4
X234.6Y-50.6
X234.6Y-51.6
X234.6Y-52.6
X234.6Y-53.7
X234.6Y-54.7
X234.6Y-55.7
X234.6Y-56.7
X234.6Y-57.7
X234.6Y-58.7
X234.7Y-123.5
X234.7Y-124.5
X234.7Y-142.8
X234.7Y-143.7
X234.7Y-144.7
X234.7Y-145.7
X234.9Y-47.7
X234.9Y-48.7
X234.9Y-49.7
X234.9Y-70.8
X234.9Y-71.7
X234.9Y-72.7
X234.9Y-73.6
X234.9Y-74.6
X234.9Y-75.6
X234.9Y-76.6
X234.9Y-77.6
X234.9Y-78.5
X234.9Y-79.5
X235.0Y-96.4
X235.0Y-97.4
X235.0Y-98.4
X235.0Y-99.4
X235.0Y-100.4
X235.6Y-50.6
X235.6Y-51.6
X235.6Y-52.6
X235.6Y-53.7
X235.6Y-54.7
X235.6Y-55.7
X235.6Y-56.7
X235.6Y-57.7
X235.6Y-58.7
X235.6Y-142.8
X235.6Y-143.7
X235.6Y-144.7
X235.6Y-145.7
X235.7Y-123.5
X235.7Y-124.5
X235.7Y-125.5
X235.8Y-74.6
X235.8Y-75.6
X235.8Y-76.6
X235.8Y-77.6
X235.8Y-78.5
X235.8Y-79.5
X235.9Y-47.7
X235.9Y-48.7
X235.9Y-49.7
X235.9Y-71.7
X235.9Y-72.7
X235.9Y-73.6
X235.9Y-95.4
X235.9Y-96.4
X235.9Y-97.4
X235.9Y-98.4
X235.9Y-99.4
X235.9Y-100.4
X236.5Y-50.6
X236.5Y-51.6
X236.5Y-52.6
X236.5Y-53.7
X236.5Y-54.7
X236.5Y-55.7
X236.5Y-56.7
X236.5Y-57.7
X236.5Y-58.7
X236.5Y-142.8
X236.5Y-143.7
X236.5Y-144.7
X236.5Y-145.7
X236.6Y-123.5
X236.6Y-124.5
X236.6Y-125.5
X236.8Y-47.7
X236.8Y-48.7
X236.8Y-49.7
X236.9Y-72.7
X236.9Y-73.6
X236.9Y-74.6
X236.9Y-75.6
X236.9Y-76.6
X236.9Y-77.6
X236.9Y-78.5
X236.9Y-79.5
X237.3Y-126.1
X237.3Y-127.1
X237.4Y-50.6
X237.4Y-51.6
X237.4Y-52.6
X237.4Y-53.7
X237.4Y-54.7
X237.4Y-55.7
X237.4Y-56.7
X237.4Y-57.7
X237.4Y-58.7
X237.4Y-142.8
X237.4Y-143.7
X237.4Y-144.7
X237.4Y-145.7
X237.7Y-47.7
X237.7Y-48.7
X237.7Y-49.7
X237.8Y-74.6
X237.8Y-75.6
X237.8Y-76.6
X237.8Y-77.6
X237.8Y-78.5
X237.8Y-79.5
X237.9Y-73.6
X238.3Y-50.6
X238.3Y-51.6
X238.3Y-52.6
X238.3Y-53.7
X238.3Y-54.7
X238.3Y-55.7
X238.3Y-56.7
X238.3Y-57.7
X238.3Y-58.7
X238.3Y-126.1
X238.3Y-127.1
X238.3Y-128.1
X238.3Y-142.8
X238.3Y-143.7
X238.3Y-144.7
X238.3Y-145.7
X238.6Y-47.7
X238.6Y-48.7
X238.6Y-49.7
X239.2Y-50.6
X239.2Y-51.6
X239.2Y-52.6
X239.2Y-53.7
X239.2Y-54.7
X239.2Y-55.7
X239.2Y-56.7
X239.2Y-57.7
X239.2Y-58.7
X239.2Y-126.1
X239.2Y-127.1
X239.2Y-128.1
X239.3Y-142.8
X239.3Y-143.7
X239.3Y-144.7
X239.3Y-145.7
X239.6Y-47.7
X239.6Y-48.7
X239.6Y-49.7
X240.2Y-50.6
X240.2Y-51.6
X240.2Y-52.6
X240.2Y-53.7
X240.2Y-54.7
X240.2Y-55.7
X240.2Y-56.7
X240.2Y-57.7
X240.2Y-58.7
X240.2Y-142.8
X240.2Y-143.7
X240.2Y-144.7
X240.2Y-145.7
X240.5Y-47.7
X240.5Y-48.7
X240.5Y-49.7
X241.1Y-142.8
X241.1Y-143.7
X241.1Y-144.7
X241.1Y-145.7
X241.4Y-47.7
X241.4Y-48.7
X241.4Y-49.7
X241.4Y-50.7
X241.4Y-51.7
X241.4Y-52.7
X241.4Y-53.8
X241.4Y-54.8
X241.4Y-55.8
X241.4Y-56.8
X241.4Y-57.8
X241.4Y-58.8
X242.1Y-142.8
X242.1Y-143.7
X242.1Y-144.7
X242.1Y-145.7
X242.3Y-47.7
X242.3Y-48.7
X242.3Y-49.7
X242.3Y-50.7
X242.3Y-51.7
X242.3Y-52.7
X242.3Y-53.8
X242.3Y-54.8
X242.3Y-55.8
X242.3Y-56.8
X242.3Y-57.8
X242.3Y-58.8
X242.3Y-59.9
X242.3Y-60.9
X242.3Y-61.9
X242.3Y-62.9
X242.3Y-63.9
X242.3Y-64.9
X242.3Y-66.0
X242.3Y-67.0
X242.3Y-68.0
X242.3Y-69.0
X242.3Y-70.0
X242.3Y-71.0
X242.3Y-72.2
X242.3Y-73.2
X242.3Y-74.2
X242.3Y-75.2
X242.3Y-76.2
X242.3Y-77.2
X242.3Y-78.3
X242.3Y-79.3
X242.3Y-80.3
X242.3Y-81.3
X242.3Y-82.3
X242.3Y-83.3
X243.0Y-142.8
X243.0Y-143.7
X243.0Y-144.7
X243.0Y-145.7
X243.2Y-47.7
X243.2Y-48.7
X243.2Y-49.7
X243.2Y-50.7
X243.2Y-51.7
X243.2Y-52.7
X243.2Y-53.8
X243.2Y-54.8
X243.2Y-55.8
X243.2Y-56.8
X243.2Y-57.8
X243.2Y-58.8
X243.2Y-59.9
X243.2Y-60.9
X243.2Y-61.9
X243.2Y-62.9
X243.2Y-63.9
X243.2Y-64.9
X243.2Y-66.0
X243.2Y-67.0
X243.2Y-68.0
X243.2Y-69.0
X243.2Y-70.0
X243.2Y-71.0
X243.2Y-72.2
X243.2Y-73.2
X243.2Y-74.2
X243.2Y-75.2
X243.2Y-76.2
X243.2Y-77.2
X243.2Y-78.3
X243.2Y-79.3
X243.2Y-80.3
X243.2Y-81.3
X243.2Y-82.3
X243.2Y-83.3
X244.0Y-142.8
X244.0Y-143.7
X244.0Y-144.7
X244.0Y-145.7
X244.1Y-50.7
X244.1Y-51.7
X244.1Y-52.7
X244.1Y-53.8
X244.1Y-54.8
X244.1Y-55.8
X244.1Y-56.8
X244.1Y-57.8
X244.1Y-58.8
X244.1Y-62.9
X244.1Y-63.9
X244.1Y-64.9
X244.1Y-66.0
X244.1Y-67.0
X244.1Y-68.0
X244.1Y-69.0
X244.1Y-70.0
X244.1Y-71.0
X244.1Y-75.2
X244.1Y-76.2
X244.1Y-77.2
X244.1Y-78.3
X244.1Y-79.3
X244.1Y-80.3
X244.1Y-81.3
X244.1Y-82.3
X244.1Y-83.3
X244.1Y-87.4
X244.1Y-88.4
X244.1Y-89.4
X244.1Y-90.5
X244.1Y-91.5
X244.1Y-92.5
X244.1Y-93.5
X244.1Y-94.5
X244.1Y-95.5
X244.1Y-99.7
X244.1Y-100.7
X244.1Y-101.7
X244.1Y-102.8
X244.1Y-103.8
X244.1Y-104.8
X244.1Y-105.8
X244.1Y-106.8
X244.1Y-107.8
X244.1Y-111.8
X244.1Y-112.8
X244.1Y-113.8
X244.1Y-114.9
X244.1Y-115.9
X244.1Y-116.9
X244.1Y-117.9
X244.1Y-118.9
X244.1Y-119.9
X244.1Y-124.1
X244.1Y-125.1
X244.1Y-126.1
X244.1Y-127.2
X244.1Y-128.2
X244.1Y-129.2
X244.3Y-47.7
X244.3Y-48.7
X244.3Y-49.7
X244.3Y-59.9
X244.3Y-60.9
X244.3Y-61.9
X244.3Y-72.2
X244.3Y-73.2
X244.3Y-74.2
X244.3Y-84.4
X244.3Y-85.4
X244.3Y-86.4
X244.3Y-96.7
X244.3Y-97.7
X244.3Y-98.7
X244.3Y-108.8
X244.3Y-109.8
X244.3Y-110.8
X244.3Y-121.1
X244.3Y-122.1
X244.3Y-123.1
X244.9Y-142.8
X244.9Y-143.7
X244.9Y-144.7
X244.9Y-145.7
X245.0Y-50.7
X245.0Y-51.7
X245.0Y-52.7
X245.0Y-53.8
X245.0Y-54.8
X245.0Y-55.8
X245.0Y-56.8
X245.0Y-57.8
X245.0Y-58.8
X245.0Y-62.9
X245.0Y-63.9
X245.0Y-64.9
X245.0Y-66.0
X245.0Y-67.0
X245.0Y-68.0
X245.0Y-69.0
X245.0Y-70.0
X245.0Y-71.0
X245.0Y-75.2
X245.0Y-76.2
X245.0Y-77.2
X245.0Y-78.3
X245.0Y-79.3
X245.0Y-80.3
X245.0Y-81.3
X245.0Y-82.3
X245.0Y-83.3
X245.0Y-87.4
X245.0Y-88.4
X245.0Y-89.4
X245.0Y-90.5
X245.0Y-91.5
X245.0Y-92.5
X245.0Y-93.5
X245.0Y-94.5
X245.0Y-95.5
X245.0Y-99.7
X245.0Y-100.7
X245.0Y-101.7
X245.0Y-102.8
X245.0Y-103.8
X245.0Y-104.8
X245.0Y-105.8
X245.0Y-106.8
X245.0Y-107.8
X245.0Y-111.8
X245.0Y-112.8
X245.0Y-113.8
X245.0Y-114.9
X245.0Y-115.9
X245.0Y-116.9
X245.0Y-117.9
X245.0Y-118.9
X245.0Y-119.9
X245.0Y-124.1
X245.0Y-125.1
X245.0Y-126.1
X245.0Y-127.2
X245.0Y-128.2
X245.0Y-129.2
X245.2Y-47.7
X245.2Y-48.7
X245.2Y-49.7
X245.2Y-59.9
X245.2Y-60.9
X245.2Y-61.9
X245.2Y-72.2
X245.2Y-73.2
X245.2Y-74.2
X245.2Y-84.4
X245.2Y-85.4
X245.2Y-86.4
X245.2Y-96.7
X245.2Y-97.7
X245.2Y-98.7
X245.2Y-108.8
X245.2Y-109.8
X245.2Y-110.8
X245.2Y-121.1
X245.2Y-122.1
X245.2Y-123.1
X245.8Y-142.8
X245.8Y-143.7
X245.8Y-144.7
X245.8Y-145.7
X246.0Y-50.7
X246.0Y-51.7
X246.0Y-52.7
X246.0Y-53.8
X246.0Y-54.8
X246.0Y-55.8
X246.0Y-56.8
X246.0Y-57.8
X246.0Y-58.8
X246.0Y-62.9
X246.0Y-63.9
X246.0Y-64.9
X246.0Y-66.0
X246.0Y-67.0
X246.0Y-68.0
X246.0Y-69.0
X246.0Y-70.0
X246.0Y-71.0
X246.0Y-75.2
X246.0Y-76.2
X246.0Y-77.2
X246.0Y-78.3
X246.0Y-79.3
X246.0Y-80.3
X246.0Y-81.3
X246.0Y-82.3
X246.0Y-83.3
X246.0Y-87.4
X246.0Y-88.4
X246.0Y-89.4
X246.0Y-90.5
X246.0Y-91.5
X246.0Y-92.5
X246.0Y-93.5
X246.0Y-94.5
X246.0Y-95.5
X246.0Y-99.7
X246.0Y-100.7
X246.0Y-101.7
X246.0Y-102.8
X246.0Y-103.8
X246.0Y-104.8
X246.0Y-105.8
X246.0Y-106.8
X246.0Y-107.8
X246.0Y-111.8
X246.0Y-112.8
X246.0Y-113.8
X246.0Y-114.9
X246.0Y-115.9
X246.0Y-116.9
X246.0Y-117.9
X246.0Y-118.9
X246.0Y-119.9
X246.0Y-124.1
X246.0Y-125.1
X246.0Y-126.1
X246.0Y-127.2
X246.0Y-128.2
X246.0Y-129.2
X246.1Y-47.7
X246.1Y-48.7
X246.1Y-49.7
X246.1Y-59.9
X246.1Y-60.9
X246.1Y-61.9
X246.1Y-72.2
X246.1Y-73.2
X246.1Y-74.2
X246.1Y-84.4
X246.1Y-85.4
X246.1Y-86.4
X246.1Y-96.7
X246.1Y-97.7
X246.1Y-98.7
X246.1Y-108.8
X246.1Y-109.8
X246.1Y-110.8
X246.1Y-121.1
X246.1Y-122.1
X246.1Y-123.1
X247.0Y-47.7
X247.0Y-48.7
X247.0Y-49.7
X247.0Y-50.7
X247.0Y-51.7
X247.0Y-52.7
X247.0Y-53.8
X247.0Y-54.8
X247.0Y-55.8
X247.0Y-56.8
X247.0Y-57.8
X247.0Y-58.8
X247.0Y-59.9
X247.0Y-60.9
X247.0Y-61.9
X247.0Y-62.9
X247.0Y-63.9
X247.0Y-64.9
X247.0Y-66.0
X247.0Y-67.0
X247.0Y-68.0
X247.0Y-69.0
X247.0Y-70.0
X247.0Y-71.0
X247.0Y-72.2
X247.0Y-73.2
X247.0Y-74.2
X247.0Y-75.2
X247.0Y-76.2
X247.0Y-77.2
X247.0Y-78.3
X247.0Y-79.3
X247.0Y-80.3
X247.0Y-81.3
X247.0Y-82.3
X247.0Y-83.3
X247.0Y-84.4
X247.0Y-85.4
X247.0Y-86.4
X247.0Y-87.4
X247.0Y-88.4
X247.0Y-89.4
X247.0Y-90.5
X247.0Y-91.5
X247.0Y-92.5
X247.0Y-93.5
X247.0Y-94.5
X247.0Y-95.5
X247.0Y-96.7
X247.0Y-97.7
X247.0Y-98.7
X247.0Y-99.7
X247.0Y-100.7
X247.0Y-101.7
X247.0Y-102.8
X247.0Y-103.8
X247.0Y-104.8
X247.0Y-105.8
X247.0Y-106.8
X247.0Y-107.8
X247.0Y-108.8
X247.0Y-109.8
X247.0Y-110.8
X247.0Y-111.8
X247.0Y-112.8
X247.0Y-113.8
X247.0Y-114.9
X247.0Y-115.9
X247.0Y-116.9
X247.0Y-117.9
X247.0Y-118.9
X247.0Y-119.9
X247.0Y-121.1
X247.0Y-122.1
X247.0Y-123.1
X247.0Y-124.1
X247.0Y-125.1
X247.0Y-126.1
X247.0Y-127.2
X247.0Y-128.2
X247.0Y-129.2
X248.0Y-47.7
X248.0Y-48.7
X248.0Y-49.7
X248.0Y-50.7
X248.0Y-51.7
X248.0Y-52.7
X248.0Y-53.8
X248.0Y-54.8
X248.0Y-55.8
X248.0Y-56.8
X248.0Y-57.8
X248.0Y-58.8
X248.0Y-59.9
X248.0Y-60.9
X248.0Y-61.9
X248.0Y-62.9
X248.0Y-63.9
X248.0Y-64.9
X248.0Y-66.0
X248.0Y-67.0
X248.0Y-68.0
X248.0Y-69.0
X248.0Y-70.0
X248.0Y-71.0
X248.0Y-72.2
X248.0Y-73.2
X248.0Y-74.2
X248.0Y-75.2
X248.0Y-76.2
X248.0Y-77.2
X248.0Y-78.3
X248.0Y-79.3
X248.0Y-80.3
X248.0Y-81.3
X248.0Y-82.3
X248.0Y-83.3
X248.0Y-84.4
X248.0Y-85.4
X248.0Y-86.4
X248.0Y-87.4
X248.0Y-88.4
X248.0Y-89.4
X248.0Y-90.5
X248.0Y-91.5
X248.0Y-92.5
X248.0Y-93.5
X248.0Y-94.5
X248.0Y-95.5
X248.0Y-96.7
X248.0Y-97.7
X248.0Y-98.7
X248.0Y-99.7
X248.0Y-100.7
X248.0Y-101.7
X248.0Y-102.8
X248.0Y-103.8
X248.0Y-104.8
X248.0Y-105.8
X248.0Y-106.8
X248.0Y-107.8
X248.0Y-108.8
X248.0Y-109.8
X248.0Y-110.8
X248.0Y-111.8
X248.0Y-112.8
X248.0Y-113.8
X248.0Y-114.9
X248.0Y-115.9
X248.0Y-116.9
X248.0Y-117.9
X248.0Y-118.9
X248.0Y-119.9
X248.0Y-121.1
X248.0Y-122.1
X248.0Y-123.1
X248.0Y-124.1
X248.0Y-125.1
X248.0Y-126.1
X248.0Y-127.2
X248.0Y-128.2
X248.0Y-129.2
T2
X88.5Y-92.0
X103.5Y-92.0
X119.5Y-92.5
X134.5Y-92.5
X147.535Y-61.0
X148.535Y-62.0
X149.5Y-92.5
X164.035Y-73.0
X165.0Y-92.5
X170.5Y-103.5
X176.535Y-77.0
X177.535Y-76.0
X179.5Y-92.5
X185.535Y-101.0
X186.535Y-100.0
X190.0Y-62.5
X191.535Y-99.0
X191.535Y-101.0
X191.535Y-104.0
X191.535Y-105.0
X193.5Y-64.0
X193.535Y-75.0
X194.535Y-105.0
X196.535Y-118.0
X198.535Y-101.0
X198.535Y-104.0
X199.535Y-92.0
X203.5Y-89.0
X205.5Y-137.5
X207.535Y-92.0
X212.0Y-92.5
X213.535Y-121.0
X214.535Y-122.0
X218.535Y-113.0
X219.535Y-113.0
X222.0Y-84.0
X222.535Y-90.0
X223.535Y-90.0
X223.535Y-96.0
X224.535Y-96.0
X225.0Y-107.5
T3
X71.785Y-82.75
X71.785Y-85.25
X72.285Y-121.25
X72.285Y-123.75
X76.785Y-83.09
X76.785Y-93.25
X77.285Y-121.09
X77.285Y-131.25
X79.785Y-83.09
X79.785Y-93.25
X80.285Y-121.09
X80.285Y-131.25
X87.285Y-82.67
X87.285Y-85.17
X87.785Y-121.75
X87.785Y-124.25
X92.285Y-83.09
X92.285Y-93.25
X92.785Y-121.67
X92.785Y-131.83
X95.285Y-83.09
X95.285Y-93.25
X95.785Y-121.67
X95.785Y-131.83
X102.535Y-82.92
X102.535Y-85.42
X102.785Y-121.75
X102.785Y-124.25
X107.535Y-83.34
X107.535Y-93.5
X108.035Y-121.84
X108.035Y-132.0
X108.305Y-107.75
X108.305Y-115.37
X110.535Y-58.0
X110.535Y-68.16
X110.535Y-83.34
X110.535Y-93.5
X110.845Y-107.75
X110.845Y-115.37
X111.035Y-121.84
X111.035Y-132.0
X113.385Y-107.75
X113.385Y-115.37
X115.535Y-58.0
X115.535Y-68.16
X115.925Y-107.75
X115.925Y-115.37
X117.785Y-83.25
X117.785Y-85.75
X118.285Y-122.25
X118.285Y-124.75
X118.465Y-107.75
X118.465Y-115.37
X121.005Y-107.75
X121.005Y-115.37
X122.785Y-83.59
X122.785Y-93.75
X123.285Y-122.17
X123.285Y-132.33
X123.545Y-107.75
X123.545Y-115.37
X125.785Y-83.59
X125.785Y-93.75
X126.085Y-107.75
X126.085Y-115.37
X126.285Y-122.17
X126.285Y-132.33
X128.625Y-107.75
X128.625Y-115.37
X131.165Y-107.75
X131.165Y-115.37
X132.785Y-83.75
X132.785Y-86.25
X133.285Y-122.25
X133.285Y-124.75
X133.705Y-107.75
X133.705Y-115.37
X136.245Y-107.75
X136.245Y-115.37
X138.035Y-83.84
X138.035Y-94.0
X138.285Y-122.25
X138.285Y-132.41
X138.785Y-107.75
X138.785Y-115.37
X141.035Y-83.84
X141.035Y-94.0
X141.285Y-122.25
X141.285Y-132.41
X141.325Y-107.75
X141.325Y-115.37
X146.455Y-111.5
X147.785Y-83.75
X147.785Y-86.25
X148.285Y-122.25
X148.285Y-124.75
X153.285Y-84.09
X153.285Y-94.25
X153.285Y-122.67
X153.285Y-132.83
X156.285Y-84.09
X156.285Y-94.25
X156.285Y-122.67
X156.285Y-132.83
X156.615Y-111.5
X156.625Y-53.25
X163.035Y-84.0
X163.035Y-86.5
X163.785Y-122.75
X163.785Y-125.25
X166.785Y-53.25
X168.285Y-84.09
X168.285Y-94.25
X168.535Y-122.84
X168.535Y-133.0
X171.285Y-84.09
X171.285Y-94.25
X171.535Y-122.84
X171.535Y-133.0
X177.785Y-84.0
X177.785Y-86.5
X178.785Y-123.25
X178.785Y-125.75
X183.285Y-84.09
X183.285Y-94.25
X183.785Y-123.17
X183.785Y-133.33
X186.285Y-84.09
X186.285Y-94.25
X186.785Y-123.17
X186.785Y-133.33
X191.535Y-141.0
X191.535Y-143.5
X196.535Y-108.5
X196.535Y-111.0
X196.535Y-141.0
X196.535Y-143.5
X201.535Y-141.0
X201.535Y-143.5
X202.475Y-98.24
X202.475Y-100.78
X202.475Y-103.32
X202.475Y-105.86
X202.475Y-108.4
X202.475Y-110.94
X202.475Y-113.48
X202.475Y-116.02
X202.475Y-118.56
X202.475Y-121.1
X202.475Y-123.64
X202.475Y-126.18
X202.475Y-128.72
X202.475Y-131.26
X203.075Y-65.8
X203.075Y-68.3
X206.535Y-141.0
X206.535Y-143.5
X209.795Y-60.8
X209.795Y-68.42
X210.095Y-98.24
X210.095Y-100.78
X210.095Y-103.32
X210.095Y-105.86
X210.095Y-108.4
X210.095Y-110.94
X210.095Y-113.48
X210.095Y-116.02
X210.095Y-118.56
X210.095Y-121.1
X210.095Y-123.64
X210.095Y-126.18
X210.095Y-128.72
X210.095Y-131.26
X211.075Y-72.3
X212.335Y-60.8
X212.335Y-68.42
X213.575Y-72.3
X214.875Y-60.8
X214.875Y-68.42
X217.415Y-60.8
X217.415Y-68.42
X217.535Y-72.3
X219.955Y-60.8
X219.955Y-68.42
X220.035Y-72.3
X222.495Y-60.8
X222.495Y-68.42
X222.915Y-135.5
X224.575Y-76.3
X224.575Y-78.8
X225.035Y-60.8
X225.035Y-68.42
X225.455Y-138.04
X227.575Y-60.8
X227.575Y-68.42
X227.995Y-135.5
X230.035Y-107.56
X230.035Y-112.44
X232.535Y-81.92
X232.535Y-92.08
X236.785Y-107.5
X236.785Y-112.5
X238.455Y-135.5
X239.285Y-107.5
X239.285Y-112.5
X239.535Y-81.84
X239.535Y-92.0
X240.995Y-138.04
X243.535Y-135.5
T4
X110.455Y-52.5
X112.995Y-52.5
X115.535Y-52.5
T5
X67.535Y-66.0
X67.535Y-70.5
X67.785Y-95.25
X67.785Y-99.75
X68.285Y-133.25
X68.285Y-137.75
X74.035Y-66.0
X74.035Y-70.5
X74.285Y-95.25
X74.285Y-99.75
X74.785Y-133.25
X74.785Y-137.75
X83.285Y-66.25
X83.285Y-70.75
X83.285Y-95.25
X83.285Y-99.75
X83.785Y-133.83
X83.785Y-138.33
X89.785Y-66.25
X89.785Y-70.75
X89.785Y-95.25
X89.785Y-99.75
X90.285Y-133.83
X90.285Y-138.33
X98.535Y-95.5
X98.535Y-100.0
X99.035Y-134.0
X99.035Y-138.5
X105.035Y-95.5
X105.035Y-100.0
X105.535Y-134.0
X105.535Y-138.5
X113.785Y-95.75
X113.785Y-100.25
X114.285Y-134.33
X114.285Y-138.83
X120.285Y-95.75
X120.285Y-100.25
X120.785Y-134.33
X120.785Y-138.83
X129.035Y-96.0
X129.035Y-100.5
X129.285Y-134.41
X129.285Y-138.91
X131.505Y-53.25
X134.045Y-53.25
X135.535Y-96.0
X135.535Y-100.5
X135.785Y-134.41
X135.785Y-138.91
X136.585Y-53.25
X139.125Y-53.25
X141.665Y-53.25
X144.205Y-53.25
X144.285Y-96.25
X144.285Y-100.75
X144.285Y-134.83
X144.285Y-139.33
X146.745Y-53.25
X149.285Y-53.25
X150.785Y-96.25
X150.785Y-100.75
X150.785Y-134.83
X150.785Y-139.33
X159.285Y-96.25
X159.285Y-100.75
X159.535Y-135.0
X159.535Y-139.5
X165.785Y-96.25
X165.785Y-100.75
X166.035Y-135.0
X166.035Y-139.5
X174.285Y-96.25
X174.285Y-100.75
X174.785Y-135.33
X174.785Y-139.83
X179.955Y-67.0
X180.785Y-96.25
X180.785Y-100.75
X181.285Y-135.33
X181.285Y-139.83
X182.495Y-67.0
X185.035Y-67.0
X187.575Y-67.0
X190.115Y-67.0
X215.075Y-53.3
X217.615Y-53.3
X220.155Y-53.3
M30
