%TF.GenerationSoftware,KiCad,Pcbnew,10.0.0*%
%TF.CreationDate,2026-04-13T00:54:44-04:00*%
%TF.ProjectId,usb-controller-32,7573622d-636f-46e7-9472-6f6c6c65722d,rev?*%
%TF.SameCoordinates,Original*%
%TF.FileFunction,Soldermask,Bot*%
%TF.FilePolarity,Negative*%
%FSLAX46Y46*%
G04 Gerber Fmt 4.6, Leading zero omitted, Abs format (unit mm)*
G04 Created by KiCad (PCBNEW 10.0.0) date 2026-04-13 00:54:44*
%MOMM*%
%LPD*%
G01*
G04 APERTURE LIST*
G04 Aperture macros list*
%AMRoundRect*
0 Rectangle with rounded corners*
0 $1 Rounding radius*
0 $2 $3 $4 $5 $6 $7 $8 $9 X,Y pos of 4 corners*
0 Add a 4 corners polygon primitive as box body*
4,1,4,$2,$3,$4,$5,$6,$7,$8,$9,$2,$3,0*
0 Add four circle primitives for the rounded corners*
1,1,$1+$1,$2,$3*
1,1,$1+$1,$4,$5*
1,1,$1+$1,$6,$7*
1,1,$1+$1,$8,$9*
0 Add four rect primitives between the rounded corners*
20,1,$1+$1,$2,$3,$4,$5,0*
20,1,$1+$1,$4,$5,$6,$7,0*
20,1,$1+$1,$6,$7,$8,$9,0*
20,1,$1+$1,$8,$9,$2,$3,0*%
G04 Aperture macros list end*
%ADD10R,1.700000X1.700000*%
%ADD11C,1.700000*%
%ADD12C,1.600000*%
%ADD13C,1.500000*%
%ADD14RoundRect,0.250000X0.550000X0.550000X-0.550000X0.550000X-0.550000X-0.550000X0.550000X-0.550000X0*%
%ADD15C,1.440000*%
%ADD16RoundRect,0.250000X0.550000X-0.550000X0.550000X0.550000X-0.550000X0.550000X-0.550000X-0.550000X0*%
%ADD17R,1.800000X1.800000*%
%ADD18C,1.800000*%
G04 APERTURE END LIST*
D10*
%TO.C,J3*%
X220155000Y-53300000D03*
D11*
X217615000Y-53300000D03*
X215075000Y-53300000D03*
%TD*%
D12*
%TO.C,R38*%
X156615000Y-111500000D03*
X146455000Y-111500000D03*
%TD*%
%TO.C,R9*%
X122785000Y-93750000D03*
X122785000Y-83590000D03*
%TD*%
%TO.C,C8*%
X71785000Y-85250000D03*
X71785000Y-82750000D03*
%TD*%
D10*
%TO.C,J2*%
X149285000Y-53250000D03*
D11*
X146745000Y-53250000D03*
X144205000Y-53250000D03*
X141665000Y-53250000D03*
X139125000Y-53250000D03*
X136585000Y-53250000D03*
X134045000Y-53250000D03*
X131505000Y-53250000D03*
%TD*%
D12*
%TO.C,C25*%
X224575000Y-78800000D03*
X224575000Y-76300000D03*
%TD*%
%TO.C,R32*%
X186785000Y-133330000D03*
X186785000Y-123170000D03*
%TD*%
%TO.C,C14*%
X148285000Y-124750000D03*
X148285000Y-122250000D03*
%TD*%
%TO.C,R25*%
X138285000Y-132410000D03*
X138285000Y-122250000D03*
%TD*%
%TO.C,R4*%
X171285000Y-94250000D03*
X171285000Y-84090000D03*
%TD*%
%TO.C,R2*%
X183285000Y-94250000D03*
X183285000Y-84090000D03*
%TD*%
%TO.C,R1*%
X186285000Y-94250000D03*
X186285000Y-84090000D03*
%TD*%
D11*
%TO.C,SW13*%
X99035000Y-134000000D03*
X105535000Y-134000000D03*
X99035000Y-138500000D03*
X105535000Y-138500000D03*
%TD*%
D12*
%TO.C,R13*%
X92285000Y-93250000D03*
X92285000Y-83090000D03*
%TD*%
%TO.C,R12*%
X110535000Y-93500000D03*
X110535000Y-83340000D03*
%TD*%
%TO.C,R22*%
X111035000Y-132000000D03*
X111035000Y-121840000D03*
%TD*%
D13*
%TO.C,Y1*%
X230035000Y-112440000D03*
X230035000Y-107560000D03*
%TD*%
D12*
%TO.C,R33*%
X115535000Y-58000000D03*
X115535000Y-68160000D03*
%TD*%
%TO.C,R27*%
X153285000Y-132830000D03*
X153285000Y-122670000D03*
%TD*%
%TO.C,C13*%
X133285000Y-124750000D03*
X133285000Y-122250000D03*
%TD*%
%TO.C,R34*%
X110535000Y-58000000D03*
X110535000Y-68160000D03*
%TD*%
%TO.C,R6*%
X156285000Y-94250000D03*
X156285000Y-84090000D03*
%TD*%
D11*
%TO.C,SW14*%
X114285000Y-134330000D03*
X120785000Y-134330000D03*
X114285000Y-138830000D03*
X120785000Y-138830000D03*
%TD*%
%TO.C,SW10*%
X67785000Y-95250000D03*
X74285000Y-95250000D03*
X67785000Y-99750000D03*
X74285000Y-99750000D03*
%TD*%
D12*
%TO.C,C24*%
X203075000Y-68300000D03*
X203075000Y-65800000D03*
%TD*%
%TO.C,R14*%
X95285000Y-93250000D03*
X95285000Y-83090000D03*
%TD*%
%TO.C,C9*%
X72285000Y-123750000D03*
X72285000Y-121250000D03*
%TD*%
%TO.C,R26*%
X141285000Y-132410000D03*
X141285000Y-122250000D03*
%TD*%
%TO.C,C6*%
X102535000Y-85420000D03*
X102535000Y-82920000D03*
%TD*%
D11*
%TO.C,SW9*%
X83285000Y-95250000D03*
X89785000Y-95250000D03*
X83285000Y-99750000D03*
X89785000Y-99750000D03*
%TD*%
D12*
%TO.C,R28*%
X156285000Y-132830000D03*
X156285000Y-122670000D03*
%TD*%
%TO.C,R31*%
X183785000Y-133330000D03*
X183785000Y-123170000D03*
%TD*%
D11*
%TO.C,SW6*%
X129035000Y-96000000D03*
X135535000Y-96000000D03*
X129035000Y-100500000D03*
X135535000Y-100500000D03*
%TD*%
D12*
%TO.C,C3*%
X147785000Y-86250000D03*
X147785000Y-83750000D03*
%TD*%
%TO.C,R37*%
X232535000Y-81920000D03*
X232535000Y-92080000D03*
%TD*%
D11*
%TO.C,SW16*%
X144285000Y-134830000D03*
X150785000Y-134830000D03*
X144285000Y-139330000D03*
X150785000Y-139330000D03*
%TD*%
D12*
%TO.C,C23*%
X201535000Y-141000000D03*
X201535000Y-143500000D03*
%TD*%
%TO.C,R7*%
X138035000Y-94000000D03*
X138035000Y-83840000D03*
%TD*%
D14*
%TO.C,U1*%
X210095000Y-131260000D03*
D12*
X210095000Y-128720000D03*
X210095000Y-126180000D03*
X210095000Y-123640000D03*
X210095000Y-121100000D03*
X210095000Y-118560000D03*
X210095000Y-116020000D03*
X210095000Y-113480000D03*
X210095000Y-110940000D03*
X210095000Y-108400000D03*
X210095000Y-105860000D03*
X210095000Y-103320000D03*
X210095000Y-100780000D03*
X210095000Y-98240000D03*
X202475000Y-98240000D03*
X202475000Y-100780000D03*
X202475000Y-103320000D03*
X202475000Y-105860000D03*
X202475000Y-108400000D03*
X202475000Y-110940000D03*
X202475000Y-113480000D03*
X202475000Y-116020000D03*
X202475000Y-118560000D03*
X202475000Y-121100000D03*
X202475000Y-123640000D03*
X202475000Y-126180000D03*
X202475000Y-128720000D03*
X202475000Y-131260000D03*
%TD*%
D11*
%TO.C,SW12*%
X83785000Y-133830000D03*
X90285000Y-133830000D03*
X83785000Y-138330000D03*
X90285000Y-138330000D03*
%TD*%
D12*
%TO.C,C10*%
X87785000Y-124250000D03*
X87785000Y-121750000D03*
%TD*%
%TO.C,C12*%
X118285000Y-124750000D03*
X118285000Y-122250000D03*
%TD*%
%TO.C,R19*%
X92785000Y-131830000D03*
X92785000Y-121670000D03*
%TD*%
%TO.C,C26*%
X220035000Y-72300000D03*
X217535000Y-72300000D03*
%TD*%
%TO.C,R10*%
X125785000Y-93750000D03*
X125785000Y-83590000D03*
%TD*%
%TO.C,C16*%
X178785000Y-125750000D03*
X178785000Y-123250000D03*
%TD*%
D15*
%TO.C,RV1*%
X222915000Y-135500000D03*
X225455000Y-138040000D03*
X227995000Y-135500000D03*
%TD*%
D12*
%TO.C,C27*%
X213575000Y-72300000D03*
X211075000Y-72300000D03*
%TD*%
D11*
%TO.C,SW3*%
X174285000Y-96250000D03*
X180785000Y-96250000D03*
X174285000Y-100750000D03*
X180785000Y-100750000D03*
%TD*%
D12*
%TO.C,R35*%
X166785000Y-53250000D03*
X156625000Y-53250000D03*
%TD*%
%TO.C,R18*%
X80285000Y-131250000D03*
X80285000Y-121090000D03*
%TD*%
%TO.C,R17*%
X77285000Y-131250000D03*
X77285000Y-121090000D03*
%TD*%
D11*
%TO.C,SW11*%
X68285000Y-133250000D03*
X74785000Y-133250000D03*
X68285000Y-137750000D03*
X74785000Y-137750000D03*
%TD*%
%TO.C,SW15*%
X129285000Y-134410000D03*
X135785000Y-134410000D03*
X129285000Y-138910000D03*
X135785000Y-138910000D03*
%TD*%
%TO.C,SW5*%
X144285000Y-96250000D03*
X150785000Y-96250000D03*
X144285000Y-100750000D03*
X150785000Y-100750000D03*
%TD*%
D12*
%TO.C,R3*%
X168285000Y-94250000D03*
X168285000Y-84090000D03*
%TD*%
%TO.C,C2*%
X163035000Y-86500000D03*
X163035000Y-84000000D03*
%TD*%
%TO.C,C4*%
X132785000Y-86250000D03*
X132785000Y-83750000D03*
%TD*%
D16*
%TO.C,U3*%
X108305000Y-115370000D03*
D12*
X110845000Y-115370000D03*
X113385000Y-115370000D03*
X115925000Y-115370000D03*
X118465000Y-115370000D03*
X121005000Y-115370000D03*
X123545000Y-115370000D03*
X126085000Y-115370000D03*
X128625000Y-115370000D03*
X131165000Y-115370000D03*
X133705000Y-115370000D03*
X136245000Y-115370000D03*
X138785000Y-115370000D03*
X141325000Y-115370000D03*
X141325000Y-107750000D03*
X138785000Y-107750000D03*
X136245000Y-107750000D03*
X133705000Y-107750000D03*
X131165000Y-107750000D03*
X128625000Y-107750000D03*
X126085000Y-107750000D03*
X123545000Y-107750000D03*
X121005000Y-107750000D03*
X118465000Y-107750000D03*
X115925000Y-107750000D03*
X113385000Y-107750000D03*
X110845000Y-107750000D03*
X108305000Y-107750000D03*
%TD*%
D16*
%TO.C,U2*%
X209795000Y-68420000D03*
D12*
X212335000Y-68420000D03*
X214875000Y-68420000D03*
X217415000Y-68420000D03*
X219955000Y-68420000D03*
X222495000Y-68420000D03*
X225035000Y-68420000D03*
X227575000Y-68420000D03*
X227575000Y-60800000D03*
X225035000Y-60800000D03*
X222495000Y-60800000D03*
X219955000Y-60800000D03*
X217415000Y-60800000D03*
X214875000Y-60800000D03*
X212335000Y-60800000D03*
X209795000Y-60800000D03*
%TD*%
%TO.C,C20*%
X196535000Y-141000000D03*
X196535000Y-143500000D03*
%TD*%
%TO.C,C5*%
X117785000Y-85750000D03*
X117785000Y-83250000D03*
%TD*%
%TO.C,C22*%
X206535000Y-141000000D03*
X206535000Y-143500000D03*
%TD*%
%TO.C,C17*%
X236785000Y-107500000D03*
X239285000Y-107500000D03*
%TD*%
%TO.C,R16*%
X79785000Y-93250000D03*
X79785000Y-83090000D03*
%TD*%
%TO.C,C15*%
X163785000Y-125250000D03*
X163785000Y-122750000D03*
%TD*%
%TO.C,R5*%
X153285000Y-94250000D03*
X153285000Y-84090000D03*
%TD*%
%TO.C,R11*%
X107535000Y-93500000D03*
X107535000Y-83340000D03*
%TD*%
%TO.C,R8*%
X141035000Y-94000000D03*
X141035000Y-83840000D03*
%TD*%
%TO.C,R30*%
X171535000Y-133000000D03*
X171535000Y-122840000D03*
%TD*%
D11*
%TO.C,SW17*%
X159535000Y-135000000D03*
X166035000Y-135000000D03*
X159535000Y-139500000D03*
X166035000Y-139500000D03*
%TD*%
D12*
%TO.C,C1*%
X177785000Y-86500000D03*
X177785000Y-84000000D03*
%TD*%
D17*
%TO.C,D2*%
X110455000Y-52500000D03*
D18*
X112995000Y-52500000D03*
X115535000Y-52500000D03*
%TD*%
D12*
%TO.C,R23*%
X123285000Y-132330000D03*
X123285000Y-122170000D03*
%TD*%
%TO.C,R21*%
X108035000Y-132000000D03*
X108035000Y-121840000D03*
%TD*%
%TO.C,R20*%
X95785000Y-131830000D03*
X95785000Y-121670000D03*
%TD*%
D11*
%TO.C,SW4*%
X159285000Y-96250000D03*
X165785000Y-96250000D03*
X159285000Y-100750000D03*
X165785000Y-100750000D03*
%TD*%
D12*
%TO.C,C19*%
X196535000Y-108500000D03*
X196535000Y-111000000D03*
%TD*%
%TO.C,R15*%
X76785000Y-93250000D03*
X76785000Y-83090000D03*
%TD*%
D11*
%TO.C,SW8*%
X98535000Y-95500000D03*
X105035000Y-95500000D03*
X98535000Y-100000000D03*
X105035000Y-100000000D03*
%TD*%
D12*
%TO.C,R24*%
X126285000Y-132330000D03*
X126285000Y-122170000D03*
%TD*%
D11*
%TO.C,SW1*%
X67535000Y-66000000D03*
X74035000Y-66000000D03*
X67535000Y-70500000D03*
X74035000Y-70500000D03*
%TD*%
D12*
%TO.C,C21*%
X191535000Y-141000000D03*
X191535000Y-143500000D03*
%TD*%
D11*
%TO.C,SW2*%
X83285000Y-66250000D03*
X89785000Y-66250000D03*
X83285000Y-70750000D03*
X89785000Y-70750000D03*
%TD*%
%TO.C,SW18*%
X174785000Y-135330000D03*
X181285000Y-135330000D03*
X174785000Y-139830000D03*
X181285000Y-139830000D03*
%TD*%
D12*
%TO.C,C11*%
X102785000Y-124250000D03*
X102785000Y-121750000D03*
%TD*%
D15*
%TO.C,RV2*%
X238455000Y-135500000D03*
X240995000Y-138040000D03*
X243535000Y-135500000D03*
%TD*%
D12*
%TO.C,R36*%
X239535000Y-81840000D03*
X239535000Y-92000000D03*
%TD*%
%TO.C,C7*%
X87285000Y-85170000D03*
X87285000Y-82670000D03*
%TD*%
D11*
%TO.C,SW7*%
X113785000Y-95750000D03*
X120285000Y-95750000D03*
X113785000Y-100250000D03*
X120285000Y-100250000D03*
%TD*%
D12*
%TO.C,C18*%
X236785000Y-112500000D03*
X239285000Y-112500000D03*
%TD*%
%TO.C,R29*%
X168535000Y-133000000D03*
X168535000Y-122840000D03*
%TD*%
D10*
%TO.C,J1*%
X179955000Y-67000000D03*
D11*
X182495000Y-67000000D03*
X185035000Y-67000000D03*
X187575000Y-67000000D03*
X190115000Y-67000000D03*
%TD*%
M02*
